ISO-10303-21;
HEADER;
/* Generated by software containing ST-Developer
 * from STEP Tools, Inc. (www.steptools.com) 
 */
/* OPTION: using custom renumber hook */

FILE_DESCRIPTION(
/* description */ ('STEP AP242 Edition 2',
'CAx-IF Rec.Pracs.---Representation and Presentation of Product Manufa
cturing Information (PMI)---4.0---2014-10-13',
'CAx-IF Rec.Pracs.---3D Tessellated Geometry---0.4---2014-09-14','2;1',
'CAx-IF Rec.Pracs.---User Defined Attributes---1.5---2016-08-15'),
/* implementation_level */ '2;1');

FILE_NAME(
/* name */ 'Part Studio 1 - Back_Panel',
/* time_stamp */ '2026-09-11T10:34:44Z',
/* author */ (''),
/* organization */ (''),
/* preprocessor_version */ 'ST-DEVELOPER v20',
/* originating_system */ 'ONSHAPE BY PTC INC, 1.220',
/* authorisation */ '  ');

FILE_SCHEMA (('AP242_MANAGED_MODEL_BASED_3D_ENGINEERING_MIM_LF { 1 0 10303 442 3 1 4 }'));
ENDSEC;

DATA;
#10=SHAPE_REPRESENTATION_RELATIONSHIP('','',#989,#11);
#11=ADVANCED_BREP_SHAPE_REPRESENTATION('',(#987),#1575);
#12=CYLINDRICAL_SURFACE('',#997,2.);
#13=CYLINDRICAL_SURFACE('',#1007,2.);
#14=CYLINDRICAL_SURFACE('',#1041,0.1625);
#15=CYLINDRICAL_SURFACE('',#1044,0.1625);
#16=CYLINDRICAL_SURFACE('',#1047,0.1625);
#17=CYLINDRICAL_SURFACE('',#1050,0.1625);
#18=CYLINDRICAL_SURFACE('',#1053,0.1625);
#19=CYLINDRICAL_SURFACE('',#1056,0.1625);
#20=CIRCLE('',#992,2.);
#21=CIRCLE('',#993,2.);
#22=CIRCLE('',#995,2.);
#23=CIRCLE('',#996,2.);
#24=CIRCLE('',#999,0.1625);
#25=CIRCLE('',#1000,0.1625);
#26=CIRCLE('',#1001,0.1625);
#27=CIRCLE('',#1004,0.1625);
#28=CIRCLE('',#1005,0.1625);
#29=CIRCLE('',#1006,0.1625);
#30=CIRCLE('',#1042,0.1625);
#31=CIRCLE('',#1045,0.1625);
#32=CIRCLE('',#1048,0.1625);
#33=CIRCLE('',#1051,0.1625);
#34=CIRCLE('',#1054,0.1625);
#35=CIRCLE('',#1057,0.1625);
#36=ORIENTED_EDGE('',*,*,#288,.F.);
#37=ORIENTED_EDGE('',*,*,#289,.T.);
#38=ORIENTED_EDGE('',*,*,#290,.T.);
#39=ORIENTED_EDGE('',*,*,#291,.F.);
#40=ORIENTED_EDGE('',*,*,#292,.F.);
#41=ORIENTED_EDGE('',*,*,#293,.T.);
#42=ORIENTED_EDGE('',*,*,#294,.T.);
#43=ORIENTED_EDGE('',*,*,#295,.F.);
#44=ORIENTED_EDGE('',*,*,#296,.F.);
#45=ORIENTED_EDGE('',*,*,#297,.T.);
#46=ORIENTED_EDGE('',*,*,#298,.T.);
#47=ORIENTED_EDGE('',*,*,#299,.T.);
#48=ORIENTED_EDGE('',*,*,#300,.F.);
#49=ORIENTED_EDGE('',*,*,#301,.T.);
#50=ORIENTED_EDGE('',*,*,#302,.F.);
#51=ORIENTED_EDGE('',*,*,#303,.F.);
#52=ORIENTED_EDGE('',*,*,#304,.T.);
#53=ORIENTED_EDGE('',*,*,#305,.T.);
#54=ORIENTED_EDGE('',*,*,#306,.F.);
#55=ORIENTED_EDGE('',*,*,#307,.F.);
#56=ORIENTED_EDGE('',*,*,#308,.F.);
#57=ORIENTED_EDGE('',*,*,#309,.T.);
#58=ORIENTED_EDGE('',*,*,#310,.F.);
#59=ORIENTED_EDGE('',*,*,#311,.F.);
#60=ORIENTED_EDGE('',*,*,#312,.T.);
#61=ORIENTED_EDGE('',*,*,#313,.T.);
#62=ORIENTED_EDGE('',*,*,#314,.F.);
#63=ORIENTED_EDGE('',*,*,#315,.T.);
#64=ORIENTED_EDGE('',*,*,#316,.T.);
#65=ORIENTED_EDGE('',*,*,#317,.T.);
#66=ORIENTED_EDGE('',*,*,#318,.F.);
#67=ORIENTED_EDGE('',*,*,#319,.T.);
#68=ORIENTED_EDGE('',*,*,#320,.T.);
#69=ORIENTED_EDGE('',*,*,#321,.F.);
#70=ORIENTED_EDGE('',*,*,#322,.F.);
#71=ORIENTED_EDGE('',*,*,#323,.F.);
#72=ORIENTED_EDGE('',*,*,#324,.T.);
#73=ORIENTED_EDGE('',*,*,#325,.F.);
#74=ORIENTED_EDGE('',*,*,#326,.F.);
#75=ORIENTED_EDGE('',*,*,#327,.F.);
#76=ORIENTED_EDGE('',*,*,#328,.T.);
#77=ORIENTED_EDGE('',*,*,#329,.T.);
#78=ORIENTED_EDGE('',*,*,#330,.T.);
#79=ORIENTED_EDGE('',*,*,#331,.F.);
#80=ORIENTED_EDGE('',*,*,#332,.F.);
#81=ORIENTED_EDGE('',*,*,#333,.T.);
#82=ORIENTED_EDGE('',*,*,#334,.T.);
#83=ORIENTED_EDGE('',*,*,#335,.T.);
#84=ORIENTED_EDGE('',*,*,#336,.T.);
#85=ORIENTED_EDGE('',*,*,#337,.T.);
#86=ORIENTED_EDGE('',*,*,#338,.F.);
#87=ORIENTED_EDGE('',*,*,#339,.F.);
#88=ORIENTED_EDGE('',*,*,#340,.F.);
#89=ORIENTED_EDGE('',*,*,#341,.T.);
#90=ORIENTED_EDGE('',*,*,#342,.F.);
#91=ORIENTED_EDGE('',*,*,#343,.F.);
#92=ORIENTED_EDGE('',*,*,#344,.F.);
#93=ORIENTED_EDGE('',*,*,#345,.T.);
#94=ORIENTED_EDGE('',*,*,#346,.F.);
#95=ORIENTED_EDGE('',*,*,#347,.F.);
#96=ORIENTED_EDGE('',*,*,#348,.F.);
#97=ORIENTED_EDGE('',*,*,#349,.T.);
#98=ORIENTED_EDGE('',*,*,#350,.T.);
#99=ORIENTED_EDGE('',*,*,#351,.F.);
#100=ORIENTED_EDGE('',*,*,#352,.F.);
#101=ORIENTED_EDGE('',*,*,#353,.T.);
#102=ORIENTED_EDGE('',*,*,#354,.T.);
#103=ORIENTED_EDGE('',*,*,#355,.F.);
#104=ORIENTED_EDGE('',*,*,#356,.F.);
#105=ORIENTED_EDGE('',*,*,#357,.T.);
#106=ORIENTED_EDGE('',*,*,#358,.T.);
#107=ORIENTED_EDGE('',*,*,#359,.F.);
#108=ORIENTED_EDGE('',*,*,#360,.T.);
#109=ORIENTED_EDGE('',*,*,#361,.T.);
#110=ORIENTED_EDGE('',*,*,#362,.T.);
#111=ORIENTED_EDGE('',*,*,#363,.F.);
#112=ORIENTED_EDGE('',*,*,#326,.T.);
#113=ORIENTED_EDGE('',*,*,#364,.F.);
#114=ORIENTED_EDGE('',*,*,#304,.F.);
#115=ORIENTED_EDGE('',*,*,#365,.T.);
#116=ORIENTED_EDGE('',*,*,#366,.F.);
#117=ORIENTED_EDGE('',*,*,#367,.F.);
#118=ORIENTED_EDGE('',*,*,#368,.F.);
#119=ORIENTED_EDGE('',*,*,#327,.T.);
#120=ORIENTED_EDGE('',*,*,#365,.F.);
#121=ORIENTED_EDGE('',*,*,#309,.F.);
#122=ORIENTED_EDGE('',*,*,#369,.T.);
#123=ORIENTED_EDGE('',*,*,#328,.F.);
#124=ORIENTED_EDGE('',*,*,#369,.F.);
#125=ORIENTED_EDGE('',*,*,#308,.T.);
#126=ORIENTED_EDGE('',*,*,#370,.T.);
#127=ORIENTED_EDGE('',*,*,#371,.F.);
#128=ORIENTED_EDGE('',*,*,#372,.F.);
#129=ORIENTED_EDGE('',*,*,#373,.F.);
#130=ORIENTED_EDGE('',*,*,#329,.F.);
#131=ORIENTED_EDGE('',*,*,#370,.F.);
#132=ORIENTED_EDGE('',*,*,#307,.T.);
#133=ORIENTED_EDGE('',*,*,#374,.T.);
#134=ORIENTED_EDGE('',*,*,#330,.F.);
#135=ORIENTED_EDGE('',*,*,#374,.F.);
#136=ORIENTED_EDGE('',*,*,#306,.T.);
#137=ORIENTED_EDGE('',*,*,#375,.T.);
#138=ORIENTED_EDGE('',*,*,#331,.T.);
#139=ORIENTED_EDGE('',*,*,#375,.F.);
#140=ORIENTED_EDGE('',*,*,#305,.F.);
#141=ORIENTED_EDGE('',*,*,#364,.T.);
#142=ORIENTED_EDGE('',*,*,#300,.T.);
#143=ORIENTED_EDGE('',*,*,#376,.T.);
#144=ORIENTED_EDGE('',*,*,#333,.F.);
#145=ORIENTED_EDGE('',*,*,#377,.F.);
#146=ORIENTED_EDGE('',*,*,#377,.T.);
#147=ORIENTED_EDGE('',*,*,#332,.T.);
#148=ORIENTED_EDGE('',*,*,#378,.F.);
#149=ORIENTED_EDGE('',*,*,#301,.F.);
#150=ORIENTED_EDGE('',*,*,#302,.T.);
#151=ORIENTED_EDGE('',*,*,#378,.T.);
#152=ORIENTED_EDGE('',*,*,#335,.F.);
#153=ORIENTED_EDGE('',*,*,#379,.F.);
#154=ORIENTED_EDGE('',*,*,#303,.T.);
#155=ORIENTED_EDGE('',*,*,#379,.T.);
#156=ORIENTED_EDGE('',*,*,#334,.F.);
#157=ORIENTED_EDGE('',*,*,#376,.F.);
#158=ORIENTED_EDGE('',*,*,#310,.T.);
#159=ORIENTED_EDGE('',*,*,#380,.T.);
#160=ORIENTED_EDGE('',*,*,#337,.F.);
#161=ORIENTED_EDGE('',*,*,#381,.F.);
#162=ORIENTED_EDGE('',*,*,#311,.T.);
#163=ORIENTED_EDGE('',*,*,#381,.T.);
#164=ORIENTED_EDGE('',*,*,#336,.F.);
#165=ORIENTED_EDGE('',*,*,#382,.F.);
#166=ORIENTED_EDGE('',*,*,#382,.T.);
#167=ORIENTED_EDGE('',*,*,#339,.T.);
#168=ORIENTED_EDGE('',*,*,#383,.F.);
#169=ORIENTED_EDGE('',*,*,#312,.F.);
#170=ORIENTED_EDGE('',*,*,#383,.T.);
#171=ORIENTED_EDGE('',*,*,#338,.T.);
#172=ORIENTED_EDGE('',*,*,#380,.F.);
#173=ORIENTED_EDGE('',*,*,#313,.F.);
#174=ORIENTED_EDGE('',*,*,#296,.T.);
#175=ORIENTED_EDGE('',*,*,#384,.T.);
#176=ORIENTED_EDGE('',*,*,#341,.F.);
#177=ORIENTED_EDGE('',*,*,#385,.F.);
#178=ORIENTED_EDGE('',*,*,#385,.T.);
#179=ORIENTED_EDGE('',*,*,#340,.T.);
#180=ORIENTED_EDGE('',*,*,#386,.F.);
#181=ORIENTED_EDGE('',*,*,#297,.F.);
#182=ORIENTED_EDGE('',*,*,#386,.T.);
#183=ORIENTED_EDGE('',*,*,#343,.T.);
#184=ORIENTED_EDGE('',*,*,#387,.F.);
#185=ORIENTED_EDGE('',*,*,#298,.F.);
#186=ORIENTED_EDGE('',*,*,#387,.T.);
#187=ORIENTED_EDGE('',*,*,#342,.T.);
#188=ORIENTED_EDGE('',*,*,#384,.F.);
#189=ORIENTED_EDGE('',*,*,#299,.F.);
#190=ORIENTED_EDGE('',*,*,#314,.T.);
#191=ORIENTED_EDGE('',*,*,#388,.T.);
#192=ORIENTED_EDGE('',*,*,#345,.F.);
#193=ORIENTED_EDGE('',*,*,#389,.F.);
#194=ORIENTED_EDGE('',*,*,#389,.T.);
#195=ORIENTED_EDGE('',*,*,#344,.T.);
#196=ORIENTED_EDGE('',*,*,#390,.F.);
#197=ORIENTED_EDGE('',*,*,#315,.F.);
#198=ORIENTED_EDGE('',*,*,#390,.T.);
#199=ORIENTED_EDGE('',*,*,#347,.T.);
#200=ORIENTED_EDGE('',*,*,#391,.F.);
#201=ORIENTED_EDGE('',*,*,#316,.F.);
#202=ORIENTED_EDGE('',*,*,#391,.T.);
#203=ORIENTED_EDGE('',*,*,#346,.T.);
#204=ORIENTED_EDGE('',*,*,#388,.F.);
#205=ORIENTED_EDGE('',*,*,#317,.F.);
#206=ORIENTED_EDGE('',*,*,#292,.T.);
#207=ORIENTED_EDGE('',*,*,#392,.T.);
#208=ORIENTED_EDGE('',*,*,#349,.F.);
#209=ORIENTED_EDGE('',*,*,#393,.F.);
#210=ORIENTED_EDGE('',*,*,#393,.T.);
#211=ORIENTED_EDGE('',*,*,#348,.T.);
#212=ORIENTED_EDGE('',*,*,#394,.F.);
#213=ORIENTED_EDGE('',*,*,#293,.F.);
#214=ORIENTED_EDGE('',*,*,#394,.T.);
#215=ORIENTED_EDGE('',*,*,#351,.T.);
#216=ORIENTED_EDGE('',*,*,#395,.F.);
#217=ORIENTED_EDGE('',*,*,#294,.F.);
#218=ORIENTED_EDGE('',*,*,#295,.T.);
#219=ORIENTED_EDGE('',*,*,#395,.T.);
#220=ORIENTED_EDGE('',*,*,#350,.F.);
#221=ORIENTED_EDGE('',*,*,#392,.F.);
#222=ORIENTED_EDGE('',*,*,#318,.T.);
#223=ORIENTED_EDGE('',*,*,#396,.T.);
#224=ORIENTED_EDGE('',*,*,#353,.F.);
#225=ORIENTED_EDGE('',*,*,#397,.F.);
#226=ORIENTED_EDGE('',*,*,#397,.T.);
#227=ORIENTED_EDGE('',*,*,#352,.T.);
#228=ORIENTED_EDGE('',*,*,#398,.F.);
#229=ORIENTED_EDGE('',*,*,#319,.F.);
#230=ORIENTED_EDGE('',*,*,#398,.T.);
#231=ORIENTED_EDGE('',*,*,#355,.T.);
#232=ORIENTED_EDGE('',*,*,#399,.F.);
#233=ORIENTED_EDGE('',*,*,#320,.F.);
#234=ORIENTED_EDGE('',*,*,#321,.T.);
#235=ORIENTED_EDGE('',*,*,#399,.T.);
#236=ORIENTED_EDGE('',*,*,#354,.F.);
#237=ORIENTED_EDGE('',*,*,#396,.F.);
#238=ORIENTED_EDGE('',*,*,#288,.T.);
#239=ORIENTED_EDGE('',*,*,#400,.T.);
#240=ORIENTED_EDGE('',*,*,#357,.F.);
#241=ORIENTED_EDGE('',*,*,#401,.F.);
#242=ORIENTED_EDGE('',*,*,#401,.T.);
#243=ORIENTED_EDGE('',*,*,#356,.T.);
#244=ORIENTED_EDGE('',*,*,#402,.F.);
#245=ORIENTED_EDGE('',*,*,#289,.F.);
#246=ORIENTED_EDGE('',*,*,#402,.T.);
#247=ORIENTED_EDGE('',*,*,#359,.T.);
#248=ORIENTED_EDGE('',*,*,#403,.F.);
#249=ORIENTED_EDGE('',*,*,#290,.F.);
#250=ORIENTED_EDGE('',*,*,#291,.T.);
#251=ORIENTED_EDGE('',*,*,#403,.T.);
#252=ORIENTED_EDGE('',*,*,#358,.F.);
#253=ORIENTED_EDGE('',*,*,#400,.F.);
#254=ORIENTED_EDGE('',*,*,#322,.T.);
#255=ORIENTED_EDGE('',*,*,#404,.T.);
#256=ORIENTED_EDGE('',*,*,#361,.F.);
#257=ORIENTED_EDGE('',*,*,#405,.F.);
#258=ORIENTED_EDGE('',*,*,#323,.T.);
#259=ORIENTED_EDGE('',*,*,#405,.T.);
#260=ORIENTED_EDGE('',*,*,#360,.F.);
#261=ORIENTED_EDGE('',*,*,#406,.F.);
#262=ORIENTED_EDGE('',*,*,#406,.T.);
#263=ORIENTED_EDGE('',*,*,#363,.T.);
#264=ORIENTED_EDGE('',*,*,#407,.F.);
#265=ORIENTED_EDGE('',*,*,#324,.F.);
#266=ORIENTED_EDGE('',*,*,#325,.T.);
#267=ORIENTED_EDGE('',*,*,#407,.T.);
#268=ORIENTED_EDGE('',*,*,#362,.F.);
#269=ORIENTED_EDGE('',*,*,#404,.F.);
#270=ORIENTED_EDGE('',*,*,#373,.T.);
#271=ORIENTED_EDGE('',*,*,#408,.F.);
#272=ORIENTED_EDGE('',*,*,#408,.T.);
#273=ORIENTED_EDGE('',*,*,#372,.T.);
#274=ORIENTED_EDGE('',*,*,#409,.F.);
#275=ORIENTED_EDGE('',*,*,#409,.T.);
#276=ORIENTED_EDGE('',*,*,#371,.T.);
#277=ORIENTED_EDGE('',*,*,#410,.F.);
#278=ORIENTED_EDGE('',*,*,#410,.T.);
#279=ORIENTED_EDGE('',*,*,#411,.T.);
#280=ORIENTED_EDGE('',*,*,#368,.T.);
#281=ORIENTED_EDGE('',*,*,#411,.F.);
#282=ORIENTED_EDGE('',*,*,#412,.T.);
#283=ORIENTED_EDGE('',*,*,#367,.T.);
#284=ORIENTED_EDGE('',*,*,#412,.F.);
#285=ORIENTED_EDGE('',*,*,#413,.T.);
#286=ORIENTED_EDGE('',*,*,#366,.T.);
#287=ORIENTED_EDGE('',*,*,#413,.F.);
#288=EDGE_CURVE('',#414,#415,#502,.T.);
#289=EDGE_CURVE('',#414,#416,#503,.T.);
#290=EDGE_CURVE('',#416,#417,#504,.T.);
#291=EDGE_CURVE('',#415,#417,#505,.T.);
#292=EDGE_CURVE('',#418,#419,#506,.T.);
#293=EDGE_CURVE('',#418,#420,#507,.T.);
#294=EDGE_CURVE('',#420,#421,#508,.T.);
#295=EDGE_CURVE('',#419,#421,#509,.T.);
#296=EDGE_CURVE('',#422,#423,#510,.T.);
#297=EDGE_CURVE('',#422,#424,#511,.T.);
#298=EDGE_CURVE('',#424,#425,#512,.T.);
#299=EDGE_CURVE('',#425,#423,#513,.T.);
#300=EDGE_CURVE('',#426,#427,#514,.T.);
#301=EDGE_CURVE('',#426,#428,#515,.T.);
#302=EDGE_CURVE('',#429,#428,#516,.T.);
#303=EDGE_CURVE('',#427,#429,#517,.T.);
#304=EDGE_CURVE('',#430,#431,#20,.F.);
#305=EDGE_CURVE('',#431,#432,#518,.F.);
#306=EDGE_CURVE('',#433,#432,#21,.T.);
#307=EDGE_CURVE('',#434,#433,#519,.T.);
#308=EDGE_CURVE('',#435,#434,#520,.T.);
#309=EDGE_CURVE('',#435,#430,#521,.T.);
#310=EDGE_CURVE('',#436,#437,#522,.T.);
#311=EDGE_CURVE('',#438,#436,#523,.T.);
#312=EDGE_CURVE('',#438,#439,#524,.T.);
#313=EDGE_CURVE('',#439,#437,#525,.T.);
#314=EDGE_CURVE('',#440,#441,#526,.T.);
#315=EDGE_CURVE('',#440,#442,#527,.T.);
#316=EDGE_CURVE('',#442,#443,#528,.T.);
#317=EDGE_CURVE('',#443,#441,#529,.T.);
#318=EDGE_CURVE('',#444,#445,#530,.T.);
#319=EDGE_CURVE('',#444,#446,#531,.T.);
#320=EDGE_CURVE('',#446,#447,#532,.T.);
#321=EDGE_CURVE('',#445,#447,#533,.T.);
#322=EDGE_CURVE('',#448,#449,#534,.T.);
#323=EDGE_CURVE('',#450,#448,#535,.T.);
#324=EDGE_CURVE('',#450,#451,#536,.T.);
#325=EDGE_CURVE('',#449,#451,#537,.T.);
#326=EDGE_CURVE('',#452,#453,#22,.F.);
#327=EDGE_CURVE('',#454,#452,#538,.T.);
#328=EDGE_CURVE('',#454,#455,#539,.T.);
#329=EDGE_CURVE('',#455,#456,#540,.T.);
#330=EDGE_CURVE('',#456,#457,#23,.T.);
#331=EDGE_CURVE('',#453,#457,#541,.F.);
#332=EDGE_CURVE('',#458,#459,#542,.T.);
#333=EDGE_CURVE('',#458,#460,#543,.T.);
#334=EDGE_CURVE('',#460,#461,#544,.T.);
#335=EDGE_CURVE('',#461,#459,#545,.T.);
#336=EDGE_CURVE('',#462,#463,#546,.T.);
#337=EDGE_CURVE('',#463,#464,#547,.T.);
#338=EDGE_CURVE('',#465,#464,#548,.T.);
#339=EDGE_CURVE('',#462,#465,#549,.T.);
#340=EDGE_CURVE('',#466,#467,#550,.T.);
#341=EDGE_CURVE('',#466,#468,#551,.T.);
#342=EDGE_CURVE('',#469,#468,#552,.T.);
#343=EDGE_CURVE('',#467,#469,#553,.T.);
#344=EDGE_CURVE('',#470,#471,#554,.T.);
#345=EDGE_CURVE('',#470,#472,#555,.T.);
#346=EDGE_CURVE('',#473,#472,#556,.T.);
#347=EDGE_CURVE('',#471,#473,#557,.T.);
#348=EDGE_CURVE('',#474,#475,#558,.T.);
#349=EDGE_CURVE('',#474,#476,#559,.T.);
#350=EDGE_CURVE('',#476,#477,#560,.T.);
#351=EDGE_CURVE('',#475,#477,#561,.T.);
#352=EDGE_CURVE('',#478,#479,#562,.T.);
#353=EDGE_CURVE('',#478,#480,#563,.T.);
#354=EDGE_CURVE('',#480,#481,#564,.T.);
#355=EDGE_CURVE('',#479,#481,#565,.T.);
#356=EDGE_CURVE('',#482,#483,#566,.T.);
#357=EDGE_CURVE('',#482,#484,#567,.T.);
#358=EDGE_CURVE('',#484,#485,#568,.T.);
#359=EDGE_CURVE('',#483,#485,#569,.T.);
#360=EDGE_CURVE('',#486,#487,#570,.T.);
#361=EDGE_CURVE('',#487,#488,#571,.T.);
#362=EDGE_CURVE('',#488,#489,#572,.T.);
#363=EDGE_CURVE('',#486,#489,#573,.T.);
#364=EDGE_CURVE('',#431,#453,#574,.T.);
#365=EDGE_CURVE('',#430,#452,#575,.T.);
#366=EDGE_CURVE('',#490,#490,#24,.F.);
#367=EDGE_CURVE('',#491,#491,#25,.F.);
#368=EDGE_CURVE('',#492,#492,#26,.F.);
#369=EDGE_CURVE('',#435,#454,#576,.T.);
#370=EDGE_CURVE('',#434,#455,#577,.T.);
#371=EDGE_CURVE('',#493,#493,#27,.T.);
#372=EDGE_CURVE('',#494,#494,#28,.T.);
#373=EDGE_CURVE('',#495,#495,#29,.T.);
#374=EDGE_CURVE('',#433,#456,#578,.T.);
#375=EDGE_CURVE('',#432,#457,#579,.T.);
#376=EDGE_CURVE('',#427,#460,#580,.T.);
#377=EDGE_CURVE('',#426,#458,#581,.T.);
#378=EDGE_CURVE('',#428,#459,#582,.T.);
#379=EDGE_CURVE('',#429,#461,#583,.T.);
#380=EDGE_CURVE('',#437,#464,#584,.T.);
#381=EDGE_CURVE('',#436,#463,#585,.T.);
#382=EDGE_CURVE('',#438,#462,#586,.T.);
#383=EDGE_CURVE('',#439,#465,#587,.T.);
#384=EDGE_CURVE('',#423,#468,#588,.T.);
#385=EDGE_CURVE('',#422,#466,#589,.T.);
#386=EDGE_CURVE('',#424,#467,#590,.T.);
#387=EDGE_CURVE('',#425,#469,#591,.T.);
#388=EDGE_CURVE('',#441,#472,#592,.T.);
#389=EDGE_CURVE('',#440,#470,#593,.T.);
#390=EDGE_CURVE('',#442,#471,#594,.T.);
#391=EDGE_CURVE('',#443,#473,#595,.T.);
#392=EDGE_CURVE('',#419,#476,#596,.T.);
#393=EDGE_CURVE('',#418,#474,#597,.T.);
#394=EDGE_CURVE('',#420,#475,#598,.T.);
#395=EDGE_CURVE('',#421,#477,#599,.T.);
#396=EDGE_CURVE('',#445,#480,#600,.T.);
#397=EDGE_CURVE('',#444,#478,#601,.T.);
#398=EDGE_CURVE('',#446,#479,#602,.T.);
#399=EDGE_CURVE('',#447,#481,#603,.T.);
#400=EDGE_CURVE('',#415,#484,#604,.T.);
#401=EDGE_CURVE('',#414,#482,#605,.T.);
#402=EDGE_CURVE('',#416,#483,#606,.T.);
#403=EDGE_CURVE('',#417,#485,#607,.T.);
#404=EDGE_CURVE('',#449,#488,#608,.T.);
#405=EDGE_CURVE('',#448,#487,#609,.T.);
#406=EDGE_CURVE('',#450,#486,#610,.T.);
#407=EDGE_CURVE('',#451,#489,#611,.T.);
#408=EDGE_CURVE('',#496,#496,#30,.T.);
#409=EDGE_CURVE('',#497,#497,#31,.T.);
#410=EDGE_CURVE('',#498,#498,#32,.T.);
#411=EDGE_CURVE('',#499,#499,#33,.T.);
#412=EDGE_CURVE('',#500,#500,#34,.T.);
#413=EDGE_CURVE('',#501,#501,#35,.T.);
#414=VERTEX_POINT('',#1310);
#415=VERTEX_POINT('',#1311);
#416=VERTEX_POINT('',#1313);
#417=VERTEX_POINT('',#1315);
#418=VERTEX_POINT('',#1318);
#419=VERTEX_POINT('',#1319);
#420=VERTEX_POINT('',#1321);
#421=VERTEX_POINT('',#1323);
#422=VERTEX_POINT('',#1326);
#423=VERTEX_POINT('',#1327);
#424=VERTEX_POINT('',#1329);
#425=VERTEX_POINT('',#1331);
#426=VERTEX_POINT('',#1334);
#427=VERTEX_POINT('',#1335);
#428=VERTEX_POINT('',#1337);
#429=VERTEX_POINT('',#1339);
#430=VERTEX_POINT('',#1342);
#431=VERTEX_POINT('',#1343);
#432=VERTEX_POINT('',#1345);
#433=VERTEX_POINT('',#1347);
#434=VERTEX_POINT('',#1349);
#435=VERTEX_POINT('',#1351);
#436=VERTEX_POINT('',#1354);
#437=VERTEX_POINT('',#1355);
#438=VERTEX_POINT('',#1357);
#439=VERTEX_POINT('',#1359);
#440=VERTEX_POINT('',#1362);
#441=VERTEX_POINT('',#1363);
#442=VERTEX_POINT('',#1365);
#443=VERTEX_POINT('',#1367);
#444=VERTEX_POINT('',#1370);
#445=VERTEX_POINT('',#1371);
#446=VERTEX_POINT('',#1373);
#447=VERTEX_POINT('',#1375);
#448=VERTEX_POINT('',#1378);
#449=VERTEX_POINT('',#1379);
#450=VERTEX_POINT('',#1381);
#451=VERTEX_POINT('',#1383);
#452=VERTEX_POINT('',#1387);
#453=VERTEX_POINT('',#1388);
#454=VERTEX_POINT('',#1390);
#455=VERTEX_POINT('',#1392);
#456=VERTEX_POINT('',#1394);
#457=VERTEX_POINT('',#1396);
#458=VERTEX_POINT('',#1399);
#459=VERTEX_POINT('',#1400);
#460=VERTEX_POINT('',#1402);
#461=VERTEX_POINT('',#1404);
#462=VERTEX_POINT('',#1407);
#463=VERTEX_POINT('',#1408);
#464=VERTEX_POINT('',#1410);
#465=VERTEX_POINT('',#1412);
#466=VERTEX_POINT('',#1415);
#467=VERTEX_POINT('',#1416);
#468=VERTEX_POINT('',#1418);
#469=VERTEX_POINT('',#1420);
#470=VERTEX_POINT('',#1423);
#471=VERTEX_POINT('',#1424);
#472=VERTEX_POINT('',#1426);
#473=VERTEX_POINT('',#1428);
#474=VERTEX_POINT('',#1431);
#475=VERTEX_POINT('',#1432);
#476=VERTEX_POINT('',#1434);
#477=VERTEX_POINT('',#1436);
#478=VERTEX_POINT('',#1439);
#479=VERTEX_POINT('',#1440);
#480=VERTEX_POINT('',#1442);
#481=VERTEX_POINT('',#1444);
#482=VERTEX_POINT('',#1447);
#483=VERTEX_POINT('',#1448);
#484=VERTEX_POINT('',#1450);
#485=VERTEX_POINT('',#1452);
#486=VERTEX_POINT('',#1455);
#487=VERTEX_POINT('',#1456);
#488=VERTEX_POINT('',#1458);
#489=VERTEX_POINT('',#1460);
#490=VERTEX_POINT('',#1467);
#491=VERTEX_POINT('',#1469);
#492=VERTEX_POINT('',#1471);
#493=VERTEX_POINT('',#1477);
#494=VERTEX_POINT('',#1479);
#495=VERTEX_POINT('',#1481);
#496=VERTEX_POINT('',#1552);
#497=VERTEX_POINT('',#1556);
#498=VERTEX_POINT('',#1560);
#499=VERTEX_POINT('',#1564);
#500=VERTEX_POINT('',#1568);
#501=VERTEX_POINT('',#1572);
#502=LINE('',#1309,#612);
#503=LINE('',#1312,#613);
#504=LINE('',#1314,#614);
#505=LINE('',#1316,#615);
#506=LINE('',#1317,#616);
#507=LINE('',#1320,#617);
#508=LINE('',#1322,#618);
#509=LINE('',#1324,#619);
#510=LINE('',#1325,#620);
#511=LINE('',#1328,#621);
#512=LINE('',#1330,#622);
#513=LINE('',#1332,#623);
#514=LINE('',#1333,#624);
#515=LINE('',#1336,#625);
#516=LINE('',#1338,#626);
#517=LINE('',#1340,#627);
#518=LINE('',#1344,#628);
#519=LINE('',#1348,#629);
#520=LINE('',#1350,#630);
#521=LINE('',#1352,#631);
#522=LINE('',#1353,#632);
#523=LINE('',#1356,#633);
#524=LINE('',#1358,#634);
#525=LINE('',#1360,#635);
#526=LINE('',#1361,#636);
#527=LINE('',#1364,#637);
#528=LINE('',#1366,#638);
#529=LINE('',#1368,#639);
#530=LINE('',#1369,#640);
#531=LINE('',#1372,#641);
#532=LINE('',#1374,#642);
#533=LINE('',#1376,#643);
#534=LINE('',#1377,#644);
#535=LINE('',#1380,#645);
#536=LINE('',#1382,#646);
#537=LINE('',#1384,#647);
#538=LINE('',#1389,#648);
#539=LINE('',#1391,#649);
#540=LINE('',#1393,#650);
#541=LINE('',#1397,#651);
#542=LINE('',#1398,#652);
#543=LINE('',#1401,#653);
#544=LINE('',#1403,#654);
#545=LINE('',#1405,#655);
#546=LINE('',#1406,#656);
#547=LINE('',#1409,#657);
#548=LINE('',#1411,#658);
#549=LINE('',#1413,#659);
#550=LINE('',#1414,#660);
#551=LINE('',#1417,#661);
#552=LINE('',#1419,#662);
#553=LINE('',#1421,#663);
#554=LINE('',#1422,#664);
#555=LINE('',#1425,#665);
#556=LINE('',#1427,#666);
#557=LINE('',#1429,#667);
#558=LINE('',#1430,#668);
#559=LINE('',#1433,#669);
#560=LINE('',#1435,#670);
#561=LINE('',#1437,#671);
#562=LINE('',#1438,#672);
#563=LINE('',#1441,#673);
#564=LINE('',#1443,#674);
#565=LINE('',#1445,#675);
#566=LINE('',#1446,#676);
#567=LINE('',#1449,#677);
#568=LINE('',#1451,#678);
#569=LINE('',#1453,#679);
#570=LINE('',#1454,#680);
#571=LINE('',#1457,#681);
#572=LINE('',#1459,#682);
#573=LINE('',#1461,#683);
#574=LINE('',#1463,#684);
#575=LINE('',#1464,#685);
#576=LINE('',#1472,#686);
#577=LINE('',#1474,#687);
#578=LINE('',#1482,#688);
#579=LINE('',#1484,#689);
#580=LINE('',#1487,#690);
#581=LINE('',#1488,#691);
#582=LINE('',#1490,#692);
#583=LINE('',#1492,#693);
#584=LINE('',#1495,#694);
#585=LINE('',#1496,#695);
#586=LINE('',#1498,#696);
#587=LINE('',#1500,#697);
#588=LINE('',#1503,#698);
#589=LINE('',#1504,#699);
#590=LINE('',#1506,#700);
#591=LINE('',#1508,#701);
#592=LINE('',#1511,#702);
#593=LINE('',#1512,#703);
#594=LINE('',#1514,#704);
#595=LINE('',#1516,#705);
#596=LINE('',#1519,#706);
#597=LINE('',#1520,#707);
#598=LINE('',#1522,#708);
#599=LINE('',#1524,#709);
#600=LINE('',#1527,#710);
#601=LINE('',#1528,#711);
#602=LINE('',#1530,#712);
#603=LINE('',#1532,#713);
#604=LINE('',#1535,#714);
#605=LINE('',#1536,#715);
#606=LINE('',#1538,#716);
#607=LINE('',#1540,#717);
#608=LINE('',#1543,#718);
#609=LINE('',#1544,#719);
#610=LINE('',#1546,#720);
#611=LINE('',#1548,#721);
#612=VECTOR('',#1063,100.);
#613=VECTOR('',#1064,100.);
#614=VECTOR('',#1065,100.);
#615=VECTOR('',#1066,100.);
#616=VECTOR('',#1067,100.);
#617=VECTOR('',#1068,100.);
#618=VECTOR('',#1069,100.);
#619=VECTOR('',#1070,100.);
#620=VECTOR('',#1071,100.);
#621=VECTOR('',#1072,100.);
#622=VECTOR('',#1073,100.);
#623=VECTOR('',#1074,100.);
#624=VECTOR('',#1075,100.);
#625=VECTOR('',#1076,100.);
#626=VECTOR('',#1077,100.);
#627=VECTOR('',#1078,100.);
#628=VECTOR('',#1081,100.);
#629=VECTOR('',#1084,100.);
#630=VECTOR('',#1085,100.);
#631=VECTOR('',#1086,100.);
#632=VECTOR('',#1087,100.);
#633=VECTOR('',#1088,100.);
#634=VECTOR('',#1089,100.);
#635=VECTOR('',#1090,100.);
#636=VECTOR('',#1091,100.);
#637=VECTOR('',#1092,100.);
#638=VECTOR('',#1093,100.);
#639=VECTOR('',#1094,100.);
#640=VECTOR('',#1095,100.);
#641=VECTOR('',#1096,100.);
#642=VECTOR('',#1097,100.);
#643=VECTOR('',#1098,100.);
#644=VECTOR('',#1099,100.);
#645=VECTOR('',#1100,100.);
#646=VECTOR('',#1101,100.);
#647=VECTOR('',#1102,100.);
#648=VECTOR('',#1107,100.);
#649=VECTOR('',#1108,100.);
#650=VECTOR('',#1109,100.);
#651=VECTOR('',#1112,100.);
#652=VECTOR('',#1113,100.);
#653=VECTOR('',#1114,100.);
#654=VECTOR('',#1115,100.);
#655=VECTOR('',#1116,100.);
#656=VECTOR('',#1117,100.);
#657=VECTOR('',#1118,100.);
#658=VECTOR('',#1119,100.);
#659=VECTOR('',#1120,100.);
#660=VECTOR('',#1121,100.);
#661=VECTOR('',#1122,100.);
#662=VECTOR('',#1123,100.);
#663=VECTOR('',#1124,100.);
#664=VECTOR('',#1125,100.);
#665=VECTOR('',#1126,100.);
#666=VECTOR('',#1127,100.);
#667=VECTOR('',#1128,100.);
#668=VECTOR('',#1129,100.);
#669=VECTOR('',#1130,100.);
#670=VECTOR('',#1131,100.);
#671=VECTOR('',#1132,100.);
#672=VECTOR('',#1133,100.);
#673=VECTOR('',#1134,100.);
#674=VECTOR('',#1135,100.);
#675=VECTOR('',#1136,100.);
#676=VECTOR('',#1137,100.);
#677=VECTOR('',#1138,100.);
#678=VECTOR('',#1139,100.);
#679=VECTOR('',#1140,100.);
#680=VECTOR('',#1141,100.);
#681=VECTOR('',#1142,100.);
#682=VECTOR('',#1143,100.);
#683=VECTOR('',#1144,100.);
#684=VECTOR('',#1147,100.);
#685=VECTOR('',#1148,100.);
#686=VECTOR('',#1157,100.);
#687=VECTOR('',#1160,100.);
#688=VECTOR('',#1169,100.);
#689=VECTOR('',#1172,100.);
#690=VECTOR('',#1177,100.);
#691=VECTOR('',#1178,100.);
#692=VECTOR('',#1181,100.);
#693=VECTOR('',#1184,100.);
#694=VECTOR('',#1189,100.);
#695=VECTOR('',#1190,100.);
#696=VECTOR('',#1193,100.);
#697=VECTOR('',#1196,100.);
#698=VECTOR('',#1201,100.);
#699=VECTOR('',#1202,100.);
#700=VECTOR('',#1205,100.);
#701=VECTOR('',#1208,100.);
#702=VECTOR('',#1213,100.);
#703=VECTOR('',#1214,100.);
#704=VECTOR('',#1217,100.);
#705=VECTOR('',#1220,100.);
#706=VECTOR('',#1225,100.);
#707=VECTOR('',#1226,100.);
#708=VECTOR('',#1229,100.);
#709=VECTOR('',#1232,100.);
#710=VECTOR('',#1237,100.);
#711=VECTOR('',#1238,100.);
#712=VECTOR('',#1241,100.);
#713=VECTOR('',#1244,100.);
#714=VECTOR('',#1249,100.);
#715=VECTOR('',#1250,100.);
#716=VECTOR('',#1253,100.);
#717=VECTOR('',#1256,100.);
#718=VECTOR('',#1261,100.);
#719=VECTOR('',#1262,100.);
#720=VECTOR('',#1265,100.);
#721=VECTOR('',#1268,100.);
#722=EDGE_LOOP('',(#36,#37,#38,#39));
#723=EDGE_LOOP('',(#40,#41,#42,#43));
#724=EDGE_LOOP('',(#44,#45,#46,#47));
#725=EDGE_LOOP('',(#48,#49,#50,#51));
#726=EDGE_LOOP('',(#52,#53,#54,#55,#56,#57));
#727=EDGE_LOOP('',(#58,#59,#60,#61));
#728=EDGE_LOOP('',(#62,#63,#64,#65));
#729=EDGE_LOOP('',(#66,#67,#68,#69));
#730=EDGE_LOOP('',(#70,#71,#72,#73));
#731=EDGE_LOOP('',(#74,#75,#76,#77,#78,#79));
#732=EDGE_LOOP('',(#80,#81,#82,#83));
#733=EDGE_LOOP('',(#84,#85,#86,#87));
#734=EDGE_LOOP('',(#88,#89,#90,#91));
#735=EDGE_LOOP('',(#92,#93,#94,#95));
#736=EDGE_LOOP('',(#96,#97,#98,#99));
#737=EDGE_LOOP('',(#100,#101,#102,#103));
#738=EDGE_LOOP('',(#104,#105,#106,#107));
#739=EDGE_LOOP('',(#108,#109,#110,#111));
#740=EDGE_LOOP('',(#112,#113,#114,#115));
#741=EDGE_LOOP('',(#116));
#742=EDGE_LOOP('',(#117));
#743=EDGE_LOOP('',(#118));
#744=EDGE_LOOP('',(#119,#120,#121,#122));
#745=EDGE_LOOP('',(#123,#124,#125,#126));
#746=EDGE_LOOP('',(#127));
#747=EDGE_LOOP('',(#128));
#748=EDGE_LOOP('',(#129));
#749=EDGE_LOOP('',(#130,#131,#132,#133));
#750=EDGE_LOOP('',(#134,#135,#136,#137));
#751=EDGE_LOOP('',(#138,#139,#140,#141));
#752=EDGE_LOOP('',(#142,#143,#144,#145));
#753=EDGE_LOOP('',(#146,#147,#148,#149));
#754=EDGE_LOOP('',(#150,#151,#152,#153));
#755=EDGE_LOOP('',(#154,#155,#156,#157));
#756=EDGE_LOOP('',(#158,#159,#160,#161));
#757=EDGE_LOOP('',(#162,#163,#164,#165));
#758=EDGE_LOOP('',(#166,#167,#168,#169));
#759=EDGE_LOOP('',(#170,#171,#172,#173));
#760=EDGE_LOOP('',(#174,#175,#176,#177));
#761=EDGE_LOOP('',(#178,#179,#180,#181));
#762=EDGE_LOOP('',(#182,#183,#184,#185));
#763=EDGE_LOOP('',(#186,#187,#188,#189));
#764=EDGE_LOOP('',(#190,#191,#192,#193));
#765=EDGE_LOOP('',(#194,#195,#196,#197));
#766=EDGE_LOOP('',(#198,#199,#200,#201));
#767=EDGE_LOOP('',(#202,#203,#204,#205));
#768=EDGE_LOOP('',(#206,#207,#208,#209));
#769=EDGE_LOOP('',(#210,#211,#212,#213));
#770=EDGE_LOOP('',(#214,#215,#216,#217));
#771=EDGE_LOOP('',(#218,#219,#220,#221));
#772=EDGE_LOOP('',(#222,#223,#224,#225));
#773=EDGE_LOOP('',(#226,#227,#228,#229));
#774=EDGE_LOOP('',(#230,#231,#232,#233));
#775=EDGE_LOOP('',(#234,#235,#236,#237));
#776=EDGE_LOOP('',(#238,#239,#240,#241));
#777=EDGE_LOOP('',(#242,#243,#244,#245));
#778=EDGE_LOOP('',(#246,#247,#248,#249));
#779=EDGE_LOOP('',(#250,#251,#252,#253));
#780=EDGE_LOOP('',(#254,#255,#256,#257));
#781=EDGE_LOOP('',(#258,#259,#260,#261));
#782=EDGE_LOOP('',(#262,#263,#264,#265));
#783=EDGE_LOOP('',(#266,#267,#268,#269));
#784=EDGE_LOOP('',(#270));
#785=EDGE_LOOP('',(#271));
#786=EDGE_LOOP('',(#272));
#787=EDGE_LOOP('',(#273));
#788=EDGE_LOOP('',(#274));
#789=EDGE_LOOP('',(#275));
#790=EDGE_LOOP('',(#276));
#791=EDGE_LOOP('',(#277));
#792=EDGE_LOOP('',(#278));
#793=EDGE_LOOP('',(#279));
#794=EDGE_LOOP('',(#280));
#795=EDGE_LOOP('',(#281));
#796=EDGE_LOOP('',(#282));
#797=EDGE_LOOP('',(#283));
#798=EDGE_LOOP('',(#284));
#799=EDGE_LOOP('',(#285));
#800=EDGE_LOOP('',(#286));
#801=EDGE_LOOP('',(#287));
#802=FACE_BOUND('',#722,.T.);
#803=FACE_BOUND('',#723,.T.);
#804=FACE_BOUND('',#724,.T.);
#805=FACE_BOUND('',#725,.T.);
#806=FACE_BOUND('',#726,.T.);
#807=FACE_BOUND('',#727,.T.);
#808=FACE_BOUND('',#728,.T.);
#809=FACE_BOUND('',#729,.T.);
#810=FACE_BOUND('',#730,.T.);
#811=FACE_BOUND('',#731,.T.);
#812=FACE_BOUND('',#732,.T.);
#813=FACE_BOUND('',#733,.T.);
#814=FACE_BOUND('',#734,.T.);
#815=FACE_BOUND('',#735,.T.);
#816=FACE_BOUND('',#736,.T.);
#817=FACE_BOUND('',#737,.T.);
#818=FACE_BOUND('',#738,.T.);
#819=FACE_BOUND('',#739,.T.);
#820=FACE_BOUND('',#740,.T.);
#821=FACE_BOUND('',#741,.T.);
#822=FACE_BOUND('',#742,.T.);
#823=FACE_BOUND('',#743,.T.);
#824=FACE_BOUND('',#744,.T.);
#825=FACE_BOUND('',#745,.T.);
#826=FACE_BOUND('',#746,.T.);
#827=FACE_BOUND('',#747,.T.);
#828=FACE_BOUND('',#748,.T.);
#829=FACE_BOUND('',#749,.T.);
#830=FACE_BOUND('',#750,.T.);
#831=FACE_BOUND('',#751,.T.);
#832=FACE_BOUND('',#752,.T.);
#833=FACE_BOUND('',#753,.T.);
#834=FACE_BOUND('',#754,.T.);
#835=FACE_BOUND('',#755,.T.);
#836=FACE_BOUND('',#756,.T.);
#837=FACE_BOUND('',#757,.T.);
#838=FACE_BOUND('',#758,.T.);
#839=FACE_BOUND('',#759,.T.);
#840=FACE_BOUND('',#760,.T.);
#841=FACE_BOUND('',#761,.T.);
#842=FACE_BOUND('',#762,.T.);
#843=FACE_BOUND('',#763,.T.);
#844=FACE_BOUND('',#764,.T.);
#845=FACE_BOUND('',#765,.T.);
#846=FACE_BOUND('',#766,.T.);
#847=FACE_BOUND('',#767,.T.);
#848=FACE_BOUND('',#768,.T.);
#849=FACE_BOUND('',#769,.T.);
#850=FACE_BOUND('',#770,.T.);
#851=FACE_BOUND('',#771,.T.);
#852=FACE_BOUND('',#772,.T.);
#853=FACE_BOUND('',#773,.T.);
#854=FACE_BOUND('',#774,.T.);
#855=FACE_BOUND('',#775,.T.);
#856=FACE_BOUND('',#776,.T.);
#857=FACE_BOUND('',#777,.T.);
#858=FACE_BOUND('',#778,.T.);
#859=FACE_BOUND('',#779,.T.);
#860=FACE_BOUND('',#780,.T.);
#861=FACE_BOUND('',#781,.T.);
#862=FACE_BOUND('',#782,.T.);
#863=FACE_BOUND('',#783,.T.);
#864=FACE_BOUND('',#784,.T.);
#865=FACE_BOUND('',#785,.T.);
#866=FACE_BOUND('',#786,.T.);
#867=FACE_BOUND('',#787,.T.);
#868=FACE_BOUND('',#788,.T.);
#869=FACE_BOUND('',#789,.T.);
#870=FACE_BOUND('',#790,.T.);
#871=FACE_BOUND('',#791,.T.);
#872=FACE_BOUND('',#792,.T.);
#873=FACE_BOUND('',#793,.T.);
#874=FACE_BOUND('',#794,.T.);
#875=FACE_BOUND('',#795,.T.);
#876=FACE_BOUND('',#796,.T.);
#877=FACE_BOUND('',#797,.T.);
#878=FACE_BOUND('',#798,.T.);
#879=FACE_BOUND('',#799,.T.);
#880=FACE_BOUND('',#800,.T.);
#881=FACE_BOUND('',#801,.T.);
#882=PLANE('',#991);
#883=PLANE('',#994);
#884=PLANE('',#998);
#885=PLANE('',#1002);
#886=PLANE('',#1003);
#887=PLANE('',#1008);
#888=PLANE('',#1009);
#889=PLANE('',#1010);
#890=PLANE('',#1011);
#891=PLANE('',#1012);
#892=PLANE('',#1013);
#893=PLANE('',#1014);
#894=PLANE('',#1015);
#895=PLANE('',#1016);
#896=PLANE('',#1017);
#897=PLANE('',#1018);
#898=PLANE('',#1019);
#899=PLANE('',#1020);
#900=PLANE('',#1021);
#901=PLANE('',#1022);
#902=PLANE('',#1023);
#903=PLANE('',#1024);
#904=PLANE('',#1025);
#905=PLANE('',#1026);
#906=PLANE('',#1027);
#907=PLANE('',#1028);
#908=PLANE('',#1029);
#909=PLANE('',#1030);
#910=PLANE('',#1031);
#911=PLANE('',#1032);
#912=PLANE('',#1033);
#913=PLANE('',#1034);
#914=PLANE('',#1035);
#915=PLANE('',#1036);
#916=PLANE('',#1037);
#917=PLANE('',#1038);
#918=PLANE('',#1039);
#919=PLANE('',#1040);
#920=PLANE('',#1043);
#921=PLANE('',#1046);
#922=PLANE('',#1049);
#923=PLANE('',#1052);
#924=PLANE('',#1055);
#925=PLANE('',#1058);
#926=ADVANCED_FACE('',(#802,#803,#804,#805,#806,#807,#808,#809,#810),#882,
 .F.);
#927=ADVANCED_FACE('',(#811,#812,#813,#814,#815,#816,#817,#818,#819),#883,
 .T.);
#928=ADVANCED_FACE('',(#820),#12,.T.);
#929=ADVANCED_FACE('',(#821,#822,#823,#824),#884,.F.);
#930=ADVANCED_FACE('',(#825),#885,.T.);
#931=ADVANCED_FACE('',(#826,#827,#828,#829),#886,.T.);
#932=ADVANCED_FACE('',(#830),#13,.T.);
#933=ADVANCED_FACE('',(#831),#887,.F.);
#934=ADVANCED_FACE('',(#832),#888,.T.);
#935=ADVANCED_FACE('',(#833),#889,.F.);
#936=ADVANCED_FACE('',(#834),#890,.T.);
#937=ADVANCED_FACE('',(#835),#891,.T.);
#938=ADVANCED_FACE('',(#836),#892,.T.);
#939=ADVANCED_FACE('',(#837),#893,.T.);
#940=ADVANCED_FACE('',(#838),#894,.F.);
#941=ADVANCED_FACE('',(#839),#895,.F.);
#942=ADVANCED_FACE('',(#840),#896,.T.);
#943=ADVANCED_FACE('',(#841),#897,.F.);
#944=ADVANCED_FACE('',(#842),#898,.F.);
#945=ADVANCED_FACE('',(#843),#899,.F.);
#946=ADVANCED_FACE('',(#844),#900,.T.);
#947=ADVANCED_FACE('',(#845),#901,.F.);
#948=ADVANCED_FACE('',(#846),#902,.F.);
#949=ADVANCED_FACE('',(#847),#903,.F.);
#950=ADVANCED_FACE('',(#848),#904,.T.);
#951=ADVANCED_FACE('',(#849),#905,.F.);
#952=ADVANCED_FACE('',(#850),#906,.F.);
#953=ADVANCED_FACE('',(#851),#907,.T.);
#954=ADVANCED_FACE('',(#852),#908,.T.);
#955=ADVANCED_FACE('',(#853),#909,.F.);
#956=ADVANCED_FACE('',(#854),#910,.F.);
#957=ADVANCED_FACE('',(#855),#911,.T.);
#958=ADVANCED_FACE('',(#856),#912,.T.);
#959=ADVANCED_FACE('',(#857),#913,.F.);
#960=ADVANCED_FACE('',(#858),#914,.F.);
#961=ADVANCED_FACE('',(#859),#915,.T.);
#962=ADVANCED_FACE('',(#860),#916,.T.);
#963=ADVANCED_FACE('',(#861),#917,.T.);
#964=ADVANCED_FACE('',(#862),#918,.F.);
#965=ADVANCED_FACE('',(#863),#919,.T.);
#966=ADVANCED_FACE('',(#864,#865),#14,.F.);
#967=ADVANCED_FACE('',(#866),#920,.T.);
#968=ADVANCED_FACE('',(#867,#868),#15,.F.);
#969=ADVANCED_FACE('',(#869),#921,.T.);
#970=ADVANCED_FACE('',(#870,#871),#16,.F.);
#971=ADVANCED_FACE('',(#872),#922,.T.);
#972=ADVANCED_FACE('',(#873,#874),#17,.F.);
#973=ADVANCED_FACE('',(#875),#923,.F.);
#974=ADVANCED_FACE('',(#876,#877),#18,.F.);
#975=ADVANCED_FACE('',(#878),#924,.F.);
#976=ADVANCED_FACE('',(#879,#880),#19,.F.);
#977=ADVANCED_FACE('',(#881),#925,.F.);
#978=CLOSED_SHELL('',(#926,#927,#928,#929,#930,#931,#932,#933,#934,#935,
#936,#937,#938,#939,#940,#941,#942,#943,#944,#945,#946,#947,#948,#949,#950,
#951,#952,#953,#954,#955,#956,#957,#958,#959,#960,#961,#962,#963,#964,#965,
#966,#967,#968,#969,#970,#971,#972,#973,#974,#975,#976,#977));
#979=STYLED_ITEM('',(#980),#987);
#980=PRESENTATION_STYLE_ASSIGNMENT((#981));
#981=SURFACE_STYLE_USAGE(.BOTH.,#982);
#982=SURFACE_SIDE_STYLE('',(#983));
#983=SURFACE_STYLE_FILL_AREA(#984);
#984=FILL_AREA_STYLE('',(#985));
#985=FILL_AREA_STYLE_COLOUR('',#986);
#986=COLOUR_RGB('',0.301960784313725,0.301960784313725,0.301960784313725);
#987=MANIFOLD_SOLID_BREP('Back_Panel',#978);
#988=SHAPE_DEFINITION_REPRESENTATION(#1580,#989);
#989=SHAPE_REPRESENTATION('Back_Panel',(#990),#1575);
#990=AXIS2_PLACEMENT_3D('',#1307,#1059,#1060);
#991=AXIS2_PLACEMENT_3D('',#1308,#1061,#1062);
#992=AXIS2_PLACEMENT_3D('',#1341,#1079,#1080);
#993=AXIS2_PLACEMENT_3D('',#1346,#1082,#1083);
#994=AXIS2_PLACEMENT_3D('',#1385,#1103,#1104);
#995=AXIS2_PLACEMENT_3D('',#1386,#1105,#1106);
#996=AXIS2_PLACEMENT_3D('',#1395,#1110,#1111);
#997=AXIS2_PLACEMENT_3D('',#1462,#1145,#1146);
#998=AXIS2_PLACEMENT_3D('',#1465,#1149,#1150);
#999=AXIS2_PLACEMENT_3D('',#1466,#1151,#1152);
#1000=AXIS2_PLACEMENT_3D('',#1468,#1153,#1154);
#1001=AXIS2_PLACEMENT_3D('',#1470,#1155,#1156);
#1002=AXIS2_PLACEMENT_3D('',#1473,#1158,#1159);
#1003=AXIS2_PLACEMENT_3D('',#1475,#1161,#1162);
#1004=AXIS2_PLACEMENT_3D('',#1476,#1163,#1164);
#1005=AXIS2_PLACEMENT_3D('',#1478,#1165,#1166);
#1006=AXIS2_PLACEMENT_3D('',#1480,#1167,#1168);
#1007=AXIS2_PLACEMENT_3D('',#1483,#1170,#1171);
#1008=AXIS2_PLACEMENT_3D('',#1485,#1173,#1174);
#1009=AXIS2_PLACEMENT_3D('',#1486,#1175,#1176);
#1010=AXIS2_PLACEMENT_3D('',#1489,#1179,#1180);
#1011=AXIS2_PLACEMENT_3D('',#1491,#1182,#1183);
#1012=AXIS2_PLACEMENT_3D('',#1493,#1185,#1186);
#1013=AXIS2_PLACEMENT_3D('',#1494,#1187,#1188);
#1014=AXIS2_PLACEMENT_3D('',#1497,#1191,#1192);
#1015=AXIS2_PLACEMENT_3D('',#1499,#1194,#1195);
#1016=AXIS2_PLACEMENT_3D('',#1501,#1197,#1198);
#1017=AXIS2_PLACEMENT_3D('',#1502,#1199,#1200);
#1018=AXIS2_PLACEMENT_3D('',#1505,#1203,#1204);
#1019=AXIS2_PLACEMENT_3D('',#1507,#1206,#1207);
#1020=AXIS2_PLACEMENT_3D('',#1509,#1209,#1210);
#1021=AXIS2_PLACEMENT_3D('',#1510,#1211,#1212);
#1022=AXIS2_PLACEMENT_3D('',#1513,#1215,#1216);
#1023=AXIS2_PLACEMENT_3D('',#1515,#1218,#1219);
#1024=AXIS2_PLACEMENT_3D('',#1517,#1221,#1222);
#1025=AXIS2_PLACEMENT_3D('',#1518,#1223,#1224);
#1026=AXIS2_PLACEMENT_3D('',#1521,#1227,#1228);
#1027=AXIS2_PLACEMENT_3D('',#1523,#1230,#1231);
#1028=AXIS2_PLACEMENT_3D('',#1525,#1233,#1234);
#1029=AXIS2_PLACEMENT_3D('',#1526,#1235,#1236);
#1030=AXIS2_PLACEMENT_3D('',#1529,#1239,#1240);
#1031=AXIS2_PLACEMENT_3D('',#1531,#1242,#1243);
#1032=AXIS2_PLACEMENT_3D('',#1533,#1245,#1246);
#1033=AXIS2_PLACEMENT_3D('',#1534,#1247,#1248);
#1034=AXIS2_PLACEMENT_3D('',#1537,#1251,#1252);
#1035=AXIS2_PLACEMENT_3D('',#1539,#1254,#1255);
#1036=AXIS2_PLACEMENT_3D('',#1541,#1257,#1258);
#1037=AXIS2_PLACEMENT_3D('',#1542,#1259,#1260);
#1038=AXIS2_PLACEMENT_3D('',#1545,#1263,#1264);
#1039=AXIS2_PLACEMENT_3D('',#1547,#1266,#1267);
#1040=AXIS2_PLACEMENT_3D('',#1549,#1269,#1270);
#1041=AXIS2_PLACEMENT_3D('',#1550,#1271,#1272);
#1042=AXIS2_PLACEMENT_3D('',#1551,#1273,#1274);
#1043=AXIS2_PLACEMENT_3D('',#1553,#1275,#1276);
#1044=AXIS2_PLACEMENT_3D('',#1554,#1277,#1278);
#1045=AXIS2_PLACEMENT_3D('',#1555,#1279,#1280);
#1046=AXIS2_PLACEMENT_3D('',#1557,#1281,#1282);
#1047=AXIS2_PLACEMENT_3D('',#1558,#1283,#1284);
#1048=AXIS2_PLACEMENT_3D('',#1559,#1285,#1286);
#1049=AXIS2_PLACEMENT_3D('',#1561,#1287,#1288);
#1050=AXIS2_PLACEMENT_3D('',#1562,#1289,#1290);
#1051=AXIS2_PLACEMENT_3D('',#1563,#1291,#1292);
#1052=AXIS2_PLACEMENT_3D('',#1565,#1293,#1294);
#1053=AXIS2_PLACEMENT_3D('',#1566,#1295,#1296);
#1054=AXIS2_PLACEMENT_3D('',#1567,#1297,#1298);
#1055=AXIS2_PLACEMENT_3D('',#1569,#1299,#1300);
#1056=AXIS2_PLACEMENT_3D('',#1570,#1301,#1302);
#1057=AXIS2_PLACEMENT_3D('',#1571,#1303,#1304);
#1058=AXIS2_PLACEMENT_3D('',#1573,#1305,#1306);
#1059=DIRECTION('',(0.,0.,1.));
#1060=DIRECTION('',(1.,0.,0.));
#1061=DIRECTION('',(-0.982872186934322,1.49188502448968E-15,-0.184288535050185));
#1062=DIRECTION('',(-1.46633229667473E-15,-1.,-2.74937305626513E-16));
#1063=DIRECTION('',(1.50224247536881E-15,1.,8.34163525914453E-17));
#1064=DIRECTION('',(-0.184288535050185,-3.45126646034193E-31,0.982872186934322));
#1065=DIRECTION('',(1.45915026093592E-15,1.,3.13241496233526E-16));
#1066=DIRECTION('',(-0.184288535050185,-2.46519032881566E-31,0.982872186934322));
#1067=DIRECTION('',(0.184288535050185,-7.39557098644699E-31,-0.982872186934322));
#1068=DIRECTION('',(1.50224247536881E-15,1.,8.34163525914453E-17));
#1069=DIRECTION('',(0.184288535050185,-6.40949485492072E-31,-0.982872186934322));
#1070=DIRECTION('',(1.4519682251971E-15,1.,3.5154568684054E-16));
#1071=DIRECTION('',(1.45344146329737E-15,1.,3.43688416972434E-16));
#1072=DIRECTION('',(-0.184288535050185,6.40949485492072E-31,0.982872186934322));
#1073=DIRECTION('',(1.49855938011814E-15,1.,1.0305952726171E-16));
#1074=DIRECTION('',(0.184288535050185,6.40949485492072E-31,-0.982872186934322));
#1075=DIRECTION('',(0.184288535050185,-5.42341872339446E-31,-0.982872186934322));
#1076=DIRECTION('',(1.49855938011814E-15,1.,1.0305952726171E-16));
#1077=DIRECTION('',(-0.184288535050185,6.40949485492072E-31,0.982872186934322));
#1078=DIRECTION('',(1.45344146329737E-15,1.,3.43688416972434E-16));
#1079=DIRECTION('',(-0.982872186934322,1.49188502448968E-15,-0.184288535050185));
#1080=DIRECTION('',(-0.184288535050185,0.,0.982872186934322));
#1081=DIRECTION('',(0.,1.,0.));
#1082=DIRECTION('',(-0.982872186934322,0.,-0.184288535050185));
#1083=DIRECTION('',(-0.184288535050185,0.,0.982872186934322));
#1084=DIRECTION('',(-0.184288535050185,-4.41745909145268E-15,0.982872186934322));
#1085=DIRECTION('',(-1.46884600918332E-15,-1.,-2.61530838914058E-16));
#1086=DIRECTION('',(-0.184288535050185,-4.41745909145269E-15,0.982872186934322));
#1087=DIRECTION('',(1.50224247536881E-15,1.,8.34163525914453E-17));
#1088=DIRECTION('',(0.184288535050185,2.9582283945788E-31,-0.982872186934322));
#1089=DIRECTION('',(1.45915026093592E-15,1.,3.13241496233526E-16));
#1090=DIRECTION('',(0.184288535050185,4.43734259186819E-31,-0.982872186934322));
#1091=DIRECTION('',(1.49855938011814E-15,1.,1.0305952726171E-16));
#1092=DIRECTION('',(-0.184288535050185,6.40949485492072E-31,0.982872186934322));
#1093=DIRECTION('',(1.45344146329737E-15,1.,3.43688416972434E-16));
#1094=DIRECTION('',(0.184288535050185,4.43734259186819E-31,-0.982872186934322));
#1095=DIRECTION('',(1.4519682251971E-15,1.,3.5154568684054E-16));
#1096=DIRECTION('',(-0.184288535050185,6.40949485492072E-31,0.982872186934322));
#1097=DIRECTION('',(1.50224247536881E-15,1.,8.34163525914453E-17));
#1098=DIRECTION('',(-0.184288535050185,5.91645678915759E-31,0.982872186934322));
#1099=DIRECTION('',(1.49855938011814E-15,1.,1.0305952726171E-16));
#1100=DIRECTION('',(0.184288535050185,3.45126646034193E-31,-0.982872186934322));
#1101=DIRECTION('',(1.45344146329737E-15,1.,3.43688416972434E-16));
#1102=DIRECTION('',(-0.184288535050185,6.40949485492072E-31,0.982872186934322));
#1103=DIRECTION('',(-0.982872186934322,1.49188502448968E-15,-0.184288535050185));
#1104=DIRECTION('',(-1.46633229667473E-15,-1.,-2.74937305626513E-16));
#1105=DIRECTION('',(-0.982872186934322,1.49188502448968E-15,-0.184288535050185));
#1106=DIRECTION('',(-0.184288535050185,0.,0.982872186934322));
#1107=DIRECTION('',(-0.184288535050185,-4.41745909145269E-15,0.982872186934322));
#1108=DIRECTION('',(-1.46884600918332E-15,-1.,-2.61530838914058E-16));
#1109=DIRECTION('',(-0.184288535050185,-4.41745909145268E-15,0.982872186934322));
#1110=DIRECTION('',(-0.982872186934322,0.,-0.184288535050185));
#1111=DIRECTION('',(-0.184288535050185,0.,0.982872186934322));
#1112=DIRECTION('',(0.,1.,0.));
#1113=DIRECTION('',(1.49855938011814E-15,1.,1.0305952726171E-16));
#1114=DIRECTION('',(0.184288535050185,-5.42341872339446E-31,-0.982872186934322));
#1115=DIRECTION('',(1.45344146329737E-15,1.,3.43688416972434E-16));
#1116=DIRECTION('',(-0.184288535050185,6.40949485492072E-31,0.982872186934322));
#1117=DIRECTION('',(0.184288535050185,2.9582283945788E-31,-0.982872186934322));
#1118=DIRECTION('',(1.50224247536881E-15,1.,8.34163525914453E-17));
#1119=DIRECTION('',(0.184288535050185,4.43734259186819E-31,-0.982872186934322));
#1120=DIRECTION('',(1.45915026093592E-15,1.,3.13241496233526E-16));
#1121=DIRECTION('',(-0.184288535050185,6.40949485492072E-31,0.982872186934322));
#1122=DIRECTION('',(1.45344146329737E-15,1.,3.43688416972434E-16));
#1123=DIRECTION('',(0.184288535050185,6.40949485492072E-31,-0.982872186934322));
#1124=DIRECTION('',(1.49855938011814E-15,1.,1.0305952726171E-16));
#1125=DIRECTION('',(-0.184288535050185,6.40949485492072E-31,0.982872186934322));
#1126=DIRECTION('',(1.49855938011814E-15,1.,1.0305952726171E-16));
#1127=DIRECTION('',(0.184288535050185,4.43734259186819E-31,-0.982872186934322));
#1128=DIRECTION('',(1.45344146329737E-15,1.,3.43688416972434E-16));
#1129=DIRECTION('',(1.50224247536881E-15,1.,8.34163525914453E-17));
#1130=DIRECTION('',(0.184288535050185,-7.39557098644699E-31,-0.982872186934322));
#1131=DIRECTION('',(1.4519682251971E-15,1.,3.5154568684054E-16));
#1132=DIRECTION('',(0.184288535050185,-6.40949485492072E-31,-0.982872186934322));
#1133=DIRECTION('',(-0.184288535050185,6.40949485492072E-31,0.982872186934322));
#1134=DIRECTION('',(1.4519682251971E-15,1.,3.5154568684054E-16));
#1135=DIRECTION('',(-0.184288535050185,5.91645678915759E-31,0.982872186934322));
#1136=DIRECTION('',(1.50224247536881E-15,1.,8.34163525914453E-17));
#1137=DIRECTION('',(-0.184288535050185,-3.45126646034193E-31,0.982872186934322));
#1138=DIRECTION('',(1.50224247536881E-15,1.,8.34163525914453E-17));
#1139=DIRECTION('',(-0.184288535050185,-2.46519032881566E-31,0.982872186934322));
#1140=DIRECTION('',(1.45915026093592E-15,1.,3.13241496233526E-16));
#1141=DIRECTION('',(0.184288535050185,3.45126646034193E-31,-0.982872186934322));
#1142=DIRECTION('',(1.49855938011814E-15,1.,1.0305952726171E-16));
#1143=DIRECTION('',(-0.184288535050185,6.40949485492072E-31,0.982872186934322));
#1144=DIRECTION('',(1.45344146329737E-15,1.,3.43688416972434E-16));
#1145=DIRECTION('',(-0.982872186934322,1.49188502448968E-15,-0.184288535050185));
#1146=DIRECTION('',(-0.184288535050185,0.,0.982872186934322));
#1147=DIRECTION('',(-0.982872186934322,1.49188502448968E-15,-0.184288535050185));
#1148=DIRECTION('',(-0.982872186934322,1.49188502448968E-15,-0.184288535050185));
#1149=DIRECTION('',(-6.52245232066798E-16,-1.,-4.61673498353551E-15));
#1150=DIRECTION('',(0.,4.61673498353551E-15,-1.));
#1151=DIRECTION('',(-6.52245232066798E-16,-1.,-4.61673498353551E-15));
#1152=DIRECTION('',(0.,4.61673498353551E-15,-1.));
#1153=DIRECTION('',(-6.52245232066798E-16,-1.,-4.61673498353551E-15));
#1154=DIRECTION('',(0.,4.61673498353551E-15,-1.));
#1155=DIRECTION('',(-6.52245232066798E-16,-1.,-4.61673498353551E-15));
#1156=DIRECTION('',(0.,4.61673498353551E-15,-1.));
#1157=DIRECTION('',(-0.982872186934322,1.49188502448968E-15,-0.184288535050185));
#1158=DIRECTION('',(0.184288535050185,-1.36400916524769E-17,-0.982872186934322));
#1159=DIRECTION('',(-0.982872186934322,0.,-0.184288535050185));
#1160=DIRECTION('',(-0.982872186934322,1.49188502448968E-15,-0.184288535050185));
#1161=DIRECTION('',(-6.52245232066798E-16,-1.,-4.61673498353551E-15));
#1162=DIRECTION('',(0.,4.61673498353551E-15,-1.));
#1163=DIRECTION('',(-6.52245232066798E-16,-1.,-4.61673498353551E-15));
#1164=DIRECTION('',(0.,4.61673498353551E-15,-1.));
#1165=DIRECTION('',(-6.52245232066798E-16,-1.,-4.61673498353551E-15));
#1166=DIRECTION('',(0.,4.61673498353551E-15,-1.));
#1167=DIRECTION('',(-6.52245232066798E-16,-1.,-4.61673498353551E-15));
#1168=DIRECTION('',(0.,4.61673498353551E-15,-1.));
#1169=DIRECTION('',(-0.982872186934322,1.49188502448968E-15,-0.184288535050185));
#1170=DIRECTION('',(-0.982872186934322,1.49188502448968E-15,-0.184288535050185));
#1171=DIRECTION('',(-0.184288535050185,0.,0.982872186934322));
#1172=DIRECTION('',(-0.982872186934322,1.49188502448968E-15,-0.184288535050185));
#1173=DIRECTION('',(0.184288535050185,0.,-0.982872186934322));
#1174=DIRECTION('',(-0.982872186934322,0.,-0.184288535050185));
#1175=DIRECTION('',(1.46633229667473E-15,1.,2.74937305626512E-16));
#1176=DIRECTION('',(-1.,1.46633229667473E-15,0.));
#1177=DIRECTION('',(-0.982872186934322,1.49188502448968E-15,-0.184288535050185));
#1178=DIRECTION('',(-0.982872186934322,1.49188502448968E-15,-0.184288535050185));
#1179=DIRECTION('',(-0.184288535050185,1.7487296990355E-16,0.982872186934322));
#1180=DIRECTION('',(0.982872186934322,0.,0.184288535050185));
#1181=DIRECTION('',(-0.982872186934322,1.49188502448968E-15,-0.184288535050185));
#1182=DIRECTION('',(-1.46633229667473E-15,-1.,-2.74937305626512E-16));
#1183=DIRECTION('',(1.,-1.46633229667473E-15,0.));
#1184=DIRECTION('',(-0.982872186934322,1.49188502448968E-15,-0.184288535050185));
#1185=DIRECTION('',(-0.184288535050185,-6.99491879614206E-17,0.982872186934322));
#1186=DIRECTION('',(0.982872186934322,0.,0.184288535050185));
#1187=DIRECTION('',(-0.184288535050185,1.94858452178243E-16,0.982872186934322));
#1188=DIRECTION('',(0.982872186934322,0.,0.184288535050185));
#1189=DIRECTION('',(-0.982872186934322,1.49188502448968E-15,-0.184288535050185));
#1190=DIRECTION('',(-0.982872186934322,1.49188502448968E-15,-0.184288535050185));
#1191=DIRECTION('',(1.46633229667473E-15,1.,2.74937305626513E-16));
#1192=DIRECTION('',(-1.,1.46633229667473E-15,0.));
#1193=DIRECTION('',(-0.982872186934322,1.49188502448968E-15,-0.184288535050185));
#1194=DIRECTION('',(-0.184288535050185,-3.8971690435649E-17,0.982872186934322));
#1195=DIRECTION('',(0.982872186934322,0.,0.184288535050185));
#1196=DIRECTION('',(-0.982872186934322,1.49188502448968E-15,-0.184288535050185));
#1197=DIRECTION('',(1.46633229667473E-15,1.,2.74937305626513E-16));
#1198=DIRECTION('',(-1.,1.46633229667473E-15,0.));
#1199=DIRECTION('',(-0.184288535050185,-6.99491879614206E-17,0.982872186934322));
#1200=DIRECTION('',(0.982872186934322,0.,0.184288535050185));
#1201=DIRECTION('',(-0.982872186934322,1.49188502448968E-15,-0.184288535050185));
#1202=DIRECTION('',(-0.982872186934322,1.49188502448968E-15,-0.184288535050185));
#1203=DIRECTION('',(-1.46633229667473E-15,-1.,-2.74937305626512E-16));
#1204=DIRECTION('',(1.,-1.46633229667473E-15,0.));
#1205=DIRECTION('',(-0.982872186934322,1.49188502448968E-15,-0.184288535050185));
#1206=DIRECTION('',(-0.184288535050185,1.7487296990355E-16,0.982872186934322));
#1207=DIRECTION('',(0.982872186934322,0.,0.184288535050185));
#1208=DIRECTION('',(-0.982872186934322,1.49188502448968E-15,-0.184288535050185));
#1209=DIRECTION('',(1.46633229667473E-15,1.,2.74937305626513E-16));
#1210=DIRECTION('',(-1.,1.46633229667473E-15,0.));
#1211=DIRECTION('',(-0.184288535050185,1.7487296990355E-16,0.982872186934322));
#1212=DIRECTION('',(0.982872186934322,0.,0.184288535050185));
#1213=DIRECTION('',(-0.982872186934322,1.49188502448968E-15,-0.184288535050185));
#1214=DIRECTION('',(-0.982872186934322,1.49188502448968E-15,-0.184288535050185));
#1215=DIRECTION('',(-1.46633229667473E-15,-1.,-2.74937305626512E-16));
#1216=DIRECTION('',(1.,-1.46633229667473E-15,0.));
#1217=DIRECTION('',(-0.982872186934322,1.49188502448968E-15,-0.184288535050185));
#1218=DIRECTION('',(-0.184288535050185,-6.99491879614206E-17,0.982872186934322));
#1219=DIRECTION('',(0.982872186934322,0.,0.184288535050185));
#1220=DIRECTION('',(-0.982872186934322,1.49188502448968E-15,-0.184288535050185));
#1221=DIRECTION('',(1.46633229667473E-15,1.,2.74937305626513E-16));
#1222=DIRECTION('',(-1.,1.46633229667473E-15,0.));
#1223=DIRECTION('',(1.46633229667473E-15,1.,2.74937305626512E-16));
#1224=DIRECTION('',(-1.,1.46633229667473E-15,0.));
#1225=DIRECTION('',(-0.982872186934322,1.49188502448968E-15,-0.184288535050185));
#1226=DIRECTION('',(-0.982872186934322,1.49188502448968E-15,-0.184288535050185));
#1227=DIRECTION('',(-0.184288535050185,1.94858452178243E-16,0.982872186934322));
#1228=DIRECTION('',(0.982872186934322,0.,0.184288535050185));
#1229=DIRECTION('',(-0.982872186934322,1.49188502448968E-15,-0.184288535050185));
#1230=DIRECTION('',(1.46633229667473E-15,1.,2.74937305626512E-16));
#1231=DIRECTION('',(-1.,1.46633229667473E-15,0.));
#1232=DIRECTION('',(-0.982872186934322,1.49188502448968E-15,-0.184288535050185));
#1233=DIRECTION('',(-0.184288535050185,-7.79433808712977E-17,0.982872186934322));
#1234=DIRECTION('',(0.982872186934322,0.,0.184288535050185));
#1235=DIRECTION('',(-0.184288535050185,-7.79433808712977E-17,0.982872186934322));
#1236=DIRECTION('',(0.982872186934322,0.,0.184288535050185));
#1237=DIRECTION('',(-0.982872186934322,1.49188502448968E-15,-0.184288535050185));
#1238=DIRECTION('',(-0.982872186934322,1.49188502448968E-15,-0.184288535050185));
#1239=DIRECTION('',(-1.46633229667473E-15,-1.,-2.74937305626512E-16));
#1240=DIRECTION('',(1.,-1.46633229667473E-15,0.));
#1241=DIRECTION('',(-0.982872186934322,1.49188502448968E-15,-0.184288535050185));
#1242=DIRECTION('',(-0.184288535050185,1.94858452178243E-16,0.982872186934322));
#1243=DIRECTION('',(0.982872186934322,0.,0.184288535050185));
#1244=DIRECTION('',(-0.982872186934322,1.49188502448968E-15,-0.184288535050185));
#1245=DIRECTION('',(-1.46633229667473E-15,-1.,-2.74937305626512E-16));
#1246=DIRECTION('',(1.,-1.46633229667473E-15,0.));
#1247=DIRECTION('',(-0.184288535050185,1.94858452178243E-16,0.982872186934322));
#1248=DIRECTION('',(0.982872186934322,0.,0.184288535050185));
#1249=DIRECTION('',(-0.982872186934322,1.49188502448968E-15,-0.184288535050185));
#1250=DIRECTION('',(-0.982872186934322,1.49188502448968E-15,-0.184288535050185));
#1251=DIRECTION('',(-1.46633229667473E-15,-1.,-2.74937305626513E-16));
#1252=DIRECTION('',(1.,-1.46633229667473E-15,0.));
#1253=DIRECTION('',(-0.982872186934322,1.49188502448968E-15,-0.184288535050185));
#1254=DIRECTION('',(-0.184288535050185,-3.8971690435649E-17,0.982872186934322));
#1255=DIRECTION('',(0.982872186934322,0.,0.184288535050185));
#1256=DIRECTION('',(-0.982872186934322,1.49188502448968E-15,-0.184288535050185));
#1257=DIRECTION('',(-1.46633229667473E-15,-1.,-2.74937305626513E-16));
#1258=DIRECTION('',(1.,-1.46633229667473E-15,0.));
#1259=DIRECTION('',(-0.184288535050185,1.7487296990355E-16,0.982872186934322));
#1260=DIRECTION('',(0.982872186934322,0.,0.184288535050185));
#1261=DIRECTION('',(-0.982872186934322,1.49188502448968E-15,-0.184288535050185));
#1262=DIRECTION('',(-0.982872186934322,1.49188502448968E-15,-0.184288535050185));
#1263=DIRECTION('',(1.46633229667473E-15,1.,2.74937305626513E-16));
#1264=DIRECTION('',(-1.,1.46633229667473E-15,0.));
#1265=DIRECTION('',(-0.982872186934322,1.49188502448968E-15,-0.184288535050185));
#1266=DIRECTION('',(-0.184288535050185,-6.99491879614206E-17,0.982872186934322));
#1267=DIRECTION('',(0.982872186934322,0.,0.184288535050185));
#1268=DIRECTION('',(-0.982872186934322,1.49188502448968E-15,-0.184288535050185));
#1269=DIRECTION('',(-1.46633229667473E-15,-1.,-2.74937305626512E-16));
#1270=DIRECTION('',(1.,-1.46633229667473E-15,0.));
#1271=DIRECTION('',(0.,-1.,0.));
#1272=DIRECTION('',(0.,0.,-1.));
#1273=DIRECTION('',(0.,-1.,0.));
#1274=DIRECTION('',(0.,0.,-1.));
#1275=DIRECTION('',(0.,-1.,0.));
#1276=DIRECTION('',(1.,0.,0.));
#1277=DIRECTION('',(0.,-1.,0.));
#1278=DIRECTION('',(0.,0.,-1.));
#1279=DIRECTION('',(0.,-1.,0.));
#1280=DIRECTION('',(0.,0.,-1.));
#1281=DIRECTION('',(0.,-1.,0.));
#1282=DIRECTION('',(1.,0.,0.));
#1283=DIRECTION('',(0.,-1.,0.));
#1284=DIRECTION('',(0.,0.,-1.));
#1285=DIRECTION('',(0.,-1.,0.));
#1286=DIRECTION('',(0.,0.,-1.));
#1287=DIRECTION('',(0.,-1.,0.));
#1288=DIRECTION('',(1.,0.,0.));
#1289=DIRECTION('',(0.,1.,0.));
#1290=DIRECTION('',(0.,0.,1.));
#1291=DIRECTION('',(0.,-1.,0.));
#1292=DIRECTION('',(0.,0.,-1.));
#1293=DIRECTION('',(0.,-1.,0.));
#1294=DIRECTION('',(1.,0.,0.));
#1295=DIRECTION('',(0.,1.,0.));
#1296=DIRECTION('',(0.,0.,1.));
#1297=DIRECTION('',(0.,-1.,0.));
#1298=DIRECTION('',(0.,0.,-1.));
#1299=DIRECTION('',(0.,-1.,0.));
#1300=DIRECTION('',(1.,0.,0.));
#1301=DIRECTION('',(0.,1.,0.));
#1302=DIRECTION('',(0.,0.,1.));
#1303=DIRECTION('',(0.,-1.,0.));
#1304=DIRECTION('',(0.,0.,-1.));
#1305=DIRECTION('',(0.,-1.,0.));
#1306=DIRECTION('',(1.,0.,0.));
#1307=CARTESIAN_POINT('',(0.,0.,0.));
#1308=CARTESIAN_POINT('',(-15.2502878829258,-9.25,-15.8359330090808));
#1309=CARTESIAN_POINT('',(-14.469371530472,-9.25,-20.000820222168));
#1310=CARTESIAN_POINT('',(-14.469371530472,-8.75,-20.000820222168));
#1311=CARTESIAN_POINT('',(-14.469371530472,-4.375,-20.000820222168));
#1312=CARTESIAN_POINT('',(-15.2502878829258,-8.75,-15.8359330090808));
#1313=CARTESIAN_POINT('',(-15.0797547925292,-8.75,-16.7454428245296));
#1314=CARTESIAN_POINT('',(-15.0797547925292,-9.25,-16.7454428245296));
#1315=CARTESIAN_POINT('',(-15.0797547925292,-4.375,-16.7454428245296));
#1316=CARTESIAN_POINT('',(-15.2502878829258,-4.375,-15.8359330090808));
#1317=CARTESIAN_POINT('',(-15.2502878829258,-14.125,-15.8359330090809));
#1318=CARTESIAN_POINT('',(-15.8744265896367,-14.125,-12.5071932399567));
#1319=CARTESIAN_POINT('',(-15.2640433275795,-14.125,-15.7625706375952));
#1320=CARTESIAN_POINT('',(-15.8744265896367,-9.25,-12.5071932399567));
#1321=CARTESIAN_POINT('',(-15.8744265896367,-9.75,-12.5071932399567));
#1322=CARTESIAN_POINT('',(-15.2502878829258,-9.75,-15.8359330090808));
#1323=CARTESIAN_POINT('',(-15.2640433275795,-9.75,-15.7625706375952));
#1324=CARTESIAN_POINT('',(-15.2640433275794,-9.25,-15.7625706375952));
#1325=CARTESIAN_POINT('',(-15.2640433275794,-9.25,-15.7625706375952));
#1326=CARTESIAN_POINT('',(-15.2640433275795,-20.,-15.7625706375952));
#1327=CARTESIAN_POINT('',(-15.2640433275795,-15.125,-15.7625706375952));
#1328=CARTESIAN_POINT('',(-15.2502878829258,-20.,-15.8359330090809));
#1329=CARTESIAN_POINT('',(-15.8744265896367,-20.,-12.5071932399567));
#1330=CARTESIAN_POINT('',(-15.8744265896367,-9.25,-12.5071932399567));
#1331=CARTESIAN_POINT('',(-15.8744265896367,-15.125,-12.5071932399567));
#1332=CARTESIAN_POINT('',(-15.2502878829258,-15.125,-15.8359330090809));
#1333=CARTESIAN_POINT('',(-15.2502878829258,-3.375,-15.8359330090808));
#1334=CARTESIAN_POINT('',(-15.8744265896366,-3.375,-12.5071932399567));
#1335=CARTESIAN_POINT('',(-15.2640433275794,-3.375,-15.7625706375952));
#1336=CARTESIAN_POINT('',(-15.8744265896367,-9.25,-12.5071932399567));
#1337=CARTESIAN_POINT('',(-15.8744265896366,1.50000000000004,-12.5071932399567));
#1338=CARTESIAN_POINT('',(-15.2502878829258,1.50000000000004,-15.8359330090808));
#1339=CARTESIAN_POINT('',(-15.2640433275794,1.50000000000004,-15.7625706375952));
#1340=CARTESIAN_POINT('',(-15.2640433275794,-9.25,-15.7625706375952));
#1341=CARTESIAN_POINT('',(-15.8283544558741,1.25,-12.7529112866903));
#1342=CARTESIAN_POINT('',(-15.8283544558741,3.25,-12.7529112866903));
#1343=CARTESIAN_POINT('',(-16.1969315259744,1.25,-10.7871669128217));
#1344=CARTESIAN_POINT('',(-16.1969315259744,-21.75,-10.7871669128217));
#1345=CARTESIAN_POINT('',(-16.1969315259744,-19.75,-10.7871669128217));
#1346=CARTESIAN_POINT('',(-15.8283544558741,-19.75,-12.7529112866903));
#1347=CARTESIAN_POINT('',(-15.8283544558741,-21.75,-12.7529112866903));
#1348=CARTESIAN_POINT('',(-13.7969824273744,-21.75,-23.5868954386888));
#1349=CARTESIAN_POINT('',(-14.2575721061147,-21.75,-21.1304171520737));
#1350=CARTESIAN_POINT('',(-14.2575721061147,-9.25,-21.1304171520737));
#1351=CARTESIAN_POINT('',(-14.2575721061147,3.25000000000005,-21.1304171520737));
#1352=CARTESIAN_POINT('',(-13.7969824273744,3.25000000000006,-23.5868954386887));
#1353=CARTESIAN_POINT('',(-14.469371530472,-9.25,-20.000820222168));
#1354=CARTESIAN_POINT('',(-14.469371530472,-14.125,-20.000820222168));
#1355=CARTESIAN_POINT('',(-14.469371530472,-9.75,-20.000820222168));
#1356=CARTESIAN_POINT('',(-15.2502878829258,-14.125,-15.8359330090809));
#1357=CARTESIAN_POINT('',(-15.0797547925292,-14.125,-16.7454428245296));
#1358=CARTESIAN_POINT('',(-15.0797547925292,-9.25,-16.7454428245296));
#1359=CARTESIAN_POINT('',(-15.0797547925292,-9.75,-16.7454428245296));
#1360=CARTESIAN_POINT('',(-15.2502878829258,-9.75,-15.8359330090808));
#1361=CARTESIAN_POINT('',(-14.469371530472,-9.25,-20.000820222168));
#1362=CARTESIAN_POINT('',(-14.469371530472,-20.,-20.000820222168));
#1363=CARTESIAN_POINT('',(-14.469371530472,-15.125,-20.000820222168));
#1364=CARTESIAN_POINT('',(-15.2502878829258,-20.,-15.8359330090809));
#1365=CARTESIAN_POINT('',(-15.0797547925292,-20.,-16.7454428245296));
#1366=CARTESIAN_POINT('',(-15.0797547925292,-9.25,-16.7454428245296));
#1367=CARTESIAN_POINT('',(-15.0797547925292,-15.125,-16.7454428245296));
#1368=CARTESIAN_POINT('',(-15.2502878829258,-15.125,-15.8359330090809));
#1369=CARTESIAN_POINT('',(-15.2640433275794,-9.25,-15.7625706375952));
#1370=CARTESIAN_POINT('',(-15.2640433275794,-8.75,-15.7625706375952));
#1371=CARTESIAN_POINT('',(-15.2640433275794,-4.375,-15.7625706375952));
#1372=CARTESIAN_POINT('',(-15.2502878829258,-8.75,-15.8359330090808));
#1373=CARTESIAN_POINT('',(-15.8744265896367,-8.75,-12.5071932399567));
#1374=CARTESIAN_POINT('',(-15.8744265896367,-9.25,-12.5071932399567));
#1375=CARTESIAN_POINT('',(-15.8744265896366,-4.375,-12.5071932399567));
#1376=CARTESIAN_POINT('',(-15.2502878829258,-4.375,-15.8359330090808));
#1377=CARTESIAN_POINT('',(-14.469371530472,-9.25,-20.000820222168));
#1378=CARTESIAN_POINT('',(-14.469371530472,-3.375,-20.000820222168));
#1379=CARTESIAN_POINT('',(-14.469371530472,1.50000000000004,-20.000820222168));
#1380=CARTESIAN_POINT('',(-15.2502878829258,-3.375,-15.8359330090808));
#1381=CARTESIAN_POINT('',(-15.0797547925292,-3.375,-16.7454428245296));
#1382=CARTESIAN_POINT('',(-15.0797547925292,-9.25,-16.7454428245296));
#1383=CARTESIAN_POINT('',(-15.0797547925292,1.50000000000004,-16.7454428245296));
#1384=CARTESIAN_POINT('',(-15.2502878829258,1.50000000000004,-15.8359330090808));
#1385=CARTESIAN_POINT('',(-15.9874420231266,-9.25,-15.9741494103685));
#1386=CARTESIAN_POINT('',(-16.5655085960748,1.25,-12.8911276879779));
#1387=CARTESIAN_POINT('',(-16.5655085960748,3.25,-12.8911276879779));
#1388=CARTESIAN_POINT('',(-16.9340856661752,1.25,-10.9253833141093));
#1389=CARTESIAN_POINT('',(-14.5341365675751,3.25000000000006,-23.7251118399763));
#1390=CARTESIAN_POINT('',(-14.9947262463154,3.25000000000005,-21.2686335533612));
#1391=CARTESIAN_POINT('',(-14.9947262463155,-9.25,-21.2686335533613));
#1392=CARTESIAN_POINT('',(-14.9947262463154,-21.75,-21.2686335533613));
#1393=CARTESIAN_POINT('',(-14.5341365675751,-21.75,-23.7251118399764));
#1394=CARTESIAN_POINT('',(-16.5655085960748,-21.75,-12.8911276879779));
#1395=CARTESIAN_POINT('',(-16.5655085960748,-19.75,-12.8911276879779));
#1396=CARTESIAN_POINT('',(-16.9340856661752,-19.75,-10.9253833141093));
#1397=CARTESIAN_POINT('',(-16.9340856661752,-21.75,-10.9253833141093));
#1398=CARTESIAN_POINT('',(-16.6115807298374,-9.25,-12.6454096412444));
#1399=CARTESIAN_POINT('',(-16.6115807298373,-3.375,-12.6454096412444));
#1400=CARTESIAN_POINT('',(-16.6115807298373,1.50000000000004,-12.6454096412444));
#1401=CARTESIAN_POINT('',(-15.9874420231266,-3.375,-15.9741494103685));
#1402=CARTESIAN_POINT('',(-16.0011974677801,-3.375,-15.9007870388829));
#1403=CARTESIAN_POINT('',(-16.0011974677801,-9.25,-15.9007870388829));
#1404=CARTESIAN_POINT('',(-16.0011974677801,1.50000000000004,-15.9007870388829));
#1405=CARTESIAN_POINT('',(-15.9874420231266,1.50000000000004,-15.9741494103685));
#1406=CARTESIAN_POINT('',(-15.9874420231266,-14.125,-15.9741494103685));
#1407=CARTESIAN_POINT('',(-15.81690893273,-14.125,-16.8836592258171));
#1408=CARTESIAN_POINT('',(-15.2065256706728,-14.125,-20.1390366234556));
#1409=CARTESIAN_POINT('',(-15.2065256706728,-9.25,-20.1390366234556));
#1410=CARTESIAN_POINT('',(-15.2065256706728,-9.75,-20.1390366234556));
#1411=CARTESIAN_POINT('',(-15.9874420231266,-9.75,-15.9741494103685));
#1412=CARTESIAN_POINT('',(-15.8169089327299,-9.75,-16.8836592258171));
#1413=CARTESIAN_POINT('',(-15.8169089327299,-9.25,-16.8836592258171));
#1414=CARTESIAN_POINT('',(-15.9874420231266,-20.,-15.9741494103685));
#1415=CARTESIAN_POINT('',(-16.0011974677802,-20.,-15.9007870388829));
#1416=CARTESIAN_POINT('',(-16.6115807298374,-20.,-12.6454096412444));
#1417=CARTESIAN_POINT('',(-16.0011974677801,-9.25,-15.9007870388829));
#1418=CARTESIAN_POINT('',(-16.0011974677801,-15.125,-15.9007870388829));
#1419=CARTESIAN_POINT('',(-15.9874420231266,-15.125,-15.9741494103685));
#1420=CARTESIAN_POINT('',(-16.6115807298374,-15.125,-12.6454096412444));
#1421=CARTESIAN_POINT('',(-16.6115807298374,-9.25,-12.6454096412444));
#1422=CARTESIAN_POINT('',(-15.9874420231266,-20.,-15.9741494103685));
#1423=CARTESIAN_POINT('',(-15.2065256706728,-20.,-20.1390366234556));
#1424=CARTESIAN_POINT('',(-15.81690893273,-20.,-16.8836592258171));
#1425=CARTESIAN_POINT('',(-15.2065256706728,-9.25,-20.1390366234556));
#1426=CARTESIAN_POINT('',(-15.2065256706728,-15.125,-20.1390366234556));
#1427=CARTESIAN_POINT('',(-15.9874420231266,-15.125,-15.9741494103685));
#1428=CARTESIAN_POINT('',(-15.81690893273,-15.125,-16.8836592258171));
#1429=CARTESIAN_POINT('',(-15.8169089327299,-9.25,-16.8836592258171));
#1430=CARTESIAN_POINT('',(-16.6115807298374,-9.25,-12.6454096412444));
#1431=CARTESIAN_POINT('',(-16.6115807298374,-14.125,-12.6454096412444));
#1432=CARTESIAN_POINT('',(-16.6115807298373,-9.75,-12.6454096412444));
#1433=CARTESIAN_POINT('',(-15.9874420231266,-14.125,-15.9741494103685));
#1434=CARTESIAN_POINT('',(-16.0011974677801,-14.125,-15.9007870388829));
#1435=CARTESIAN_POINT('',(-16.0011974677801,-9.25,-15.9007870388829));
#1436=CARTESIAN_POINT('',(-16.0011974677801,-9.75,-15.9007870388829));
#1437=CARTESIAN_POINT('',(-15.9874420231266,-9.75,-15.9741494103685));
#1438=CARTESIAN_POINT('',(-15.9874420231266,-8.75,-15.9741494103685));
#1439=CARTESIAN_POINT('',(-16.0011974677801,-8.75,-15.9007870388829));
#1440=CARTESIAN_POINT('',(-16.6115807298373,-8.75,-12.6454096412444));
#1441=CARTESIAN_POINT('',(-16.0011974677801,-9.25,-15.9007870388829));
#1442=CARTESIAN_POINT('',(-16.0011974677801,-4.375,-15.9007870388829));
#1443=CARTESIAN_POINT('',(-15.9874420231266,-4.375,-15.9741494103685));
#1444=CARTESIAN_POINT('',(-16.6115807298373,-4.375,-12.6454096412444));
#1445=CARTESIAN_POINT('',(-16.6115807298374,-9.25,-12.6454096412444));
#1446=CARTESIAN_POINT('',(-15.9874420231266,-8.75,-15.9741494103685));
#1447=CARTESIAN_POINT('',(-15.2065256706728,-8.75,-20.1390366234556));
#1448=CARTESIAN_POINT('',(-15.8169089327299,-8.75,-16.8836592258171));
#1449=CARTESIAN_POINT('',(-15.2065256706728,-9.25,-20.1390366234556));
#1450=CARTESIAN_POINT('',(-15.2065256706728,-4.375,-20.1390366234556));
#1451=CARTESIAN_POINT('',(-15.9874420231266,-4.375,-15.9741494103685));
#1452=CARTESIAN_POINT('',(-15.8169089327299,-4.375,-16.8836592258171));
#1453=CARTESIAN_POINT('',(-15.8169089327299,-9.25,-16.8836592258171));
#1454=CARTESIAN_POINT('',(-15.9874420231266,-3.375,-15.9741494103685));
#1455=CARTESIAN_POINT('',(-15.8169089327299,-3.375,-16.8836592258171));
#1456=CARTESIAN_POINT('',(-15.2065256706728,-3.375,-20.1390366234556));
#1457=CARTESIAN_POINT('',(-15.2065256706728,-9.25,-20.1390366234556));
#1458=CARTESIAN_POINT('',(-15.2065256706728,1.50000000000004,-20.1390366234556));
#1459=CARTESIAN_POINT('',(-15.9874420231266,1.50000000000004,-15.9741494103685));
#1460=CARTESIAN_POINT('',(-15.8169089327299,1.50000000000004,-16.8836592258171));
#1461=CARTESIAN_POINT('',(-15.8169089327299,-9.25,-16.8836592258171));
#1462=CARTESIAN_POINT('',(-15.8283544558741,1.25,-12.7529112866903));
#1463=CARTESIAN_POINT('',(-16.1969315259744,1.25,-10.7871669128217));
#1464=CARTESIAN_POINT('',(-15.8283544558741,3.25,-12.7529112866903));
#1465=CARTESIAN_POINT('',(-13.7969824273744,3.25000000000006,-23.5868954386887));
#1466=CARTESIAN_POINT('',(-15.0188447636549,3.25000000000003,-19.1051488863717));
#1467=CARTESIAN_POINT('',(-15.0188447636549,3.25000000000004,-19.2676488863716));
#1468=CARTESIAN_POINT('',(-15.4115403510947,3.25,-17.0107724200258));
#1469=CARTESIAN_POINT('',(-15.4115403510947,3.25,-17.1732724200258));
#1470=CARTESIAN_POINT('',(-15.8042359385346,3.25,-14.91639595368));
#1471=CARTESIAN_POINT('',(-15.8042359385346,3.25,-15.07889595368));
#1472=CARTESIAN_POINT('',(-14.2575721061147,3.25000000000005,-21.1304171520737));
#1473=CARTESIAN_POINT('',(-14.2575721061147,-9.25,-21.1304171520737));
#1474=CARTESIAN_POINT('',(-14.2575721061147,-21.75,-21.1304171520737));
#1475=CARTESIAN_POINT('',(-13.7969824273744,-21.75,-23.5868954386888));
#1476=CARTESIAN_POINT('',(-15.0188447636549,-21.75,-19.1051488863717));
#1477=CARTESIAN_POINT('',(-15.0188447636549,-21.75,-19.2676488863716));
#1478=CARTESIAN_POINT('',(-15.4115403510947,-21.75,-17.0107724200258));
#1479=CARTESIAN_POINT('',(-15.4115403510947,-21.75,-17.1732724200258));
#1480=CARTESIAN_POINT('',(-15.8042359385346,-21.75,-14.91639595368));
#1481=CARTESIAN_POINT('',(-15.8042359385346,-21.75,-15.07889595368));
#1482=CARTESIAN_POINT('',(-15.8283544558741,-21.75,-12.7529112866903));
#1483=CARTESIAN_POINT('',(-15.8283544558741,-19.75,-12.7529112866903));
#1484=CARTESIAN_POINT('',(-16.1969315259744,-19.75,-10.7871669128217));
#1485=CARTESIAN_POINT('',(-16.1969315259744,-21.75,-10.7871669128217));
#1486=CARTESIAN_POINT('',(-15.3235169118745,-3.375,-14.0888098050134));
#1487=CARTESIAN_POINT('',(-15.0183252808459,-3.375,-15.7164985038327));
#1488=CARTESIAN_POINT('',(-15.6287085429031,-3.375,-12.4611211061942));
#1489=CARTESIAN_POINT('',(-15.6287085429031,-0.937499999999977,-12.4611211061942));
#1490=CARTESIAN_POINT('',(-15.6287085429031,1.50000000000004,-12.4611211061942));
#1491=CARTESIAN_POINT('',(-15.3235169118745,1.50000000000004,-14.0888098050134));
#1492=CARTESIAN_POINT('',(-15.0183252808458,1.50000000000004,-15.7164985038327));
#1493=CARTESIAN_POINT('',(-15.0183252808459,-0.937499999999974,-15.7164985038327));
#1494=CARTESIAN_POINT('',(-14.2236534837384,-11.9375,-19.9547480884055));
#1495=CARTESIAN_POINT('',(-14.2236534837384,-9.75,-19.9547480884055));
#1496=CARTESIAN_POINT('',(-14.2236534837384,-14.125,-19.9547480884055));
#1497=CARTESIAN_POINT('',(-14.528845114767,-14.125,-18.3270593895862));
#1498=CARTESIAN_POINT('',(-14.8340367457957,-14.125,-16.699370690767));
#1499=CARTESIAN_POINT('',(-14.8340367457957,-11.9375,-16.699370690767));
#1500=CARTESIAN_POINT('',(-14.8340367457956,-9.75,-16.699370690767));
#1501=CARTESIAN_POINT('',(-14.528845114767,-9.75,-18.3270593895862));
#1502=CARTESIAN_POINT('',(-15.0183252808459,-17.5625,-15.7164985038327));
#1503=CARTESIAN_POINT('',(-15.0183252808459,-15.125,-15.7164985038327));
#1504=CARTESIAN_POINT('',(-15.0183252808459,-20.,-15.7164985038327));
#1505=CARTESIAN_POINT('',(-15.3235169118745,-20.,-14.0888098050134));
#1506=CARTESIAN_POINT('',(-15.6287085429031,-20.,-12.4611211061942));
#1507=CARTESIAN_POINT('',(-15.6287085429031,-17.5625,-12.4611211061942));
#1508=CARTESIAN_POINT('',(-15.6287085429031,-15.125,-12.4611211061942));
#1509=CARTESIAN_POINT('',(-15.3235169118745,-15.125,-14.0888098050134));
#1510=CARTESIAN_POINT('',(-14.2236534837384,-17.5625,-19.9547480884055));
#1511=CARTESIAN_POINT('',(-14.2236534837384,-15.125,-19.9547480884055));
#1512=CARTESIAN_POINT('',(-14.2236534837385,-20.,-19.9547480884055));
#1513=CARTESIAN_POINT('',(-14.5288451147671,-20.,-18.3270593895862));
#1514=CARTESIAN_POINT('',(-14.8340367457957,-20.,-16.699370690767));
#1515=CARTESIAN_POINT('',(-14.8340367457957,-17.5625,-16.699370690767));
#1516=CARTESIAN_POINT('',(-14.8340367457957,-15.125,-16.699370690767));
#1517=CARTESIAN_POINT('',(-14.528845114767,-15.125,-18.3270593895862));
#1518=CARTESIAN_POINT('',(-15.3235169118745,-14.125,-14.0888098050134));
#1519=CARTESIAN_POINT('',(-15.0183252808459,-14.125,-15.7164985038327));
#1520=CARTESIAN_POINT('',(-15.6287085429031,-14.125,-12.4611211061942));
#1521=CARTESIAN_POINT('',(-15.6287085429031,-11.9375,-12.4611211061942));
#1522=CARTESIAN_POINT('',(-15.6287085429031,-9.75,-12.4611211061942));
#1523=CARTESIAN_POINT('',(-15.3235169118745,-9.75,-14.0888098050134));
#1524=CARTESIAN_POINT('',(-15.0183252808459,-9.75,-15.7164985038327));
#1525=CARTESIAN_POINT('',(-15.0183252808459,-11.9375,-15.7164985038327));
#1526=CARTESIAN_POINT('',(-15.0183252808459,-6.5625,-15.7164985038327));
#1527=CARTESIAN_POINT('',(-15.0183252808459,-4.375,-15.7164985038327));
#1528=CARTESIAN_POINT('',(-15.0183252808459,-8.75,-15.7164985038327));
#1529=CARTESIAN_POINT('',(-15.3235169118745,-8.75,-14.0888098050134));
#1530=CARTESIAN_POINT('',(-15.6287085429031,-8.75,-12.4611211061942));
#1531=CARTESIAN_POINT('',(-15.6287085429031,-6.5625,-12.4611211061942));
#1532=CARTESIAN_POINT('',(-15.6287085429031,-4.375,-12.4611211061942));
#1533=CARTESIAN_POINT('',(-15.3235169118745,-4.375,-14.0888098050134));
#1534=CARTESIAN_POINT('',(-14.2236534837384,-6.5625,-19.9547480884055));
#1535=CARTESIAN_POINT('',(-14.2236534837384,-4.375,-19.9547480884055));
#1536=CARTESIAN_POINT('',(-14.2236534837384,-8.75,-19.9547480884055));
#1537=CARTESIAN_POINT('',(-14.528845114767,-8.75,-18.3270593895862));
#1538=CARTESIAN_POINT('',(-14.8340367457956,-8.75,-16.699370690767));
#1539=CARTESIAN_POINT('',(-14.8340367457956,-6.5625,-16.699370690767));
#1540=CARTESIAN_POINT('',(-14.8340367457956,-4.375,-16.699370690767));
#1541=CARTESIAN_POINT('',(-14.528845114767,-4.375,-18.3270593895862));
#1542=CARTESIAN_POINT('',(-14.2236534837384,-0.937499999999977,-19.9547480884055));
#1543=CARTESIAN_POINT('',(-14.2236534837384,1.50000000000004,-19.9547480884055));
#1544=CARTESIAN_POINT('',(-14.2236534837384,-3.375,-19.9547480884055));
#1545=CARTESIAN_POINT('',(-14.528845114767,-3.375,-18.3270593895862));
#1546=CARTESIAN_POINT('',(-14.8340367457956,-3.375,-16.699370690767));
#1547=CARTESIAN_POINT('',(-14.8340367457956,-0.937499999999974,-16.699370690767));
#1548=CARTESIAN_POINT('',(-14.8340367457956,1.50000000000004,-16.699370690767));
#1549=CARTESIAN_POINT('',(-14.528845114767,1.50000000000004,-18.3270593895862));
#1550=CARTESIAN_POINT('',(-15.8042359385346,-21.,-14.91639595368));
#1551=CARTESIAN_POINT('',(-15.8042359385346,-21.,-14.91639595368));
#1552=CARTESIAN_POINT('',(-15.8042359385346,-21.,-15.07889595368));
#1553=CARTESIAN_POINT('',(-0.763087744339069,-21.,-17.3130109388541));
#1554=CARTESIAN_POINT('',(-15.4115403510947,-21.,-17.0107724200258));
#1555=CARTESIAN_POINT('',(-15.4115403510947,-21.,-17.0107724200258));
#1556=CARTESIAN_POINT('',(-15.4115403510947,-21.,-17.1732724200258));
#1557=CARTESIAN_POINT('',(-0.763087744339069,-21.,-17.3130109388541));
#1558=CARTESIAN_POINT('',(-15.0188447636549,-21.,-19.1051488863717));
#1559=CARTESIAN_POINT('',(-15.0188447636549,-21.,-19.1051488863717));
#1560=CARTESIAN_POINT('',(-15.0188447636549,-21.,-19.2676488863716));
#1561=CARTESIAN_POINT('',(-0.763087744339069,-21.,-17.3130109388541));
#1562=CARTESIAN_POINT('',(-15.8042359385346,2.5,-14.91639595368));
#1563=CARTESIAN_POINT('',(-15.8042359385346,2.5,-14.91639595368));
#1564=CARTESIAN_POINT('',(-15.8042359385346,2.5,-15.07889595368));
#1565=CARTESIAN_POINT('',(-0.763087744339069,2.5,-17.3130109388541));
#1566=CARTESIAN_POINT('',(-15.4115403510947,2.5,-17.0107724200258));
#1567=CARTESIAN_POINT('',(-15.4115403510947,2.5,-17.0107724200258));
#1568=CARTESIAN_POINT('',(-15.4115403510947,2.5,-17.1732724200258));
#1569=CARTESIAN_POINT('',(-0.763087744339069,2.5,-17.3130109388541));
#1570=CARTESIAN_POINT('',(-15.0188447636549,2.5,-19.1051488863717));
#1571=CARTESIAN_POINT('',(-15.0188447636549,2.5,-19.1051488863717));
#1572=CARTESIAN_POINT('',(-15.0188447636549,2.5,-19.2676488863716));
#1573=CARTESIAN_POINT('',(-0.763087744339069,2.5,-17.3130109388541));
#1574=MECHANICAL_DESIGN_GEOMETRIC_PRESENTATION_REPRESENTATION('',(#979),
#1575);
#1575=(
GEOMETRIC_REPRESENTATION_CONTEXT(3)
GLOBAL_UNCERTAINTY_ASSIGNED_CONTEXT((#1576))
GLOBAL_UNIT_ASSIGNED_CONTEXT((#1579,#1578,#1577))
REPRESENTATION_CONTEXT('Back_Panel','TOP_LEVEL_ASSEMBLY_PART')
);
#1576=UNCERTAINTY_MEASURE_WITH_UNIT(LENGTH_MEASURE(1.E-6),#1579,
'DISTANCE_ACCURACY_VALUE','Maximum Tolerance applied to model');
#1577=(
NAMED_UNIT(*)
SI_UNIT($,.STERADIAN.)
SOLID_ANGLE_UNIT()
);
#1578=(
NAMED_UNIT(*)
PLANE_ANGLE_UNIT()
SI_UNIT($,.RADIAN.)
);
#1579=(
LENGTH_UNIT()
NAMED_UNIT(*)
SI_UNIT(.CENTI.,.METRE.)
);
#1580=PRODUCT_DEFINITION_SHAPE('','',#1581);
#1581=PRODUCT_DEFINITION('','',#1583,#1582);
#1582=PRODUCT_DEFINITION_CONTEXT('',#1589,'design');
#1583=PRODUCT_DEFINITION_FORMATION_WITH_SPECIFIED_SOURCE('','',#1585,
 .NOT_KNOWN.);
#1584=PRODUCT_RELATED_PRODUCT_CATEGORY('','',(#1585));
#1585=PRODUCT('Back_Panel','Back_Panel','Back_Panel',(#1587));
#1586=PRODUCT_CATEGORY('','');
#1587=PRODUCT_CONTEXT('',#1589,'mechanical');
#1588=APPLICATION_PROTOCOL_DEFINITION('international standard',
'ap242_managed_model_based_3d_engineering',2020,#1589);
#1589=APPLICATION_CONTEXT('managed model based 3d engineering');
ENDSEC;
END-ISO-10303-21;
