ISO-10303-21;
HEADER;
/* Generated by software containing ST-Developer
 * from STEP Tools, Inc. (www.steptools.com) 
 */
/* OPTION: using custom renumber hook */

FILE_DESCRIPTION(
/* description */ ('STEP AP242 Edition 2',
'CAx-IF Rec.Pracs.---Representation and Presentation of Product Manufa
cturing Information (PMI)---4.0---2014-10-13',
'CAx-IF Rec.Pracs.---3D Tessellated Geometry---0.4---2014-09-14','2;1',
'CAx-IF Rec.Pracs.---User Defined Attributes---1.5---2016-08-15'),
/* implementation_level */ '2;1');

FILE_NAME(
/* name */ 'Part Studio 1 - CoolerCap',
/* time_stamp */ '2026-09-11T10:36:29Z',
/* author */ (''),
/* organization */ (''),
/* preprocessor_version */ 'ST-DEVELOPER v20',
/* originating_system */ 'ONSHAPE BY PTC INC, 1.220',
/* authorisation */ '  ');

FILE_SCHEMA (('AP242_MANAGED_MODEL_BASED_3D_ENGINEERING_MIM_LF { 1 0 10303 442 3 1 4 }'));
ENDSEC;

DATA;
#10=SHAPE_REPRESENTATION_RELATIONSHIP('','',#537,#11);
#11=ADVANCED_BREP_SHAPE_REPRESENTATION('',(#535),#907);
#12=CYLINDRICAL_SURFACE('',#563,0.25);
#13=CYLINDRICAL_SURFACE('',#564,0.25);
#14=CYLINDRICAL_SURFACE('',#565,0.25);
#15=CYLINDRICAL_SURFACE('',#566,0.25);
#16=CYLINDRICAL_SURFACE('',#567,0.075);
#17=CYLINDRICAL_SURFACE('',#570,0.075);
#18=CYLINDRICAL_SURFACE('',#573,0.0749999999999973);
#19=CYLINDRICAL_SURFACE('',#576,0.0749999999999973);
#20=CYLINDRICAL_SURFACE('',#579,0.075);
#21=CYLINDRICAL_SURFACE('',#582,0.075);
#22=CYLINDRICAL_SURFACE('',#585,0.0749999999999973);
#23=CYLINDRICAL_SURFACE('',#588,0.0749999999999973);
#24=CYLINDRICAL_SURFACE('',#598,0.55);
#25=LINE('',#764,#63);
#26=LINE('',#766,#64);
#27=LINE('',#768,#65);
#28=LINE('',#770,#66);
#29=LINE('',#772,#67);
#30=LINE('',#774,#68);
#31=LINE('',#776,#69);
#32=LINE('',#782,#70);
#33=LINE('',#785,#71);
#34=LINE('',#787,#72);
#35=LINE('',#789,#73);
#36=LINE('',#791,#74);
#37=LINE('',#796,#75);
#38=LINE('',#801,#76);
#39=LINE('',#809,#77);
#40=LINE('',#812,#78);
#41=LINE('',#813,#79);
#42=LINE('',#815,#80);
#43=LINE('',#817,#81);
#44=LINE('',#819,#82);
#45=LINE('',#820,#83);
#46=LINE('',#823,#84);
#47=LINE('',#824,#85);
#48=LINE('',#829,#86);
#49=LINE('',#834,#87);
#50=LINE('',#840,#88);
#51=LINE('',#841,#89);
#52=LINE('',#847,#90);
#53=LINE('',#848,#91);
#54=LINE('',#887,#92);
#55=LINE('',#889,#93);
#56=LINE('',#891,#94);
#57=LINE('',#893,#95);
#58=LINE('',#895,#96);
#59=LINE('',#897,#97);
#60=LINE('',#899,#98);
#61=LINE('',#901,#99);
#62=LINE('',#902,#100);
#63=VECTOR('',#605,100.);
#64=VECTOR('',#606,100.);
#65=VECTOR('',#607,100.);
#66=VECTOR('',#608,100.);
#67=VECTOR('',#609,100.);
#68=VECTOR('',#610,100.);
#69=VECTOR('',#611,100.);
#70=VECTOR('',#618,100.);
#71=VECTOR('',#619,100.);
#72=VECTOR('',#620,100.);
#73=VECTOR('',#621,100.);
#74=VECTOR('',#624,100.);
#75=VECTOR('',#627,100.);
#76=VECTOR('',#632,100.);
#77=VECTOR('',#641,100.);
#78=VECTOR('',#642,100.);
#79=VECTOR('',#643,100.);
#80=VECTOR('',#646,100.);
#81=VECTOR('',#647,100.);
#82=VECTOR('',#648,100.);
#83=VECTOR('',#649,100.);
#84=VECTOR('',#650,100.);
#85=VECTOR('',#651,100.);
#86=VECTOR('',#656,100.);
#87=VECTOR('',#661,100.);
#88=VECTOR('',#668,100.);
#89=VECTOR('',#669,100.);
#90=VECTOR('',#676,100.);
#91=VECTOR('',#677,100.);
#92=VECTOR('',#738,100.);
#93=VECTOR('',#739,100.);
#94=VECTOR('',#740,100.);
#95=VECTOR('',#741,100.);
#96=VECTOR('',#742,100.);
#97=VECTOR('',#745,100.);
#98=VECTOR('',#748,100.);
#99=VECTOR('',#751,100.);
#100=VECTOR('',#752,100.);
#101=ORIENTED_EDGE('',*,*,#229,.F.);
#102=ORIENTED_EDGE('',*,*,#230,.T.);
#103=ORIENTED_EDGE('',*,*,#231,.F.);
#104=ORIENTED_EDGE('',*,*,#232,.T.);
#105=ORIENTED_EDGE('',*,*,#233,.F.);
#106=ORIENTED_EDGE('',*,*,#234,.T.);
#107=ORIENTED_EDGE('',*,*,#235,.T.);
#108=ORIENTED_EDGE('',*,*,#236,.T.);
#109=ORIENTED_EDGE('',*,*,#237,.F.);
#110=ORIENTED_EDGE('',*,*,#238,.F.);
#111=ORIENTED_EDGE('',*,*,#239,.F.);
#112=ORIENTED_EDGE('',*,*,#240,.T.);
#113=ORIENTED_EDGE('',*,*,#241,.T.);
#114=ORIENTED_EDGE('',*,*,#242,.T.);
#115=ORIENTED_EDGE('',*,*,#243,.F.);
#116=ORIENTED_EDGE('',*,*,#244,.T.);
#117=ORIENTED_EDGE('',*,*,#245,.F.);
#118=ORIENTED_EDGE('',*,*,#246,.T.);
#119=ORIENTED_EDGE('',*,*,#239,.T.);
#120=ORIENTED_EDGE('',*,*,#247,.T.);
#121=ORIENTED_EDGE('',*,*,#248,.T.);
#122=ORIENTED_EDGE('',*,*,#249,.T.);
#123=ORIENTED_EDGE('',*,*,#250,.F.);
#124=ORIENTED_EDGE('',*,*,#251,.F.);
#125=ORIENTED_EDGE('',*,*,#252,.F.);
#126=ORIENTED_EDGE('',*,*,#253,.T.);
#127=ORIENTED_EDGE('',*,*,#243,.T.);
#128=ORIENTED_EDGE('',*,*,#254,.T.);
#129=ORIENTED_EDGE('',*,*,#230,.F.);
#130=ORIENTED_EDGE('',*,*,#255,.F.);
#131=ORIENTED_EDGE('',*,*,#256,.T.);
#132=ORIENTED_EDGE('',*,*,#257,.T.);
#133=ORIENTED_EDGE('',*,*,#258,.T.);
#134=ORIENTED_EDGE('',*,*,#259,.T.);
#135=ORIENTED_EDGE('',*,*,#236,.F.);
#136=ORIENTED_EDGE('',*,*,#260,.F.);
#137=ORIENTED_EDGE('',*,*,#261,.T.);
#138=ORIENTED_EDGE('',*,*,#241,.F.);
#139=ORIENTED_EDGE('',*,*,#262,.T.);
#140=ORIENTED_EDGE('',*,*,#263,.F.);
#141=ORIENTED_EDGE('',*,*,#264,.T.);
#142=ORIENTED_EDGE('',*,*,#252,.T.);
#143=ORIENTED_EDGE('',*,*,#265,.T.);
#144=ORIENTED_EDGE('',*,*,#266,.T.);
#145=ORIENTED_EDGE('',*,*,#267,.F.);
#146=ORIENTED_EDGE('',*,*,#268,.F.);
#147=ORIENTED_EDGE('',*,*,#245,.T.);
#148=ORIENTED_EDGE('',*,*,#269,.T.);
#149=ORIENTED_EDGE('',*,*,#263,.T.);
#150=ORIENTED_EDGE('',*,*,#270,.T.);
#151=ORIENTED_EDGE('',*,*,#271,.F.);
#152=ORIENTED_EDGE('',*,*,#272,.F.);
#153=ORIENTED_EDGE('',*,*,#248,.F.);
#154=ORIENTED_EDGE('',*,*,#273,.T.);
#155=ORIENTED_EDGE('',*,*,#266,.F.);
#156=ORIENTED_EDGE('',*,*,#274,.T.);
#157=ORIENTED_EDGE('',*,*,#264,.F.);
#158=ORIENTED_EDGE('',*,*,#269,.F.);
#159=ORIENTED_EDGE('',*,*,#244,.F.);
#160=ORIENTED_EDGE('',*,*,#253,.F.);
#161=ORIENTED_EDGE('',*,*,#262,.F.);
#162=ORIENTED_EDGE('',*,*,#240,.F.);
#163=ORIENTED_EDGE('',*,*,#246,.F.);
#164=ORIENTED_EDGE('',*,*,#270,.F.);
#165=ORIENTED_EDGE('',*,*,#261,.F.);
#166=ORIENTED_EDGE('',*,*,#273,.F.);
#167=ORIENTED_EDGE('',*,*,#247,.F.);
#168=ORIENTED_EDGE('',*,*,#242,.F.);
#169=ORIENTED_EDGE('',*,*,#265,.F.);
#170=ORIENTED_EDGE('',*,*,#254,.F.);
#171=ORIENTED_EDGE('',*,*,#249,.F.);
#172=ORIENTED_EDGE('',*,*,#274,.F.);
#173=ORIENTED_EDGE('',*,*,#268,.T.);
#174=ORIENTED_EDGE('',*,*,#275,.F.);
#175=ORIENTED_EDGE('',*,*,#275,.T.);
#176=ORIENTED_EDGE('',*,*,#267,.T.);
#177=ORIENTED_EDGE('',*,*,#276,.F.);
#178=ORIENTED_EDGE('',*,*,#276,.T.);
#179=ORIENTED_EDGE('',*,*,#251,.T.);
#180=ORIENTED_EDGE('',*,*,#277,.F.);
#181=ORIENTED_EDGE('',*,*,#277,.T.);
#182=ORIENTED_EDGE('',*,*,#250,.T.);
#183=ORIENTED_EDGE('',*,*,#278,.F.);
#184=ORIENTED_EDGE('',*,*,#278,.T.);
#185=ORIENTED_EDGE('',*,*,#279,.T.);
#186=ORIENTED_EDGE('',*,*,#272,.T.);
#187=ORIENTED_EDGE('',*,*,#279,.F.);
#188=ORIENTED_EDGE('',*,*,#280,.T.);
#189=ORIENTED_EDGE('',*,*,#271,.T.);
#190=ORIENTED_EDGE('',*,*,#280,.F.);
#191=ORIENTED_EDGE('',*,*,#281,.T.);
#192=ORIENTED_EDGE('',*,*,#238,.T.);
#193=ORIENTED_EDGE('',*,*,#281,.F.);
#194=ORIENTED_EDGE('',*,*,#282,.T.);
#195=ORIENTED_EDGE('',*,*,#237,.T.);
#196=ORIENTED_EDGE('',*,*,#282,.F.);
#197=ORIENTED_EDGE('',*,*,#283,.F.);
#198=ORIENTED_EDGE('',*,*,#258,.F.);
#199=ORIENTED_EDGE('',*,*,#284,.F.);
#200=ORIENTED_EDGE('',*,*,#285,.T.);
#201=ORIENTED_EDGE('',*,*,#286,.T.);
#202=ORIENTED_EDGE('',*,*,#287,.T.);
#203=ORIENTED_EDGE('',*,*,#288,.T.);
#204=ORIENTED_EDGE('',*,*,#256,.F.);
#205=ORIENTED_EDGE('',*,*,#235,.F.);
#206=ORIENTED_EDGE('',*,*,#289,.T.);
#207=ORIENTED_EDGE('',*,*,#284,.T.);
#208=ORIENTED_EDGE('',*,*,#260,.T.);
#209=ORIENTED_EDGE('',*,*,#288,.F.);
#210=ORIENTED_EDGE('',*,*,#290,.T.);
#211=ORIENTED_EDGE('',*,*,#231,.T.);
#212=ORIENTED_EDGE('',*,*,#257,.F.);
#213=ORIENTED_EDGE('',*,*,#286,.F.);
#214=ORIENTED_EDGE('',*,*,#291,.T.);
#215=ORIENTED_EDGE('',*,*,#233,.T.);
#216=ORIENTED_EDGE('',*,*,#292,.T.);
#217=ORIENTED_EDGE('',*,*,#285,.F.);
#218=ORIENTED_EDGE('',*,*,#289,.F.);
#219=ORIENTED_EDGE('',*,*,#234,.F.);
#220=ORIENTED_EDGE('',*,*,#291,.F.);
#221=ORIENTED_EDGE('',*,*,#287,.F.);
#222=ORIENTED_EDGE('',*,*,#292,.F.);
#223=ORIENTED_EDGE('',*,*,#232,.F.);
#224=ORIENTED_EDGE('',*,*,#290,.F.);
#225=ORIENTED_EDGE('',*,*,#283,.T.);
#226=ORIENTED_EDGE('',*,*,#255,.T.);
#227=ORIENTED_EDGE('',*,*,#229,.T.);
#228=ORIENTED_EDGE('',*,*,#259,.F.);
#229=EDGE_CURVE('',#293,#294,#341,.T.);
#230=EDGE_CURVE('',#293,#295,#25,.T.);
#231=EDGE_CURVE('',#296,#295,#26,.T.);
#232=EDGE_CURVE('',#296,#297,#27,.F.);
#233=EDGE_CURVE('',#298,#297,#28,.T.);
#234=EDGE_CURVE('',#298,#299,#29,.T.);
#235=EDGE_CURVE('',#299,#300,#30,.T.);
#236=EDGE_CURVE('',#300,#294,#31,.T.);
#237=EDGE_CURVE('',#301,#301,#342,.F.);
#238=EDGE_CURVE('',#302,#302,#343,.F.);
#239=EDGE_CURVE('',#303,#304,#32,.T.);
#240=EDGE_CURVE('',#303,#305,#33,.F.);
#241=EDGE_CURVE('',#305,#306,#34,.T.);
#242=EDGE_CURVE('',#306,#304,#35,.T.);
#243=EDGE_CURVE('',#307,#308,#36,.T.);
#244=EDGE_CURVE('',#307,#309,#344,.F.);
#245=EDGE_CURVE('',#310,#309,#37,.T.);
#246=EDGE_CURVE('',#310,#303,#345,.F.);
#247=EDGE_CURVE('',#304,#311,#346,.F.);
#248=EDGE_CURVE('',#311,#312,#38,.T.);
#249=EDGE_CURVE('',#312,#308,#347,.F.);
#250=EDGE_CURVE('',#313,#313,#348,.T.);
#251=EDGE_CURVE('',#314,#314,#349,.T.);
#252=EDGE_CURVE('',#315,#316,#39,.T.);
#253=EDGE_CURVE('',#315,#307,#40,.T.);
#254=EDGE_CURVE('',#308,#316,#41,.F.);
#255=EDGE_CURVE('',#317,#293,#42,.T.);
#256=EDGE_CURVE('',#317,#318,#43,.T.);
#257=EDGE_CURVE('',#318,#295,#44,.T.);
#258=EDGE_CURVE('',#319,#320,#45,.T.);
#259=EDGE_CURVE('',#320,#294,#46,.T.);
#260=EDGE_CURVE('',#319,#300,#47,.T.);
#261=EDGE_CURVE('',#321,#306,#350,.F.);
#262=EDGE_CURVE('',#305,#322,#351,.F.);
#263=EDGE_CURVE('',#323,#322,#48,.T.);
#264=EDGE_CURVE('',#323,#315,#352,.F.);
#265=EDGE_CURVE('',#316,#324,#353,.F.);
#266=EDGE_CURVE('',#324,#321,#49,.T.);
#267=EDGE_CURVE('',#325,#325,#354,.T.);
#268=EDGE_CURVE('',#326,#326,#355,.T.);
#269=EDGE_CURVE('',#309,#323,#50,.F.);
#270=EDGE_CURVE('',#322,#310,#51,.T.);
#271=EDGE_CURVE('',#327,#327,#356,.F.);
#272=EDGE_CURVE('',#328,#328,#357,.F.);
#273=EDGE_CURVE('',#311,#321,#52,.F.);
#274=EDGE_CURVE('',#324,#312,#53,.T.);
#275=EDGE_CURVE('',#329,#329,#358,.T.);
#276=EDGE_CURVE('',#330,#330,#359,.T.);
#277=EDGE_CURVE('',#331,#331,#360,.T.);
#278=EDGE_CURVE('',#332,#332,#361,.T.);
#279=EDGE_CURVE('',#333,#333,#362,.T.);
#280=EDGE_CURVE('',#334,#334,#363,.T.);
#281=EDGE_CURVE('',#335,#335,#364,.T.);
#282=EDGE_CURVE('',#336,#336,#365,.T.);
#283=EDGE_CURVE('',#320,#317,#366,.T.);
#284=EDGE_CURVE('',#337,#319,#54,.T.);
#285=EDGE_CURVE('',#337,#338,#55,.T.);
#286=EDGE_CURVE('',#338,#339,#56,.T.);
#287=EDGE_CURVE('',#339,#340,#57,.F.);
#288=EDGE_CURVE('',#340,#318,#58,.T.);
#289=EDGE_CURVE('',#299,#337,#59,.T.);
#290=EDGE_CURVE('',#340,#296,#60,.T.);
#291=EDGE_CURVE('',#338,#298,#61,.T.);
#292=EDGE_CURVE('',#297,#339,#62,.T.);
#293=VERTEX_POINT('',#762);
#294=VERTEX_POINT('',#763);
#295=VERTEX_POINT('',#765);
#296=VERTEX_POINT('',#767);
#297=VERTEX_POINT('',#769);
#298=VERTEX_POINT('',#771);
#299=VERTEX_POINT('',#773);
#300=VERTEX_POINT('',#775);
#301=VERTEX_POINT('',#779);
#302=VERTEX_POINT('',#781);
#303=VERTEX_POINT('',#783);
#304=VERTEX_POINT('',#784);
#305=VERTEX_POINT('',#786);
#306=VERTEX_POINT('',#788);
#307=VERTEX_POINT('',#792);
#308=VERTEX_POINT('',#793);
#309=VERTEX_POINT('',#795);
#310=VERTEX_POINT('',#797);
#311=VERTEX_POINT('',#800);
#312=VERTEX_POINT('',#802);
#313=VERTEX_POINT('',#806);
#314=VERTEX_POINT('',#808);
#315=VERTEX_POINT('',#810);
#316=VERTEX_POINT('',#811);
#317=VERTEX_POINT('',#816);
#318=VERTEX_POINT('',#818);
#319=VERTEX_POINT('',#821);
#320=VERTEX_POINT('',#822);
#321=VERTEX_POINT('',#826);
#322=VERTEX_POINT('',#828);
#323=VERTEX_POINT('',#830);
#324=VERTEX_POINT('',#833);
#325=VERTEX_POINT('',#837);
#326=VERTEX_POINT('',#839);
#327=VERTEX_POINT('',#844);
#328=VERTEX_POINT('',#846);
#329=VERTEX_POINT('',#855);
#330=VERTEX_POINT('',#859);
#331=VERTEX_POINT('',#863);
#332=VERTEX_POINT('',#867);
#333=VERTEX_POINT('',#871);
#334=VERTEX_POINT('',#875);
#335=VERTEX_POINT('',#879);
#336=VERTEX_POINT('',#883);
#337=VERTEX_POINT('',#888);
#338=VERTEX_POINT('',#890);
#339=VERTEX_POINT('',#892);
#340=VERTEX_POINT('',#894);
#341=CIRCLE('',#540,0.55);
#342=CIRCLE('',#542,0.0749999999999973);
#343=CIRCLE('',#543,0.0749999999999973);
#344=CIRCLE('',#545,0.25);
#345=CIRCLE('',#546,0.25);
#346=CIRCLE('',#547,0.25);
#347=CIRCLE('',#548,0.25);
#348=CIRCLE('',#550,0.0749999999999973);
#349=CIRCLE('',#551,0.0749999999999973);
#350=CIRCLE('',#553,0.25);
#351=CIRCLE('',#554,0.25);
#352=CIRCLE('',#555,0.25);
#353=CIRCLE('',#556,0.25);
#354=CIRCLE('',#558,0.075);
#355=CIRCLE('',#559,0.075);
#356=CIRCLE('',#561,0.075);
#357=CIRCLE('',#562,0.075);
#358=CIRCLE('',#568,0.075);
#359=CIRCLE('',#571,0.075);
#360=CIRCLE('',#574,0.0749999999999973);
#361=CIRCLE('',#577,0.0749999999999973);
#362=CIRCLE('',#580,0.075);
#363=CIRCLE('',#583,0.075);
#364=CIRCLE('',#586,0.0749999999999973);
#365=CIRCLE('',#589,0.0749999999999973);
#366=CIRCLE('',#592,0.55);
#367=EDGE_LOOP('',(#101,#102,#103,#104,#105,#106,#107,#108));
#368=EDGE_LOOP('',(#109));
#369=EDGE_LOOP('',(#110));
#370=EDGE_LOOP('',(#111,#112,#113,#114));
#371=EDGE_LOOP('',(#115,#116,#117,#118,#119,#120,#121,#122));
#372=EDGE_LOOP('',(#123));
#373=EDGE_LOOP('',(#124));
#374=EDGE_LOOP('',(#125,#126,#127,#128));
#375=EDGE_LOOP('',(#129,#130,#131,#132));
#376=EDGE_LOOP('',(#133,#134,#135,#136));
#377=EDGE_LOOP('',(#137,#138,#139,#140,#141,#142,#143,#144));
#378=EDGE_LOOP('',(#145));
#379=EDGE_LOOP('',(#146));
#380=EDGE_LOOP('',(#147,#148,#149,#150));
#381=EDGE_LOOP('',(#151));
#382=EDGE_LOOP('',(#152));
#383=EDGE_LOOP('',(#153,#154,#155,#156));
#384=EDGE_LOOP('',(#157,#158,#159,#160));
#385=EDGE_LOOP('',(#161,#162,#163,#164));
#386=EDGE_LOOP('',(#165,#166,#167,#168));
#387=EDGE_LOOP('',(#169,#170,#171,#172));
#388=EDGE_LOOP('',(#173));
#389=EDGE_LOOP('',(#174));
#390=EDGE_LOOP('',(#175));
#391=EDGE_LOOP('',(#176));
#392=EDGE_LOOP('',(#177));
#393=EDGE_LOOP('',(#178));
#394=EDGE_LOOP('',(#179));
#395=EDGE_LOOP('',(#180));
#396=EDGE_LOOP('',(#181));
#397=EDGE_LOOP('',(#182));
#398=EDGE_LOOP('',(#183));
#399=EDGE_LOOP('',(#184));
#400=EDGE_LOOP('',(#185));
#401=EDGE_LOOP('',(#186));
#402=EDGE_LOOP('',(#187));
#403=EDGE_LOOP('',(#188));
#404=EDGE_LOOP('',(#189));
#405=EDGE_LOOP('',(#190));
#406=EDGE_LOOP('',(#191));
#407=EDGE_LOOP('',(#192));
#408=EDGE_LOOP('',(#193));
#409=EDGE_LOOP('',(#194));
#410=EDGE_LOOP('',(#195));
#411=EDGE_LOOP('',(#196));
#412=EDGE_LOOP('',(#197,#198,#199,#200,#201,#202,#203,#204));
#413=EDGE_LOOP('',(#205,#206,#207,#208));
#414=EDGE_LOOP('',(#209,#210,#211,#212));
#415=EDGE_LOOP('',(#213,#214,#215,#216));
#416=EDGE_LOOP('',(#217,#218,#219,#220));
#417=EDGE_LOOP('',(#221,#222,#223,#224));
#418=EDGE_LOOP('',(#225,#226,#227,#228));
#419=FACE_BOUND('',#367,.T.);
#420=FACE_BOUND('',#368,.T.);
#421=FACE_BOUND('',#369,.T.);
#422=FACE_BOUND('',#370,.T.);
#423=FACE_BOUND('',#371,.T.);
#424=FACE_BOUND('',#372,.T.);
#425=FACE_BOUND('',#373,.T.);
#426=FACE_BOUND('',#374,.T.);
#427=FACE_BOUND('',#375,.T.);
#428=FACE_BOUND('',#376,.T.);
#429=FACE_BOUND('',#377,.T.);
#430=FACE_BOUND('',#378,.T.);
#431=FACE_BOUND('',#379,.T.);
#432=FACE_BOUND('',#380,.T.);
#433=FACE_BOUND('',#381,.T.);
#434=FACE_BOUND('',#382,.T.);
#435=FACE_BOUND('',#383,.T.);
#436=FACE_BOUND('',#384,.T.);
#437=FACE_BOUND('',#385,.T.);
#438=FACE_BOUND('',#386,.T.);
#439=FACE_BOUND('',#387,.T.);
#440=FACE_BOUND('',#388,.T.);
#441=FACE_BOUND('',#389,.T.);
#442=FACE_BOUND('',#390,.T.);
#443=FACE_BOUND('',#391,.T.);
#444=FACE_BOUND('',#392,.T.);
#445=FACE_BOUND('',#393,.T.);
#446=FACE_BOUND('',#394,.T.);
#447=FACE_BOUND('',#395,.T.);
#448=FACE_BOUND('',#396,.T.);
#449=FACE_BOUND('',#397,.T.);
#450=FACE_BOUND('',#398,.T.);
#451=FACE_BOUND('',#399,.T.);
#452=FACE_BOUND('',#400,.T.);
#453=FACE_BOUND('',#401,.T.);
#454=FACE_BOUND('',#402,.T.);
#455=FACE_BOUND('',#403,.T.);
#456=FACE_BOUND('',#404,.T.);
#457=FACE_BOUND('',#405,.T.);
#458=FACE_BOUND('',#406,.T.);
#459=FACE_BOUND('',#407,.T.);
#460=FACE_BOUND('',#408,.T.);
#461=FACE_BOUND('',#409,.T.);
#462=FACE_BOUND('',#410,.T.);
#463=FACE_BOUND('',#411,.T.);
#464=FACE_BOUND('',#412,.T.);
#465=FACE_BOUND('',#413,.T.);
#466=FACE_BOUND('',#414,.T.);
#467=FACE_BOUND('',#415,.T.);
#468=FACE_BOUND('',#416,.T.);
#469=FACE_BOUND('',#417,.T.);
#470=FACE_BOUND('',#418,.T.);
#471=PLANE('',#539);
#472=PLANE('',#541);
#473=PLANE('',#544);
#474=PLANE('',#549);
#475=PLANE('',#552);
#476=PLANE('',#557);
#477=PLANE('',#560);
#478=PLANE('',#569);
#479=PLANE('',#572);
#480=PLANE('',#575);
#481=PLANE('',#578);
#482=PLANE('',#581);
#483=PLANE('',#584);
#484=PLANE('',#587);
#485=PLANE('',#590);
#486=PLANE('',#591);
#487=PLANE('',#593);
#488=PLANE('',#594);
#489=PLANE('',#595);
#490=PLANE('',#596);
#491=PLANE('',#597);
#492=ADVANCED_FACE('',(#419),#471,.F.);
#493=ADVANCED_FACE('',(#420,#421,#422),#472,.F.);
#494=ADVANCED_FACE('',(#423),#473,.F.);
#495=ADVANCED_FACE('',(#424,#425,#426),#474,.T.);
#496=ADVANCED_FACE('',(#427,#428,#429),#475,.F.);
#497=ADVANCED_FACE('',(#430,#431,#432),#476,.T.);
#498=ADVANCED_FACE('',(#433,#434,#435),#477,.F.);
#499=ADVANCED_FACE('',(#436),#12,.T.);
#500=ADVANCED_FACE('',(#437),#13,.T.);
#501=ADVANCED_FACE('',(#438),#14,.T.);
#502=ADVANCED_FACE('',(#439),#15,.T.);
#503=ADVANCED_FACE('',(#440,#441),#16,.F.);
#504=ADVANCED_FACE('',(#442),#478,.T.);
#505=ADVANCED_FACE('',(#443,#444),#17,.F.);
#506=ADVANCED_FACE('',(#445),#479,.T.);
#507=ADVANCED_FACE('',(#446,#447),#18,.F.);
#508=ADVANCED_FACE('',(#448),#480,.T.);
#509=ADVANCED_FACE('',(#449,#450),#19,.F.);
#510=ADVANCED_FACE('',(#451),#481,.T.);
#511=ADVANCED_FACE('',(#452,#453),#20,.F.);
#512=ADVANCED_FACE('',(#454),#482,.F.);
#513=ADVANCED_FACE('',(#455,#456),#21,.F.);
#514=ADVANCED_FACE('',(#457),#483,.F.);
#515=ADVANCED_FACE('',(#458,#459),#22,.F.);
#516=ADVANCED_FACE('',(#460),#484,.F.);
#517=ADVANCED_FACE('',(#461,#462),#23,.F.);
#518=ADVANCED_FACE('',(#463),#485,.F.);
#519=ADVANCED_FACE('',(#464),#486,.T.);
#520=ADVANCED_FACE('',(#465),#487,.F.);
#521=ADVANCED_FACE('',(#466),#488,.T.);
#522=ADVANCED_FACE('',(#467),#489,.T.);
#523=ADVANCED_FACE('',(#468),#490,.T.);
#524=ADVANCED_FACE('',(#469),#491,.F.);
#525=ADVANCED_FACE('',(#470),#24,.F.);
#526=CLOSED_SHELL('',(#492,#493,#494,#495,#496,#497,#498,#499,#500,#501,
#502,#503,#504,#505,#506,#507,#508,#509,#510,#511,#512,#513,#514,#515,#516,
#517,#518,#519,#520,#521,#522,#523,#524,#525));
#527=STYLED_ITEM('',(#528),#535);
#528=PRESENTATION_STYLE_ASSIGNMENT((#529));
#529=SURFACE_STYLE_USAGE(.BOTH.,#530);
#530=SURFACE_SIDE_STYLE('',(#531));
#531=SURFACE_STYLE_FILL_AREA(#532);
#532=FILL_AREA_STYLE('',(#533));
#533=FILL_AREA_STYLE_COLOUR('',#534);
#534=COLOUR_RGB('',0.615686274509804,0.811764705882353,0.929411764705882);
#535=MANIFOLD_SOLID_BREP('CoolerCap',#526);
#536=SHAPE_DEFINITION_REPRESENTATION(#912,#537);
#537=SHAPE_REPRESENTATION('CoolerCap',(#538),#907);
#538=AXIS2_PLACEMENT_3D('',#759,#599,#600);
#539=AXIS2_PLACEMENT_3D('',#760,#601,#602);
#540=AXIS2_PLACEMENT_3D('',#761,#603,#604);
#541=AXIS2_PLACEMENT_3D('',#777,#612,#613);
#542=AXIS2_PLACEMENT_3D('',#778,#614,#615);
#543=AXIS2_PLACEMENT_3D('',#780,#616,#617);
#544=AXIS2_PLACEMENT_3D('',#790,#622,#623);
#545=AXIS2_PLACEMENT_3D('',#794,#625,#626);
#546=AXIS2_PLACEMENT_3D('',#798,#628,#629);
#547=AXIS2_PLACEMENT_3D('',#799,#630,#631);
#548=AXIS2_PLACEMENT_3D('',#803,#633,#634);
#549=AXIS2_PLACEMENT_3D('',#804,#635,#636);
#550=AXIS2_PLACEMENT_3D('',#805,#637,#638);
#551=AXIS2_PLACEMENT_3D('',#807,#639,#640);
#552=AXIS2_PLACEMENT_3D('',#814,#644,#645);
#553=AXIS2_PLACEMENT_3D('',#825,#652,#653);
#554=AXIS2_PLACEMENT_3D('',#827,#654,#655);
#555=AXIS2_PLACEMENT_3D('',#831,#657,#658);
#556=AXIS2_PLACEMENT_3D('',#832,#659,#660);
#557=AXIS2_PLACEMENT_3D('',#835,#662,#663);
#558=AXIS2_PLACEMENT_3D('',#836,#664,#665);
#559=AXIS2_PLACEMENT_3D('',#838,#666,#667);
#560=AXIS2_PLACEMENT_3D('',#842,#670,#671);
#561=AXIS2_PLACEMENT_3D('',#843,#672,#673);
#562=AXIS2_PLACEMENT_3D('',#845,#674,#675);
#563=AXIS2_PLACEMENT_3D('',#849,#678,#679);
#564=AXIS2_PLACEMENT_3D('',#850,#680,#681);
#565=AXIS2_PLACEMENT_3D('',#851,#682,#683);
#566=AXIS2_PLACEMENT_3D('',#852,#684,#685);
#567=AXIS2_PLACEMENT_3D('',#853,#686,#687);
#568=AXIS2_PLACEMENT_3D('',#854,#688,#689);
#569=AXIS2_PLACEMENT_3D('',#856,#690,#691);
#570=AXIS2_PLACEMENT_3D('',#857,#692,#693);
#571=AXIS2_PLACEMENT_3D('',#858,#694,#695);
#572=AXIS2_PLACEMENT_3D('',#860,#696,#697);
#573=AXIS2_PLACEMENT_3D('',#861,#698,#699);
#574=AXIS2_PLACEMENT_3D('',#862,#700,#701);
#575=AXIS2_PLACEMENT_3D('',#864,#702,#703);
#576=AXIS2_PLACEMENT_3D('',#865,#704,#705);
#577=AXIS2_PLACEMENT_3D('',#866,#706,#707);
#578=AXIS2_PLACEMENT_3D('',#868,#708,#709);
#579=AXIS2_PLACEMENT_3D('',#869,#710,#711);
#580=AXIS2_PLACEMENT_3D('',#870,#712,#713);
#581=AXIS2_PLACEMENT_3D('',#872,#714,#715);
#582=AXIS2_PLACEMENT_3D('',#873,#716,#717);
#583=AXIS2_PLACEMENT_3D('',#874,#718,#719);
#584=AXIS2_PLACEMENT_3D('',#876,#720,#721);
#585=AXIS2_PLACEMENT_3D('',#877,#722,#723);
#586=AXIS2_PLACEMENT_3D('',#878,#724,#725);
#587=AXIS2_PLACEMENT_3D('',#880,#726,#727);
#588=AXIS2_PLACEMENT_3D('',#881,#728,#729);
#589=AXIS2_PLACEMENT_3D('',#882,#730,#731);
#590=AXIS2_PLACEMENT_3D('',#884,#732,#733);
#591=AXIS2_PLACEMENT_3D('',#885,#734,#735);
#592=AXIS2_PLACEMENT_3D('',#886,#736,#737);
#593=AXIS2_PLACEMENT_3D('',#896,#743,#744);
#594=AXIS2_PLACEMENT_3D('',#898,#746,#747);
#595=AXIS2_PLACEMENT_3D('',#900,#749,#750);
#596=AXIS2_PLACEMENT_3D('',#903,#753,#754);
#597=AXIS2_PLACEMENT_3D('',#904,#755,#756);
#598=AXIS2_PLACEMENT_3D('',#905,#757,#758);
#599=DIRECTION('',(0.,0.,1.));
#600=DIRECTION('',(1.,0.,0.));
#601=DIRECTION('',(0.,1.,0.));
#602=DIRECTION('',(0.,0.,1.));
#603=DIRECTION('',(0.,-1.,0.));
#604=DIRECTION('',(0.,0.,-1.));
#605=DIRECTION('',(1.,0.,0.));
#606=DIRECTION('',(0.,0.,-1.));
#607=DIRECTION('',(0.707106781186548,0.,-0.707106781186548));
#608=DIRECTION('',(1.,0.,0.));
#609=DIRECTION('',(-0.707106781186548,0.,-0.707106781186548));
#610=DIRECTION('',(0.,0.,-1.));
#611=DIRECTION('',(1.,0.,0.));
#612=DIRECTION('',(0.,-1.,0.));
#613=DIRECTION('',(0.,0.,-1.));
#614=DIRECTION('',(0.,-1.,0.));
#615=DIRECTION('',(0.,0.,-1.));
#616=DIRECTION('',(0.,-1.,0.));
#617=DIRECTION('',(0.,0.,-1.));
#618=DIRECTION('',(1.,0.,0.));
#619=DIRECTION('',(0.,0.,-1.));
#620=DIRECTION('',(1.,0.,0.));
#621=DIRECTION('',(0.,0.,-1.));
#622=DIRECTION('',(0.,0.,1.));
#623=DIRECTION('',(1.,0.,0.));
#624=DIRECTION('',(1.,0.,0.));
#625=DIRECTION('',(0.,0.,1.));
#626=DIRECTION('',(1.,0.,0.));
#627=DIRECTION('',(0.,-1.,0.));
#628=DIRECTION('',(0.,0.,1.));
#629=DIRECTION('',(1.,0.,0.));
#630=DIRECTION('',(0.,0.,1.));
#631=DIRECTION('',(1.,0.,0.));
#632=DIRECTION('',(0.,-1.,0.));
#633=DIRECTION('',(0.,0.,1.));
#634=DIRECTION('',(1.,0.,0.));
#635=DIRECTION('',(0.,-1.,0.));
#636=DIRECTION('',(0.,0.,-1.));
#637=DIRECTION('',(0.,-1.,0.));
#638=DIRECTION('',(0.,0.,-1.));
#639=DIRECTION('',(0.,-1.,0.));
#640=DIRECTION('',(0.,0.,-1.));
#641=DIRECTION('',(1.,0.,0.));
#642=DIRECTION('',(0.,0.,-1.));
#643=DIRECTION('',(0.,0.,-1.));
#644=DIRECTION('',(0.,0.,-1.));
#645=DIRECTION('',(-1.,0.,0.));
#646=DIRECTION('',(0.,-1.,0.));
#647=DIRECTION('',(1.,0.,0.));
#648=DIRECTION('',(0.,-1.,0.));
#649=DIRECTION('',(1.,0.,0.));
#650=DIRECTION('',(0.,-1.,0.));
#651=DIRECTION('',(0.,-1.,0.));
#652=DIRECTION('',(0.,0.,-1.));
#653=DIRECTION('',(-1.,0.,0.));
#654=DIRECTION('',(0.,0.,-1.));
#655=DIRECTION('',(-1.,0.,0.));
#656=DIRECTION('',(0.,1.,0.));
#657=DIRECTION('',(0.,0.,-1.));
#658=DIRECTION('',(-1.,0.,0.));
#659=DIRECTION('',(0.,0.,-1.));
#660=DIRECTION('',(-1.,0.,0.));
#661=DIRECTION('',(0.,1.,0.));
#662=DIRECTION('',(-1.,0.,0.));
#663=DIRECTION('',(0.,-1.,0.));
#664=DIRECTION('',(-1.,0.,0.));
#665=DIRECTION('',(0.,0.,1.));
#666=DIRECTION('',(-1.,0.,0.));
#667=DIRECTION('',(0.,0.,1.));
#668=DIRECTION('',(0.,0.,-1.));
#669=DIRECTION('',(0.,0.,-1.));
#670=DIRECTION('',(-1.,0.,0.));
#671=DIRECTION('',(0.,-1.,0.));
#672=DIRECTION('',(-1.,0.,0.));
#673=DIRECTION('',(0.,0.,1.));
#674=DIRECTION('',(-1.,0.,0.));
#675=DIRECTION('',(0.,0.,1.));
#676=DIRECTION('',(0.,0.,-1.));
#677=DIRECTION('',(0.,0.,-1.));
#678=DIRECTION('',(0.,0.,-1.));
#679=DIRECTION('',(-1.,0.,0.));
#680=DIRECTION('',(0.,0.,1.));
#681=DIRECTION('',(1.,0.,0.));
#682=DIRECTION('',(0.,0.,-1.));
#683=DIRECTION('',(-1.,0.,0.));
#684=DIRECTION('',(0.,0.,1.));
#685=DIRECTION('',(1.,0.,0.));
#686=DIRECTION('',(-1.,0.,0.));
#687=DIRECTION('',(0.,0.,1.));
#688=DIRECTION('',(-1.,0.,0.));
#689=DIRECTION('',(0.,0.,1.));
#690=DIRECTION('',(-1.,0.,0.));
#691=DIRECTION('',(0.,-1.,0.));
#692=DIRECTION('',(-1.,0.,0.));
#693=DIRECTION('',(0.,0.,1.));
#694=DIRECTION('',(-1.,0.,0.));
#695=DIRECTION('',(0.,0.,1.));
#696=DIRECTION('',(-1.,0.,0.));
#697=DIRECTION('',(0.,-1.,0.));
#698=DIRECTION('',(0.,-1.,0.));
#699=DIRECTION('',(0.,0.,-1.));
#700=DIRECTION('',(0.,-1.,0.));
#701=DIRECTION('',(0.,0.,-1.));
#702=DIRECTION('',(0.,-1.,0.));
#703=DIRECTION('',(1.,0.,0.));
#704=DIRECTION('',(0.,-1.,0.));
#705=DIRECTION('',(0.,0.,-1.));
#706=DIRECTION('',(0.,-1.,0.));
#707=DIRECTION('',(0.,0.,-1.));
#708=DIRECTION('',(0.,-1.,0.));
#709=DIRECTION('',(1.,0.,0.));
#710=DIRECTION('',(1.,0.,0.));
#711=DIRECTION('',(0.,0.,-1.));
#712=DIRECTION('',(-1.,0.,0.));
#713=DIRECTION('',(0.,0.,1.));
#714=DIRECTION('',(-1.,0.,0.));
#715=DIRECTION('',(0.,-1.,0.));
#716=DIRECTION('',(1.,0.,0.));
#717=DIRECTION('',(0.,0.,-1.));
#718=DIRECTION('',(-1.,0.,0.));
#719=DIRECTION('',(0.,0.,1.));
#720=DIRECTION('',(-1.,0.,0.));
#721=DIRECTION('',(0.,-1.,0.));
#722=DIRECTION('',(0.,1.,0.));
#723=DIRECTION('',(0.,0.,1.));
#724=DIRECTION('',(0.,-1.,0.));
#725=DIRECTION('',(0.,0.,-1.));
#726=DIRECTION('',(0.,-1.,0.));
#727=DIRECTION('',(1.,0.,0.));
#728=DIRECTION('',(0.,1.,0.));
#729=DIRECTION('',(0.,0.,1.));
#730=DIRECTION('',(0.,-1.,0.));
#731=DIRECTION('',(0.,0.,-1.));
#732=DIRECTION('',(0.,-1.,0.));
#733=DIRECTION('',(1.,0.,0.));
#734=DIRECTION('',(0.,1.,0.));
#735=DIRECTION('',(0.,0.,1.));
#736=DIRECTION('',(0.,1.,0.));
#737=DIRECTION('',(0.,0.,1.));
#738=DIRECTION('',(0.,0.,-1.));
#739=DIRECTION('',(0.707106781186548,0.,0.707106781186548));
#740=DIRECTION('',(1.,0.,0.));
#741=DIRECTION('',(-0.707106781186548,0.,0.707106781186548));
#742=DIRECTION('',(0.,0.,-1.));
#743=DIRECTION('',(1.,0.,0.));
#744=DIRECTION('',(0.,0.,-1.));
#745=DIRECTION('',(0.,1.,0.));
#746=DIRECTION('',(1.,0.,0.));
#747=DIRECTION('',(0.,0.,-1.));
#748=DIRECTION('',(0.,-1.,0.));
#749=DIRECTION('',(0.,0.,1.));
#750=DIRECTION('',(1.,0.,0.));
#751=DIRECTION('',(0.,-1.,0.));
#752=DIRECTION('',(0.,1.,0.));
#753=DIRECTION('',(-0.707106781186548,0.,0.707106781186548));
#754=DIRECTION('',(0.,1.,0.));
#755=DIRECTION('',(-0.707106781186548,0.,-0.707106781186548));
#756=DIRECTION('',(0.,-1.,0.));
#757=DIRECTION('',(0.,-1.,0.));
#758=DIRECTION('',(0.,0.,-1.));
#759=CARTESIAN_POINT('',(0.,0.,0.));
#760=CARTESIAN_POINT('',(-31.7676849055714,-9.42556540639271,3.5));
#761=CARTESIAN_POINT('',(-32.3176849055714,-9.42556540639271,2.75));
#762=CARTESIAN_POINT('',(-31.7676849055714,-9.42556540639271,2.75));
#763=CARTESIAN_POINT('',(-32.8676849055714,-9.42556540639271,2.75));
#764=CARTESIAN_POINT('',(-31.7676849055714,-9.42556540639271,2.75));
#765=CARTESIAN_POINT('',(-31.2176849055714,-9.42556540639271,2.75));
#766=CARTESIAN_POINT('',(-31.2176849055714,-9.42556540639271,3.5));
#767=CARTESIAN_POINT('',(-31.2176849055714,-9.42556540639271,3.25));
#768=CARTESIAN_POINT('',(-31.2176849055714,-9.42556540639271,3.25));
#769=CARTESIAN_POINT('',(-31.4676849055714,-9.42556540639271,3.5));
#770=CARTESIAN_POINT('',(-31.7676849055714,-9.42556540639271,3.5));
#771=CARTESIAN_POINT('',(-33.1676849055714,-9.42556540639271,3.5));
#772=CARTESIAN_POINT('',(-33.1676849055714,-9.42556540639271,3.5));
#773=CARTESIAN_POINT('',(-33.4176849055714,-9.42556540639271,3.25));
#774=CARTESIAN_POINT('',(-33.4176849055714,-9.42556540639271,3.5));
#775=CARTESIAN_POINT('',(-33.4176849055714,-9.42556540639271,2.75));
#776=CARTESIAN_POINT('',(-31.7676849055714,-9.42556540639271,2.75));
#777=CARTESIAN_POINT('',(-33.9176849055714,-7.7005654063927,2.75));
#778=CARTESIAN_POINT('',(-33.0676849055714,-7.7005654063927,2.625));
#779=CARTESIAN_POINT('',(-33.0676849055714,-7.7005654063927,2.55));
#780=CARTESIAN_POINT('',(-31.5676849055714,-7.7005654063927,2.625));
#781=CARTESIAN_POINT('',(-31.5676849055714,-7.7005654063927,2.55));
#782=CARTESIAN_POINT('',(-33.9176849055714,-7.7005654063927,2.5));
#783=CARTESIAN_POINT('',(-33.6676849055714,-7.7005654063927,2.5));
#784=CARTESIAN_POINT('',(-30.9676849055714,-7.7005654063927,2.5));
#785=CARTESIAN_POINT('',(-33.6676849055714,-7.7005654063927,2.75));
#786=CARTESIAN_POINT('',(-33.6676849055714,-7.7005654063927,2.75));
#787=CARTESIAN_POINT('',(-33.9176849055714,-7.7005654063927,2.75));
#788=CARTESIAN_POINT('',(-30.9676849055714,-7.7005654063927,2.75));
#789=CARTESIAN_POINT('',(-30.9676849055714,-7.7005654063927,2.75));
#790=CARTESIAN_POINT('',(-33.9176849055714,-9.3005654063927,2.5));
#791=CARTESIAN_POINT('',(-33.9176849055714,-10.9005654063927,2.5));
#792=CARTESIAN_POINT('',(-33.6676849055714,-10.9005654063927,2.5));
#793=CARTESIAN_POINT('',(-30.9676849055714,-10.9005654063927,2.5));
#794=CARTESIAN_POINT('',(-33.6676849055714,-10.6505654063927,2.5));
#795=CARTESIAN_POINT('',(-33.9176849055714,-10.6505654063927,2.5));
#796=CARTESIAN_POINT('',(-33.9176849055714,-9.3005654063927,2.5));
#797=CARTESIAN_POINT('',(-33.9176849055714,-7.9505654063927,2.5));
#798=CARTESIAN_POINT('',(-33.6676849055714,-7.9505654063927,2.5));
#799=CARTESIAN_POINT('',(-30.9676849055714,-7.9505654063927,2.5));
#800=CARTESIAN_POINT('',(-30.7176849055714,-7.9505654063927,2.5));
#801=CARTESIAN_POINT('',(-30.7176849055714,-9.3005654063927,2.5));
#802=CARTESIAN_POINT('',(-30.7176849055714,-10.6505654063927,2.5));
#803=CARTESIAN_POINT('',(-30.9676849055714,-10.6505654063927,2.5));
#804=CARTESIAN_POINT('',(-33.9176849055714,-10.9005654063927,2.75));
#805=CARTESIAN_POINT('',(-33.0676849055714,-10.9005654063927,2.625));
#806=CARTESIAN_POINT('',(-33.0676849055714,-10.9005654063927,2.55));
#807=CARTESIAN_POINT('',(-31.5676849055714,-10.9005654063927,2.625));
#808=CARTESIAN_POINT('',(-31.5676849055714,-10.9005654063927,2.55));
#809=CARTESIAN_POINT('',(-33.9176849055714,-10.9005654063927,2.75));
#810=CARTESIAN_POINT('',(-33.6676849055714,-10.9005654063927,2.75));
#811=CARTESIAN_POINT('',(-30.9676849055714,-10.9005654063927,2.75));
#812=CARTESIAN_POINT('',(-33.6676849055714,-10.9005654063927,2.75));
#813=CARTESIAN_POINT('',(-30.9676849055714,-10.9005654063927,2.75));
#814=CARTESIAN_POINT('',(-33.9176849055714,-9.3005654063927,2.75));
#815=CARTESIAN_POINT('',(-31.7676849055714,-6.92556540639271,2.75));
#816=CARTESIAN_POINT('',(-31.7676849055714,-9.17556540639271,2.75));
#817=CARTESIAN_POINT('',(-31.7676849055714,-9.17556540639271,2.75));
#818=CARTESIAN_POINT('',(-31.2176849055714,-9.17556540639271,2.75));
#819=CARTESIAN_POINT('',(-31.2176849055714,-9.23806540639271,2.75));
#820=CARTESIAN_POINT('',(-31.7676849055714,-9.17556540639271,2.75));
#821=CARTESIAN_POINT('',(-33.4176849055714,-9.17556540639271,2.75));
#822=CARTESIAN_POINT('',(-32.8676849055714,-9.17556540639271,2.75));
#823=CARTESIAN_POINT('',(-32.8676849055714,-6.92556540639271,2.75));
#824=CARTESIAN_POINT('',(-33.4176849055714,-9.23806540639271,2.75));
#825=CARTESIAN_POINT('',(-30.9676849055714,-7.9505654063927,2.75));
#826=CARTESIAN_POINT('',(-30.7176849055714,-7.9505654063927,2.75));
#827=CARTESIAN_POINT('',(-33.6676849055714,-7.9505654063927,2.75));
#828=CARTESIAN_POINT('',(-33.9176849055714,-7.9505654063927,2.75));
#829=CARTESIAN_POINT('',(-33.9176849055714,-9.3005654063927,2.75));
#830=CARTESIAN_POINT('',(-33.9176849055714,-10.6505654063927,2.75));
#831=CARTESIAN_POINT('',(-33.6676849055714,-10.6505654063927,2.75));
#832=CARTESIAN_POINT('',(-30.9676849055714,-10.6505654063927,2.75));
#833=CARTESIAN_POINT('',(-30.7176849055714,-10.6505654063927,2.75));
#834=CARTESIAN_POINT('',(-30.7176849055714,-9.3005654063927,2.75));
#835=CARTESIAN_POINT('',(-33.9176849055714,-9.3005654063927,1.5));
#836=CARTESIAN_POINT('',(-33.9176849055714,-8.5505654063927,2.625));
#837=CARTESIAN_POINT('',(-33.9176849055714,-8.5505654063927,2.7));
#838=CARTESIAN_POINT('',(-33.9176849055714,-10.0505654063927,2.625));
#839=CARTESIAN_POINT('',(-33.9176849055714,-10.0505654063927,2.7));
#840=CARTESIAN_POINT('',(-33.9176849055714,-10.6505654063927,1.5));
#841=CARTESIAN_POINT('',(-33.9176849055714,-7.9505654063927,2.5));
#842=CARTESIAN_POINT('',(-30.7176849055714,-9.3005654063927,1.5));
#843=CARTESIAN_POINT('',(-30.7176849055714,-8.5505654063927,2.625));
#844=CARTESIAN_POINT('',(-30.7176849055714,-8.5505654063927,2.7));
#845=CARTESIAN_POINT('',(-30.7176849055714,-10.0505654063927,2.625));
#846=CARTESIAN_POINT('',(-30.7176849055714,-10.0505654063927,2.7));
#847=CARTESIAN_POINT('',(-30.7176849055714,-7.9505654063927,1.5));
#848=CARTESIAN_POINT('',(-30.7176849055714,-10.6505654063927,2.5));
#849=CARTESIAN_POINT('',(-33.6676849055714,-10.6505654063927,2.75));
#850=CARTESIAN_POINT('',(-33.6676849055714,-7.9505654063927,1.5));
#851=CARTESIAN_POINT('',(-30.9676849055714,-7.9505654063927,2.75));
#852=CARTESIAN_POINT('',(-30.9676849055714,-10.6505654063927,1.5));
#853=CARTESIAN_POINT('',(-33.6676849055714,-10.0505654063927,2.625));
#854=CARTESIAN_POINT('',(-33.6676849055714,-10.0505654063927,2.625));
#855=CARTESIAN_POINT('',(-33.6676849055714,-10.0505654063927,2.7));
#856=CARTESIAN_POINT('',(-33.6676849055714,-9.3005654063927,1.375));
#857=CARTESIAN_POINT('',(-33.6676849055714,-8.5505654063927,2.625));
#858=CARTESIAN_POINT('',(-33.6676849055714,-8.5505654063927,2.625));
#859=CARTESIAN_POINT('',(-33.6676849055714,-8.5505654063927,2.7));
#860=CARTESIAN_POINT('',(-33.6676849055714,-9.3005654063927,1.375));
#861=CARTESIAN_POINT('',(-31.5676849055714,-10.6505654063927,2.625));
#862=CARTESIAN_POINT('',(-31.5676849055714,-10.6505654063927,2.625));
#863=CARTESIAN_POINT('',(-31.5676849055714,-10.6505654063927,2.55));
#864=CARTESIAN_POINT('',(-32.3176849055714,-10.6505654063927,1.375));
#865=CARTESIAN_POINT('',(-33.0676849055714,-10.6505654063927,2.625));
#866=CARTESIAN_POINT('',(-33.0676849055714,-10.6505654063927,2.625));
#867=CARTESIAN_POINT('',(-33.0676849055714,-10.6505654063927,2.55));
#868=CARTESIAN_POINT('',(-32.3176849055714,-10.6505654063927,1.375));
#869=CARTESIAN_POINT('',(-30.9676849055714,-10.0505654063927,2.625));
#870=CARTESIAN_POINT('',(-30.9676849055714,-10.0505654063927,2.625));
#871=CARTESIAN_POINT('',(-30.9676849055714,-10.0505654063927,2.7));
#872=CARTESIAN_POINT('',(-30.9676849055714,-9.3005654063927,1.375));
#873=CARTESIAN_POINT('',(-30.9676849055714,-8.5505654063927,2.625));
#874=CARTESIAN_POINT('',(-30.9676849055714,-8.5505654063927,2.625));
#875=CARTESIAN_POINT('',(-30.9676849055714,-8.5505654063927,2.7));
#876=CARTESIAN_POINT('',(-30.9676849055714,-9.3005654063927,1.375));
#877=CARTESIAN_POINT('',(-31.5676849055714,-7.9505654063927,2.625));
#878=CARTESIAN_POINT('',(-31.5676849055714,-7.9505654063927,2.625));
#879=CARTESIAN_POINT('',(-31.5676849055714,-7.9505654063927,2.55));
#880=CARTESIAN_POINT('',(-32.3176849055714,-7.9505654063927,1.375));
#881=CARTESIAN_POINT('',(-33.0676849055714,-7.9505654063927,2.625));
#882=CARTESIAN_POINT('',(-33.0676849055714,-7.9505654063927,2.625));
#883=CARTESIAN_POINT('',(-33.0676849055714,-7.9505654063927,2.55));
#884=CARTESIAN_POINT('',(-32.3176849055714,-7.9505654063927,1.375));
#885=CARTESIAN_POINT('',(-31.7676849055714,-9.17556540639271,3.5));
#886=CARTESIAN_POINT('',(-32.3176849055714,-9.17556540639271,2.75));
#887=CARTESIAN_POINT('',(-33.4176849055714,-9.17556540639271,3.5));
#888=CARTESIAN_POINT('',(-33.4176849055714,-9.17556540639271,3.25));
#889=CARTESIAN_POINT('',(-32.4676849055714,-9.17556540639271,4.2));
#890=CARTESIAN_POINT('',(-33.1676849055714,-9.17556540639271,3.5));
#891=CARTESIAN_POINT('',(-31.7676849055714,-9.17556540639271,3.5));
#892=CARTESIAN_POINT('',(-31.4676849055714,-9.17556540639271,3.5));
#893=CARTESIAN_POINT('',(-31.6176849055714,-9.17556540639271,3.65));
#894=CARTESIAN_POINT('',(-31.2176849055714,-9.17556540639271,3.25));
#895=CARTESIAN_POINT('',(-31.2176849055714,-9.17556540639271,3.5));
#896=CARTESIAN_POINT('',(-33.4176849055714,-9.23806540639271,3.5));
#897=CARTESIAN_POINT('',(-33.4176849055714,-9.17556540639271,3.25));
#898=CARTESIAN_POINT('',(-31.2176849055714,-9.23806540639271,3.5));
#899=CARTESIAN_POINT('',(-31.2176849055714,-9.23806540639271,3.25));
#900=CARTESIAN_POINT('',(-32.3176849055714,-9.3005654063927,3.5));
#901=CARTESIAN_POINT('',(-33.1676849055714,-9.42556540639271,3.5));
#902=CARTESIAN_POINT('',(-31.4676849055714,-9.3005654063927,3.5));
#903=CARTESIAN_POINT('',(-33.1676849055714,-9.3005654063927,3.5));
#904=CARTESIAN_POINT('',(-31.2176849055714,-9.23806540639271,3.25));
#905=CARTESIAN_POINT('',(-32.3176849055714,-6.92556540639271,2.75));
#906=MECHANICAL_DESIGN_GEOMETRIC_PRESENTATION_REPRESENTATION('',(#527),
#907);
#907=(
GEOMETRIC_REPRESENTATION_CONTEXT(3)
GLOBAL_UNCERTAINTY_ASSIGNED_CONTEXT((#908))
GLOBAL_UNIT_ASSIGNED_CONTEXT((#911,#910,#909))
REPRESENTATION_CONTEXT('CoolerCap','TOP_LEVEL_ASSEMBLY_PART')
);
#908=UNCERTAINTY_MEASURE_WITH_UNIT(LENGTH_MEASURE(1.E-6),#911,
'DISTANCE_ACCURACY_VALUE','Maximum Tolerance applied to model');
#909=(
NAMED_UNIT(*)
SI_UNIT($,.STERADIAN.)
SOLID_ANGLE_UNIT()
);
#910=(
NAMED_UNIT(*)
PLANE_ANGLE_UNIT()
SI_UNIT($,.RADIAN.)
);
#911=(
LENGTH_UNIT()
NAMED_UNIT(*)
SI_UNIT(.CENTI.,.METRE.)
);
#912=PRODUCT_DEFINITION_SHAPE('','',#913);
#913=PRODUCT_DEFINITION('','',#915,#914);
#914=PRODUCT_DEFINITION_CONTEXT('',#921,'design');
#915=PRODUCT_DEFINITION_FORMATION_WITH_SPECIFIED_SOURCE('','',#917,
 .NOT_KNOWN.);
#916=PRODUCT_RELATED_PRODUCT_CATEGORY('','',(#917));
#917=PRODUCT('CoolerCap','CoolerCap','CoolerCap',(#919));
#918=PRODUCT_CATEGORY('','');
#919=PRODUCT_CONTEXT('',#921,'mechanical');
#920=APPLICATION_PROTOCOL_DEFINITION('international standard',
'ap242_managed_model_based_3d_engineering',2020,#921);
#921=APPLICATION_CONTEXT('managed model based 3d engineering');
ENDSEC;
END-ISO-10303-21;
