ISO-10303-21;
HEADER;
/* Generated by software containing ST-Developer
 * from STEP Tools, Inc. (www.steptools.com) 
 */
/* OPTION: using custom renumber hook */

FILE_DESCRIPTION(
/* description */ ('STEP AP242 Edition 2',
'CAx-IF Rec.Pracs.---Representation and Presentation of Product Manufa
cturing Information (PMI)---4.0---2014-10-13',
'CAx-IF Rec.Pracs.---3D Tessellated Geometry---0.4---2014-09-14','2;1',
'CAx-IF Rec.Pracs.---User Defined Attributes---1.5---2016-08-15'),
/* implementation_level */ '2;1');

FILE_NAME(
/* name */ 'Part Studio 1 - CoolerBody',
/* time_stamp */ '2026-09-11T10:36:19Z',
/* author */ (''),
/* organization */ (''),
/* preprocessor_version */ 'ST-DEVELOPER v20',
/* originating_system */ 'ONSHAPE BY PTC INC, 1.220',
/* authorisation */ '  ');

FILE_SCHEMA (('AP242_MANAGED_MODEL_BASED_3D_ENGINEERING_MIM_LF { 1 0 10303 442 3 1 4 }'));
ENDSEC;

DATA;
#10=SHAPE_REPRESENTATION_RELATIONSHIP('','',#745,#11);
#11=ADVANCED_BREP_SHAPE_REPRESENTATION('',(#743),#1261);
#12=TOROIDAL_SURFACE('',#814,0.51375,0.25);
#13=TOROIDAL_SURFACE('',#815,0.51375,0.25);
#14=CYLINDRICAL_SURFACE('',#802,0.2125);
#15=CYLINDRICAL_SURFACE('',#804,0.26375);
#16=CYLINDRICAL_SURFACE('',#808,0.2125);
#17=CYLINDRICAL_SURFACE('',#810,0.26375);
#18=CYLINDRICAL_SURFACE('',#816,0.25);
#19=CYLINDRICAL_SURFACE('',#817,0.25);
#20=CYLINDRICAL_SURFACE('',#818,0.25);
#21=CYLINDRICAL_SURFACE('',#819,0.25);
#22=CYLINDRICAL_SURFACE('',#820,0.25);
#23=CYLINDRICAL_SURFACE('',#821,0.25);
#24=CYLINDRICAL_SURFACE('',#822,0.25);
#25=CYLINDRICAL_SURFACE('',#823,0.25);
#26=CYLINDRICAL_SURFACE('',#824,0.25);
#27=CYLINDRICAL_SURFACE('',#825,0.25);
#28=CYLINDRICAL_SURFACE('',#826,0.075);
#29=CYLINDRICAL_SURFACE('',#827,0.075);
#30=CYLINDRICAL_SURFACE('',#828,0.0749999999999973);
#31=CYLINDRICAL_SURFACE('',#829,0.0749999999999973);
#32=CYLINDRICAL_SURFACE('',#830,0.075);
#33=CYLINDRICAL_SURFACE('',#831,0.075);
#34=CYLINDRICAL_SURFACE('',#832,0.0749999999999973);
#35=CYLINDRICAL_SURFACE('',#833,0.0749999999999973);
#36=LINE('',#1062,#82);
#37=LINE('',#1065,#83);
#38=LINE('',#1067,#84);
#39=LINE('',#1069,#85);
#40=LINE('',#1075,#86);
#41=LINE('',#1078,#87);
#42=LINE('',#1080,#88);
#43=LINE('',#1082,#89);
#44=LINE('',#1092,#90);
#45=LINE('',#1095,#91);
#46=LINE('',#1097,#92);
#47=LINE('',#1099,#93);
#48=LINE('',#1105,#94);
#49=LINE('',#1108,#95);
#50=LINE('',#1110,#96);
#51=LINE('',#1112,#97);
#52=LINE('',#1127,#98);
#53=LINE('',#1130,#99);
#54=LINE('',#1132,#100);
#55=LINE('',#1134,#101);
#56=LINE('',#1136,#102);
#57=LINE('',#1138,#103);
#58=LINE('',#1140,#104);
#59=LINE('',#1142,#105);
#60=LINE('',#1148,#106);
#61=LINE('',#1151,#107);
#62=LINE('',#1153,#108);
#63=LINE('',#1155,#109);
#64=LINE('',#1161,#110);
#65=LINE('',#1164,#111);
#66=LINE('',#1166,#112);
#67=LINE('',#1168,#113);
#68=LINE('',#1174,#114);
#69=LINE('',#1177,#115);
#70=LINE('',#1179,#116);
#71=LINE('',#1181,#117);
#72=LINE('',#1192,#118);
#73=LINE('',#1195,#119);
#74=LINE('',#1197,#120);
#75=LINE('',#1199,#121);
#76=LINE('',#1203,#122);
#77=LINE('',#1204,#123);
#78=LINE('',#1208,#124);
#79=LINE('',#1210,#125);
#80=LINE('',#1212,#126);
#81=LINE('',#1214,#127);
#82=VECTOR('',#842,100.);
#83=VECTOR('',#843,100.);
#84=VECTOR('',#844,100.);
#85=VECTOR('',#845,100.);
#86=VECTOR('',#852,100.);
#87=VECTOR('',#853,100.);
#88=VECTOR('',#854,100.);
#89=VECTOR('',#855,100.);
#90=VECTOR('',#866,100.);
#91=VECTOR('',#867,100.);
#92=VECTOR('',#868,100.);
#93=VECTOR('',#869,100.);
#94=VECTOR('',#876,100.);
#95=VECTOR('',#877,100.);
#96=VECTOR('',#878,100.);
#97=VECTOR('',#879,100.);
#98=VECTOR('',#900,100.);
#99=VECTOR('',#901,100.);
#100=VECTOR('',#902,100.);
#101=VECTOR('',#903,100.);
#102=VECTOR('',#904,100.);
#103=VECTOR('',#905,100.);
#104=VECTOR('',#906,100.);
#105=VECTOR('',#907,100.);
#106=VECTOR('',#914,100.);
#107=VECTOR('',#915,100.);
#108=VECTOR('',#916,100.);
#109=VECTOR('',#917,100.);
#110=VECTOR('',#924,100.);
#111=VECTOR('',#925,100.);
#112=VECTOR('',#926,100.);
#113=VECTOR('',#927,100.);
#114=VECTOR('',#934,100.);
#115=VECTOR('',#935,100.);
#116=VECTOR('',#936,100.);
#117=VECTOR('',#937,100.);
#118=VECTOR('',#958,100.);
#119=VECTOR('',#959,100.);
#120=VECTOR('',#960,100.);
#121=VECTOR('',#961,100.);
#122=VECTOR('',#966,100.);
#123=VECTOR('',#967,100.);
#124=VECTOR('',#972,100.);
#125=VECTOR('',#973,100.);
#126=VECTOR('',#976,100.);
#127=VECTOR('',#977,100.);
#128=ORIENTED_EDGE('',*,*,#312,.T.);
#129=ORIENTED_EDGE('',*,*,#313,.T.);
#130=ORIENTED_EDGE('',*,*,#314,.F.);
#131=ORIENTED_EDGE('',*,*,#315,.T.);
#132=ORIENTED_EDGE('',*,*,#316,.T.);
#133=ORIENTED_EDGE('',*,*,#317,.T.);
#134=ORIENTED_EDGE('',*,*,#318,.T.);
#135=ORIENTED_EDGE('',*,*,#319,.T.);
#136=ORIENTED_EDGE('',*,*,#320,.F.);
#137=ORIENTED_EDGE('',*,*,#321,.T.);
#138=ORIENTED_EDGE('',*,*,#322,.T.);
#139=ORIENTED_EDGE('',*,*,#323,.T.);
#140=ORIENTED_EDGE('',*,*,#324,.F.);
#141=ORIENTED_EDGE('',*,*,#325,.F.);
#142=ORIENTED_EDGE('',*,*,#326,.T.);
#143=ORIENTED_EDGE('',*,*,#327,.T.);
#144=ORIENTED_EDGE('',*,*,#328,.F.);
#145=ORIENTED_EDGE('',*,*,#329,.T.);
#146=ORIENTED_EDGE('',*,*,#330,.T.);
#147=ORIENTED_EDGE('',*,*,#331,.T.);
#148=ORIENTED_EDGE('',*,*,#332,.F.);
#149=ORIENTED_EDGE('',*,*,#333,.F.);
#150=ORIENTED_EDGE('',*,*,#334,.T.);
#151=ORIENTED_EDGE('',*,*,#335,.T.);
#152=ORIENTED_EDGE('',*,*,#336,.F.);
#153=ORIENTED_EDGE('',*,*,#337,.T.);
#154=ORIENTED_EDGE('',*,*,#336,.T.);
#155=ORIENTED_EDGE('',*,*,#338,.T.);
#156=ORIENTED_EDGE('',*,*,#328,.T.);
#157=ORIENTED_EDGE('',*,*,#339,.T.);
#158=ORIENTED_EDGE('',*,*,#322,.F.);
#159=ORIENTED_EDGE('',*,*,#340,.T.);
#160=ORIENTED_EDGE('',*,*,#316,.F.);
#161=ORIENTED_EDGE('',*,*,#341,.T.);
#162=ORIENTED_EDGE('',*,*,#342,.F.);
#163=ORIENTED_EDGE('',*,*,#343,.F.);
#164=ORIENTED_EDGE('',*,*,#344,.F.);
#165=ORIENTED_EDGE('',*,*,#345,.F.);
#166=ORIENTED_EDGE('',*,*,#346,.F.);
#167=ORIENTED_EDGE('',*,*,#347,.T.);
#168=ORIENTED_EDGE('',*,*,#348,.T.);
#169=ORIENTED_EDGE('',*,*,#349,.T.);
#170=ORIENTED_EDGE('',*,*,#350,.F.);
#171=ORIENTED_EDGE('',*,*,#351,.T.);
#172=ORIENTED_EDGE('',*,*,#352,.T.);
#173=ORIENTED_EDGE('',*,*,#353,.T.);
#174=ORIENTED_EDGE('',*,*,#354,.T.);
#175=ORIENTED_EDGE('',*,*,#355,.T.);
#176=ORIENTED_EDGE('',*,*,#356,.F.);
#177=ORIENTED_EDGE('',*,*,#357,.T.);
#178=ORIENTED_EDGE('',*,*,#358,.T.);
#179=ORIENTED_EDGE('',*,*,#359,.T.);
#180=ORIENTED_EDGE('',*,*,#360,.T.);
#181=ORIENTED_EDGE('',*,*,#361,.T.);
#182=ORIENTED_EDGE('',*,*,#362,.T.);
#183=ORIENTED_EDGE('',*,*,#363,.T.);
#184=ORIENTED_EDGE('',*,*,#364,.F.);
#185=ORIENTED_EDGE('',*,*,#365,.T.);
#186=ORIENTED_EDGE('',*,*,#366,.F.);
#187=ORIENTED_EDGE('',*,*,#367,.F.);
#188=ORIENTED_EDGE('',*,*,#368,.T.);
#189=ORIENTED_EDGE('',*,*,#369,.T.);
#190=ORIENTED_EDGE('',*,*,#370,.F.);
#191=ORIENTED_EDGE('',*,*,#371,.T.);
#192=ORIENTED_EDGE('',*,*,#352,.F.);
#193=ORIENTED_EDGE('',*,*,#372,.T.);
#194=ORIENTED_EDGE('',*,*,#358,.F.);
#195=ORIENTED_EDGE('',*,*,#373,.T.);
#196=ORIENTED_EDGE('',*,*,#362,.F.);
#197=ORIENTED_EDGE('',*,*,#374,.T.);
#198=ORIENTED_EDGE('',*,*,#368,.F.);
#199=ORIENTED_EDGE('',*,*,#375,.T.);
#200=ORIENTED_EDGE('',*,*,#330,.F.);
#201=ORIENTED_EDGE('',*,*,#376,.T.);
#202=ORIENTED_EDGE('',*,*,#334,.F.);
#203=ORIENTED_EDGE('',*,*,#377,.T.);
#204=ORIENTED_EDGE('',*,*,#314,.T.);
#205=ORIENTED_EDGE('',*,*,#378,.T.);
#206=ORIENTED_EDGE('',*,*,#320,.T.);
#207=ORIENTED_EDGE('',*,*,#379,.T.);
#208=ORIENTED_EDGE('',*,*,#380,.T.);
#209=ORIENTED_EDGE('',*,*,#381,.T.);
#210=ORIENTED_EDGE('',*,*,#382,.F.);
#211=ORIENTED_EDGE('',*,*,#383,.T.);
#212=ORIENTED_EDGE('',*,*,#348,.F.);
#213=ORIENTED_EDGE('',*,*,#384,.T.);
#214=ORIENTED_EDGE('',*,*,#385,.F.);
#215=ORIENTED_EDGE('',*,*,#383,.F.);
#216=ORIENTED_EDGE('',*,*,#386,.T.);
#217=ORIENTED_EDGE('',*,*,#387,.T.);
#218=ORIENTED_EDGE('',*,*,#388,.F.);
#219=ORIENTED_EDGE('',*,*,#389,.T.);
#220=ORIENTED_EDGE('',*,*,#386,.F.);
#221=ORIENTED_EDGE('',*,*,#382,.T.);
#222=ORIENTED_EDGE('',*,*,#385,.T.);
#223=ORIENTED_EDGE('',*,*,#390,.T.);
#224=ORIENTED_EDGE('',*,*,#391,.T.);
#225=ORIENTED_EDGE('',*,*,#380,.F.);
#226=ORIENTED_EDGE('',*,*,#364,.T.);
#227=ORIENTED_EDGE('',*,*,#392,.T.);
#228=ORIENTED_EDGE('',*,*,#356,.T.);
#229=ORIENTED_EDGE('',*,*,#393,.T.);
#230=ORIENTED_EDGE('',*,*,#350,.T.);
#231=ORIENTED_EDGE('',*,*,#394,.T.);
#232=ORIENTED_EDGE('',*,*,#388,.T.);
#233=ORIENTED_EDGE('',*,*,#381,.F.);
#234=ORIENTED_EDGE('',*,*,#391,.F.);
#235=ORIENTED_EDGE('',*,*,#395,.T.);
#236=ORIENTED_EDGE('',*,*,#346,.T.);
#237=ORIENTED_EDGE('',*,*,#396,.T.);
#238=ORIENTED_EDGE('',*,*,#370,.T.);
#239=ORIENTED_EDGE('',*,*,#397,.T.);
#240=ORIENTED_EDGE('',*,*,#398,.T.);
#241=ORIENTED_EDGE('',*,*,#345,.T.);
#242=ORIENTED_EDGE('',*,*,#399,.T.);
#243=ORIENTED_EDGE('',*,*,#400,.F.);
#244=ORIENTED_EDGE('',*,*,#398,.F.);
#245=ORIENTED_EDGE('',*,*,#400,.T.);
#246=ORIENTED_EDGE('',*,*,#401,.T.);
#247=ORIENTED_EDGE('',*,*,#344,.T.);
#248=ORIENTED_EDGE('',*,*,#402,.T.);
#249=ORIENTED_EDGE('',*,*,#403,.F.);
#250=ORIENTED_EDGE('',*,*,#401,.F.);
#251=ORIENTED_EDGE('',*,*,#403,.T.);
#252=ORIENTED_EDGE('',*,*,#326,.F.);
#253=ORIENTED_EDGE('',*,*,#399,.F.);
#254=ORIENTED_EDGE('',*,*,#327,.F.);
#255=ORIENTED_EDGE('',*,*,#402,.F.);
#256=ORIENTED_EDGE('',*,*,#376,.F.);
#257=ORIENTED_EDGE('',*,*,#329,.F.);
#258=ORIENTED_EDGE('',*,*,#338,.F.);
#259=ORIENTED_EDGE('',*,*,#335,.F.);
#260=ORIENTED_EDGE('',*,*,#377,.F.);
#261=ORIENTED_EDGE('',*,*,#337,.F.);
#262=ORIENTED_EDGE('',*,*,#341,.F.);
#263=ORIENTED_EDGE('',*,*,#315,.F.);
#264=ORIENTED_EDGE('',*,*,#378,.F.);
#265=ORIENTED_EDGE('',*,*,#317,.F.);
#266=ORIENTED_EDGE('',*,*,#340,.F.);
#267=ORIENTED_EDGE('',*,*,#321,.F.);
#268=ORIENTED_EDGE('',*,*,#379,.F.);
#269=ORIENTED_EDGE('',*,*,#323,.F.);
#270=ORIENTED_EDGE('',*,*,#339,.F.);
#271=ORIENTED_EDGE('',*,*,#331,.F.);
#272=ORIENTED_EDGE('',*,*,#373,.F.);
#273=ORIENTED_EDGE('',*,*,#357,.F.);
#274=ORIENTED_EDGE('',*,*,#392,.F.);
#275=ORIENTED_EDGE('',*,*,#363,.F.);
#276=ORIENTED_EDGE('',*,*,#395,.F.);
#277=ORIENTED_EDGE('',*,*,#390,.F.);
#278=ORIENTED_EDGE('',*,*,#384,.F.);
#279=ORIENTED_EDGE('',*,*,#347,.F.);
#280=ORIENTED_EDGE('',*,*,#374,.F.);
#281=ORIENTED_EDGE('',*,*,#365,.F.);
#282=ORIENTED_EDGE('',*,*,#397,.F.);
#283=ORIENTED_EDGE('',*,*,#369,.F.);
#284=ORIENTED_EDGE('',*,*,#375,.F.);
#285=ORIENTED_EDGE('',*,*,#371,.F.);
#286=ORIENTED_EDGE('',*,*,#396,.F.);
#287=ORIENTED_EDGE('',*,*,#353,.F.);
#288=ORIENTED_EDGE('',*,*,#394,.F.);
#289=ORIENTED_EDGE('',*,*,#349,.F.);
#290=ORIENTED_EDGE('',*,*,#387,.F.);
#291=ORIENTED_EDGE('',*,*,#389,.F.);
#292=ORIENTED_EDGE('',*,*,#372,.F.);
#293=ORIENTED_EDGE('',*,*,#351,.F.);
#294=ORIENTED_EDGE('',*,*,#393,.F.);
#295=ORIENTED_EDGE('',*,*,#359,.F.);
#296=ORIENTED_EDGE('',*,*,#343,.T.);
#297=ORIENTED_EDGE('',*,*,#325,.T.);
#298=ORIENTED_EDGE('',*,*,#342,.T.);
#299=ORIENTED_EDGE('',*,*,#324,.T.);
#300=ORIENTED_EDGE('',*,*,#367,.T.);
#301=ORIENTED_EDGE('',*,*,#333,.T.);
#302=ORIENTED_EDGE('',*,*,#366,.T.);
#303=ORIENTED_EDGE('',*,*,#332,.T.);
#304=ORIENTED_EDGE('',*,*,#361,.F.);
#305=ORIENTED_EDGE('',*,*,#313,.F.);
#306=ORIENTED_EDGE('',*,*,#360,.F.);
#307=ORIENTED_EDGE('',*,*,#312,.F.);
#308=ORIENTED_EDGE('',*,*,#355,.F.);
#309=ORIENTED_EDGE('',*,*,#319,.F.);
#310=ORIENTED_EDGE('',*,*,#354,.F.);
#311=ORIENTED_EDGE('',*,*,#318,.F.);
#312=EDGE_CURVE('',#404,#404,#474,.T.);
#313=EDGE_CURVE('',#405,#405,#475,.T.);
#314=EDGE_CURVE('',#406,#407,#36,.T.);
#315=EDGE_CURVE('',#406,#408,#37,.T.);
#316=EDGE_CURVE('',#408,#409,#38,.T.);
#317=EDGE_CURVE('',#409,#407,#39,.F.);
#318=EDGE_CURVE('',#410,#410,#476,.T.);
#319=EDGE_CURVE('',#411,#411,#477,.T.);
#320=EDGE_CURVE('',#412,#413,#40,.T.);
#321=EDGE_CURVE('',#412,#414,#41,.T.);
#322=EDGE_CURVE('',#414,#415,#42,.T.);
#323=EDGE_CURVE('',#415,#413,#43,.F.);
#324=EDGE_CURVE('',#416,#416,#478,.T.);
#325=EDGE_CURVE('',#417,#417,#479,.T.);
#326=EDGE_CURVE('',#418,#418,#480,.F.);
#327=EDGE_CURVE('',#419,#419,#481,.F.);
#328=EDGE_CURVE('',#420,#421,#44,.T.);
#329=EDGE_CURVE('',#420,#422,#45,.F.);
#330=EDGE_CURVE('',#422,#423,#46,.T.);
#331=EDGE_CURVE('',#423,#421,#47,.T.);
#332=EDGE_CURVE('',#424,#424,#482,.T.);
#333=EDGE_CURVE('',#425,#425,#483,.T.);
#334=EDGE_CURVE('',#426,#427,#48,.T.);
#335=EDGE_CURVE('',#427,#428,#49,.T.);
#336=EDGE_CURVE('',#429,#428,#50,.T.);
#337=EDGE_CURVE('',#429,#426,#51,.F.);
#338=EDGE_CURVE('',#428,#420,#484,.F.);
#339=EDGE_CURVE('',#421,#415,#485,.F.);
#340=EDGE_CURVE('',#414,#409,#486,.F.);
#341=EDGE_CURVE('',#408,#429,#487,.F.);
#342=EDGE_CURVE('',#430,#430,#488,.T.);
#343=EDGE_CURVE('',#431,#431,#489,.T.);
#344=EDGE_CURVE('',#432,#432,#490,.T.);
#345=EDGE_CURVE('',#433,#433,#491,.T.);
#346=EDGE_CURVE('',#434,#435,#52,.T.);
#347=EDGE_CURVE('',#434,#436,#53,.T.);
#348=EDGE_CURVE('',#436,#437,#54,.T.);
#349=EDGE_CURVE('',#437,#438,#55,.F.);
#350=EDGE_CURVE('',#439,#438,#56,.T.);
#351=EDGE_CURVE('',#439,#440,#57,.F.);
#352=EDGE_CURVE('',#440,#441,#58,.T.);
#353=EDGE_CURVE('',#441,#435,#59,.T.);
#354=EDGE_CURVE('',#442,#442,#492,.F.);
#355=EDGE_CURVE('',#443,#443,#493,.F.);
#356=EDGE_CURVE('',#444,#445,#60,.T.);
#357=EDGE_CURVE('',#444,#446,#61,.F.);
#358=EDGE_CURVE('',#446,#447,#62,.T.);
#359=EDGE_CURVE('',#447,#445,#63,.T.);
#360=EDGE_CURVE('',#448,#448,#494,.F.);
#361=EDGE_CURVE('',#449,#449,#495,.F.);
#362=EDGE_CURVE('',#450,#451,#64,.T.);
#363=EDGE_CURVE('',#451,#452,#65,.T.);
#364=EDGE_CURVE('',#453,#452,#66,.T.);
#365=EDGE_CURVE('',#453,#450,#67,.F.);
#366=EDGE_CURVE('',#454,#454,#496,.T.);
#367=EDGE_CURVE('',#455,#455,#497,.T.);
#368=EDGE_CURVE('',#456,#457,#68,.T.);
#369=EDGE_CURVE('',#457,#458,#69,.T.);
#370=EDGE_CURVE('',#459,#458,#70,.T.);
#371=EDGE_CURVE('',#459,#456,#71,.F.);
#372=EDGE_CURVE('',#440,#447,#498,.F.);
#373=EDGE_CURVE('',#446,#451,#499,.F.);
#374=EDGE_CURVE('',#450,#457,#500,.F.);
#375=EDGE_CURVE('',#456,#441,#501,.F.);
#376=EDGE_CURVE('',#422,#427,#502,.T.);
#377=EDGE_CURVE('',#426,#406,#503,.T.);
#378=EDGE_CURVE('',#407,#412,#504,.T.);
#379=EDGE_CURVE('',#413,#423,#505,.T.);
#380=EDGE_CURVE('',#460,#461,#72,.T.);
#381=EDGE_CURVE('',#461,#462,#73,.T.);
#382=EDGE_CURVE('',#463,#462,#74,.T.);
#383=EDGE_CURVE('',#463,#460,#75,.T.);
#384=EDGE_CURVE('',#436,#464,#506,.F.);
#385=EDGE_CURVE('',#460,#464,#76,.T.);
#386=EDGE_CURVE('',#463,#465,#77,.T.);
#387=EDGE_CURVE('',#465,#437,#507,.F.);
#388=EDGE_CURVE('',#466,#462,#78,.T.);
#389=EDGE_CURVE('',#466,#465,#79,.T.);
#390=EDGE_CURVE('',#464,#467,#80,.F.);
#391=EDGE_CURVE('',#467,#461,#81,.T.);
#392=EDGE_CURVE('',#452,#444,#508,.T.);
#393=EDGE_CURVE('',#445,#439,#509,.T.);
#394=EDGE_CURVE('',#438,#466,#510,.T.);
#395=EDGE_CURVE('',#467,#434,#511,.T.);
#396=EDGE_CURVE('',#435,#459,#512,.T.);
#397=EDGE_CURVE('',#458,#453,#513,.T.);
#398=EDGE_CURVE('',#468,#468,#514,.T.);
#399=EDGE_CURVE('',#469,#469,#515,.T.);
#400=EDGE_CURVE('',#470,#470,#516,.T.);
#401=EDGE_CURVE('',#471,#471,#517,.T.);
#402=EDGE_CURVE('',#472,#472,#518,.T.);
#403=EDGE_CURVE('',#473,#473,#519,.T.);
#404=VERTEX_POINT('',#1059);
#405=VERTEX_POINT('',#1061);
#406=VERTEX_POINT('',#1063);
#407=VERTEX_POINT('',#1064);
#408=VERTEX_POINT('',#1066);
#409=VERTEX_POINT('',#1068);
#410=VERTEX_POINT('',#1072);
#411=VERTEX_POINT('',#1074);
#412=VERTEX_POINT('',#1076);
#413=VERTEX_POINT('',#1077);
#414=VERTEX_POINT('',#1079);
#415=VERTEX_POINT('',#1081);
#416=VERTEX_POINT('',#1085);
#417=VERTEX_POINT('',#1087);
#418=VERTEX_POINT('',#1089);
#419=VERTEX_POINT('',#1091);
#420=VERTEX_POINT('',#1093);
#421=VERTEX_POINT('',#1094);
#422=VERTEX_POINT('',#1096);
#423=VERTEX_POINT('',#1098);
#424=VERTEX_POINT('',#1102);
#425=VERTEX_POINT('',#1104);
#426=VERTEX_POINT('',#1106);
#427=VERTEX_POINT('',#1107);
#428=VERTEX_POINT('',#1109);
#429=VERTEX_POINT('',#1111);
#430=VERTEX_POINT('',#1120);
#431=VERTEX_POINT('',#1122);
#432=VERTEX_POINT('',#1124);
#433=VERTEX_POINT('',#1126);
#434=VERTEX_POINT('',#1128);
#435=VERTEX_POINT('',#1129);
#436=VERTEX_POINT('',#1131);
#437=VERTEX_POINT('',#1133);
#438=VERTEX_POINT('',#1135);
#439=VERTEX_POINT('',#1137);
#440=VERTEX_POINT('',#1139);
#441=VERTEX_POINT('',#1141);
#442=VERTEX_POINT('',#1145);
#443=VERTEX_POINT('',#1147);
#444=VERTEX_POINT('',#1149);
#445=VERTEX_POINT('',#1150);
#446=VERTEX_POINT('',#1152);
#447=VERTEX_POINT('',#1154);
#448=VERTEX_POINT('',#1158);
#449=VERTEX_POINT('',#1160);
#450=VERTEX_POINT('',#1162);
#451=VERTEX_POINT('',#1163);
#452=VERTEX_POINT('',#1165);
#453=VERTEX_POINT('',#1167);
#454=VERTEX_POINT('',#1171);
#455=VERTEX_POINT('',#1173);
#456=VERTEX_POINT('',#1175);
#457=VERTEX_POINT('',#1176);
#458=VERTEX_POINT('',#1178);
#459=VERTEX_POINT('',#1180);
#460=VERTEX_POINT('',#1193);
#461=VERTEX_POINT('',#1194);
#462=VERTEX_POINT('',#1196);
#463=VERTEX_POINT('',#1198);
#464=VERTEX_POINT('',#1202);
#465=VERTEX_POINT('',#1205);
#466=VERTEX_POINT('',#1209);
#467=VERTEX_POINT('',#1213);
#468=VERTEX_POINT('',#1224);
#469=VERTEX_POINT('',#1227);
#470=VERTEX_POINT('',#1229);
#471=VERTEX_POINT('',#1233);
#472=VERTEX_POINT('',#1236);
#473=VERTEX_POINT('',#1238);
#474=CIRCLE('',#748,0.075);
#475=CIRCLE('',#749,0.075);
#476=CIRCLE('',#751,0.0749999999999973);
#477=CIRCLE('',#752,0.0749999999999973);
#478=CIRCLE('',#754,0.075);
#479=CIRCLE('',#755,0.075);
#480=CIRCLE('',#756,0.51375);
#481=CIRCLE('',#757,0.51375);
#482=CIRCLE('',#759,0.0749999999999973);
#483=CIRCLE('',#760,0.0749999999999973);
#484=CIRCLE('',#762,0.25);
#485=CIRCLE('',#763,0.25);
#486=CIRCLE('',#764,0.25);
#487=CIRCLE('',#765,0.25);
#488=CIRCLE('',#767,0.075);
#489=CIRCLE('',#768,0.075);
#490=CIRCLE('',#769,0.2125);
#491=CIRCLE('',#770,0.2125);
#492=CIRCLE('',#772,0.0749999999999973);
#493=CIRCLE('',#773,0.0749999999999973);
#494=CIRCLE('',#775,0.075);
#495=CIRCLE('',#776,0.075);
#496=CIRCLE('',#778,0.0749999999999973);
#497=CIRCLE('',#779,0.0749999999999973);
#498=CIRCLE('',#781,0.25);
#499=CIRCLE('',#782,0.25);
#500=CIRCLE('',#783,0.25);
#501=CIRCLE('',#784,0.25);
#502=CIRCLE('',#785,0.25);
#503=CIRCLE('',#786,0.25);
#504=CIRCLE('',#787,0.25);
#505=CIRCLE('',#788,0.25);
#506=CIRCLE('',#791,0.25);
#507=CIRCLE('',#792,0.25);
#508=CIRCLE('',#796,0.25);
#509=CIRCLE('',#797,0.25);
#510=CIRCLE('',#798,0.25);
#511=CIRCLE('',#799,0.25);
#512=CIRCLE('',#800,0.25);
#513=CIRCLE('',#801,0.25);
#514=CIRCLE('',#803,0.2125);
#515=CIRCLE('',#805,0.26375);
#516=CIRCLE('',#806,0.26375);
#517=CIRCLE('',#809,0.2125);
#518=CIRCLE('',#811,0.26375);
#519=CIRCLE('',#812,0.26375);
#520=EDGE_LOOP('',(#128));
#521=EDGE_LOOP('',(#129));
#522=EDGE_LOOP('',(#130,#131,#132,#133));
#523=EDGE_LOOP('',(#134));
#524=EDGE_LOOP('',(#135));
#525=EDGE_LOOP('',(#136,#137,#138,#139));
#526=EDGE_LOOP('',(#140));
#527=EDGE_LOOP('',(#141));
#528=EDGE_LOOP('',(#142));
#529=EDGE_LOOP('',(#143));
#530=EDGE_LOOP('',(#144,#145,#146,#147));
#531=EDGE_LOOP('',(#148));
#532=EDGE_LOOP('',(#149));
#533=EDGE_LOOP('',(#150,#151,#152,#153));
#534=EDGE_LOOP('',(#154,#155,#156,#157,#158,#159,#160,#161));
#535=EDGE_LOOP('',(#162));
#536=EDGE_LOOP('',(#163));
#537=EDGE_LOOP('',(#164));
#538=EDGE_LOOP('',(#165));
#539=EDGE_LOOP('',(#166,#167,#168,#169,#170,#171,#172,#173));
#540=EDGE_LOOP('',(#174));
#541=EDGE_LOOP('',(#175));
#542=EDGE_LOOP('',(#176,#177,#178,#179));
#543=EDGE_LOOP('',(#180));
#544=EDGE_LOOP('',(#181));
#545=EDGE_LOOP('',(#182,#183,#184,#185));
#546=EDGE_LOOP('',(#186));
#547=EDGE_LOOP('',(#187));
#548=EDGE_LOOP('',(#188,#189,#190,#191));
#549=EDGE_LOOP('',(#192,#193,#194,#195,#196,#197,#198,#199));
#550=EDGE_LOOP('',(#200,#201,#202,#203,#204,#205,#206,#207));
#551=EDGE_LOOP('',(#208,#209,#210,#211));
#552=EDGE_LOOP('',(#212,#213,#214,#215,#216,#217));
#553=EDGE_LOOP('',(#218,#219,#220,#221));
#554=EDGE_LOOP('',(#222,#223,#224,#225));
#555=EDGE_LOOP('',(#226,#227,#228,#229,#230,#231,#232,#233,#234,#235,#236,
#237,#238,#239));
#556=EDGE_LOOP('',(#240));
#557=EDGE_LOOP('',(#241));
#558=EDGE_LOOP('',(#242));
#559=EDGE_LOOP('',(#243));
#560=EDGE_LOOP('',(#244));
#561=EDGE_LOOP('',(#245));
#562=EDGE_LOOP('',(#246));
#563=EDGE_LOOP('',(#247));
#564=EDGE_LOOP('',(#248));
#565=EDGE_LOOP('',(#249));
#566=EDGE_LOOP('',(#250));
#567=EDGE_LOOP('',(#251));
#568=EDGE_LOOP('',(#252));
#569=EDGE_LOOP('',(#253));
#570=EDGE_LOOP('',(#254));
#571=EDGE_LOOP('',(#255));
#572=EDGE_LOOP('',(#256,#257,#258,#259));
#573=EDGE_LOOP('',(#260,#261,#262,#263));
#574=EDGE_LOOP('',(#264,#265,#266,#267));
#575=EDGE_LOOP('',(#268,#269,#270,#271));
#576=EDGE_LOOP('',(#272,#273,#274,#275));
#577=EDGE_LOOP('',(#276,#277,#278,#279));
#578=EDGE_LOOP('',(#280,#281,#282,#283));
#579=EDGE_LOOP('',(#284,#285,#286,#287));
#580=EDGE_LOOP('',(#288,#289,#290,#291));
#581=EDGE_LOOP('',(#292,#293,#294,#295));
#582=EDGE_LOOP('',(#296));
#583=EDGE_LOOP('',(#297));
#584=EDGE_LOOP('',(#298));
#585=EDGE_LOOP('',(#299));
#586=EDGE_LOOP('',(#300));
#587=EDGE_LOOP('',(#301));
#588=EDGE_LOOP('',(#302));
#589=EDGE_LOOP('',(#303));
#590=EDGE_LOOP('',(#304));
#591=EDGE_LOOP('',(#305));
#592=EDGE_LOOP('',(#306));
#593=EDGE_LOOP('',(#307));
#594=EDGE_LOOP('',(#308));
#595=EDGE_LOOP('',(#309));
#596=EDGE_LOOP('',(#310));
#597=EDGE_LOOP('',(#311));
#598=FACE_BOUND('',#520,.T.);
#599=FACE_BOUND('',#521,.T.);
#600=FACE_BOUND('',#522,.T.);
#601=FACE_BOUND('',#523,.T.);
#602=FACE_BOUND('',#524,.T.);
#603=FACE_BOUND('',#525,.T.);
#604=FACE_BOUND('',#526,.T.);
#605=FACE_BOUND('',#527,.T.);
#606=FACE_BOUND('',#528,.T.);
#607=FACE_BOUND('',#529,.T.);
#608=FACE_BOUND('',#530,.T.);
#609=FACE_BOUND('',#531,.T.);
#610=FACE_BOUND('',#532,.T.);
#611=FACE_BOUND('',#533,.T.);
#612=FACE_BOUND('',#534,.T.);
#613=FACE_BOUND('',#535,.T.);
#614=FACE_BOUND('',#536,.T.);
#615=FACE_BOUND('',#537,.T.);
#616=FACE_BOUND('',#538,.T.);
#617=FACE_BOUND('',#539,.T.);
#618=FACE_BOUND('',#540,.T.);
#619=FACE_BOUND('',#541,.T.);
#620=FACE_BOUND('',#542,.T.);
#621=FACE_BOUND('',#543,.T.);
#622=FACE_BOUND('',#544,.T.);
#623=FACE_BOUND('',#545,.T.);
#624=FACE_BOUND('',#546,.T.);
#625=FACE_BOUND('',#547,.T.);
#626=FACE_BOUND('',#548,.T.);
#627=FACE_BOUND('',#549,.T.);
#628=FACE_BOUND('',#550,.T.);
#629=FACE_BOUND('',#551,.T.);
#630=FACE_BOUND('',#552,.T.);
#631=FACE_BOUND('',#553,.T.);
#632=FACE_BOUND('',#554,.T.);
#633=FACE_BOUND('',#555,.T.);
#634=FACE_BOUND('',#556,.T.);
#635=FACE_BOUND('',#557,.T.);
#636=FACE_BOUND('',#558,.T.);
#637=FACE_BOUND('',#559,.T.);
#638=FACE_BOUND('',#560,.T.);
#639=FACE_BOUND('',#561,.T.);
#640=FACE_BOUND('',#562,.T.);
#641=FACE_BOUND('',#563,.T.);
#642=FACE_BOUND('',#564,.T.);
#643=FACE_BOUND('',#565,.T.);
#644=FACE_BOUND('',#566,.T.);
#645=FACE_BOUND('',#567,.T.);
#646=FACE_BOUND('',#568,.T.);
#647=FACE_BOUND('',#569,.T.);
#648=FACE_BOUND('',#570,.T.);
#649=FACE_BOUND('',#571,.T.);
#650=FACE_BOUND('',#572,.T.);
#651=FACE_BOUND('',#573,.T.);
#652=FACE_BOUND('',#574,.T.);
#653=FACE_BOUND('',#575,.T.);
#654=FACE_BOUND('',#576,.T.);
#655=FACE_BOUND('',#577,.T.);
#656=FACE_BOUND('',#578,.T.);
#657=FACE_BOUND('',#579,.T.);
#658=FACE_BOUND('',#580,.T.);
#659=FACE_BOUND('',#581,.T.);
#660=FACE_BOUND('',#582,.T.);
#661=FACE_BOUND('',#583,.T.);
#662=FACE_BOUND('',#584,.T.);
#663=FACE_BOUND('',#585,.T.);
#664=FACE_BOUND('',#586,.T.);
#665=FACE_BOUND('',#587,.T.);
#666=FACE_BOUND('',#588,.T.);
#667=FACE_BOUND('',#589,.T.);
#668=FACE_BOUND('',#590,.T.);
#669=FACE_BOUND('',#591,.T.);
#670=FACE_BOUND('',#592,.T.);
#671=FACE_BOUND('',#593,.T.);
#672=FACE_BOUND('',#594,.T.);
#673=FACE_BOUND('',#595,.T.);
#674=FACE_BOUND('',#596,.T.);
#675=FACE_BOUND('',#597,.T.);
#676=PLANE('',#747);
#677=PLANE('',#750);
#678=PLANE('',#753);
#679=PLANE('',#758);
#680=PLANE('',#761);
#681=PLANE('',#766);
#682=PLANE('',#771);
#683=PLANE('',#774);
#684=PLANE('',#777);
#685=PLANE('',#780);
#686=PLANE('',#789);
#687=PLANE('',#790);
#688=PLANE('',#793);
#689=PLANE('',#794);
#690=PLANE('',#795);
#691=PLANE('',#807);
#692=PLANE('',#813);
#693=ADVANCED_FACE('',(#598,#599,#600),#676,.F.);
#694=ADVANCED_FACE('',(#601,#602,#603),#677,.F.);
#695=ADVANCED_FACE('',(#604,#605,#606,#607,#608),#678,.T.);
#696=ADVANCED_FACE('',(#609,#610,#611),#679,.T.);
#697=ADVANCED_FACE('',(#612),#680,.F.);
#698=ADVANCED_FACE('',(#613,#614,#615,#616,#617),#681,.T.);
#699=ADVANCED_FACE('',(#618,#619,#620),#682,.T.);
#700=ADVANCED_FACE('',(#621,#622,#623),#683,.T.);
#701=ADVANCED_FACE('',(#624,#625,#626),#684,.T.);
#702=ADVANCED_FACE('',(#627,#628),#685,.T.);
#703=ADVANCED_FACE('',(#629),#686,.T.);
#704=ADVANCED_FACE('',(#630),#687,.T.);
#705=ADVANCED_FACE('',(#631),#688,.F.);
#706=ADVANCED_FACE('',(#632),#689,.T.);
#707=ADVANCED_FACE('',(#633),#690,.T.);
#708=ADVANCED_FACE('',(#634,#635),#14,.F.);
#709=ADVANCED_FACE('',(#636,#637),#15,.T.);
#710=ADVANCED_FACE('',(#638,#639),#691,.T.);
#711=ADVANCED_FACE('',(#640,#641),#16,.F.);
#712=ADVANCED_FACE('',(#642,#643),#17,.T.);
#713=ADVANCED_FACE('',(#644,#645),#692,.T.);
#714=ADVANCED_FACE('',(#646,#647),#12,.F.);
#715=ADVANCED_FACE('',(#648,#649),#13,.F.);
#716=ADVANCED_FACE('',(#650),#18,.T.);
#717=ADVANCED_FACE('',(#651),#19,.T.);
#718=ADVANCED_FACE('',(#652),#20,.T.);
#719=ADVANCED_FACE('',(#653),#21,.T.);
#720=ADVANCED_FACE('',(#654),#22,.F.);
#721=ADVANCED_FACE('',(#655),#23,.F.);
#722=ADVANCED_FACE('',(#656),#24,.F.);
#723=ADVANCED_FACE('',(#657),#25,.F.);
#724=ADVANCED_FACE('',(#658),#26,.F.);
#725=ADVANCED_FACE('',(#659),#27,.F.);
#726=ADVANCED_FACE('',(#660,#661),#28,.F.);
#727=ADVANCED_FACE('',(#662,#663),#29,.F.);
#728=ADVANCED_FACE('',(#664,#665),#30,.F.);
#729=ADVANCED_FACE('',(#666,#667),#31,.F.);
#730=ADVANCED_FACE('',(#668,#669),#32,.F.);
#731=ADVANCED_FACE('',(#670,#671),#33,.F.);
#732=ADVANCED_FACE('',(#672,#673),#34,.F.);
#733=ADVANCED_FACE('',(#674,#675),#35,.F.);
#734=CLOSED_SHELL('',(#693,#694,#695,#696,#697,#698,#699,#700,#701,#702,
#703,#704,#705,#706,#707,#708,#709,#710,#711,#712,#713,#714,#715,#716,#717,
#718,#719,#720,#721,#722,#723,#724,#725,#726,#727,#728,#729,#730,#731,#732,
#733));
#735=STYLED_ITEM('',(#736),#743);
#736=PRESENTATION_STYLE_ASSIGNMENT((#737));
#737=SURFACE_STYLE_USAGE(.BOTH.,#738);
#738=SURFACE_SIDE_STYLE('',(#739));
#739=SURFACE_STYLE_FILL_AREA(#740);
#740=FILL_AREA_STYLE('',(#741));
#741=FILL_AREA_STYLE_COLOUR('',#742);
#742=COLOUR_RGB('',0.980392156862745,0.713725490196078,0.00392156862745098);
#743=MANIFOLD_SOLID_BREP('CoolerBody',#734);
#744=SHAPE_DEFINITION_REPRESENTATION(#1266,#745);
#745=SHAPE_REPRESENTATION('CoolerBody',(#746),#1261);
#746=AXIS2_PLACEMENT_3D('',#1056,#834,#835);
#747=AXIS2_PLACEMENT_3D('',#1057,#836,#837);
#748=AXIS2_PLACEMENT_3D('',#1058,#838,#839);
#749=AXIS2_PLACEMENT_3D('',#1060,#840,#841);
#750=AXIS2_PLACEMENT_3D('',#1070,#846,#847);
#751=AXIS2_PLACEMENT_3D('',#1071,#848,#849);
#752=AXIS2_PLACEMENT_3D('',#1073,#850,#851);
#753=AXIS2_PLACEMENT_3D('',#1083,#856,#857);
#754=AXIS2_PLACEMENT_3D('',#1084,#858,#859);
#755=AXIS2_PLACEMENT_3D('',#1086,#860,#861);
#756=AXIS2_PLACEMENT_3D('',#1088,#862,#863);
#757=AXIS2_PLACEMENT_3D('',#1090,#864,#865);
#758=AXIS2_PLACEMENT_3D('',#1100,#870,#871);
#759=AXIS2_PLACEMENT_3D('',#1101,#872,#873);
#760=AXIS2_PLACEMENT_3D('',#1103,#874,#875);
#761=AXIS2_PLACEMENT_3D('',#1113,#880,#881);
#762=AXIS2_PLACEMENT_3D('',#1114,#882,#883);
#763=AXIS2_PLACEMENT_3D('',#1115,#884,#885);
#764=AXIS2_PLACEMENT_3D('',#1116,#886,#887);
#765=AXIS2_PLACEMENT_3D('',#1117,#888,#889);
#766=AXIS2_PLACEMENT_3D('',#1118,#890,#891);
#767=AXIS2_PLACEMENT_3D('',#1119,#892,#893);
#768=AXIS2_PLACEMENT_3D('',#1121,#894,#895);
#769=AXIS2_PLACEMENT_3D('',#1123,#896,#897);
#770=AXIS2_PLACEMENT_3D('',#1125,#898,#899);
#771=AXIS2_PLACEMENT_3D('',#1143,#908,#909);
#772=AXIS2_PLACEMENT_3D('',#1144,#910,#911);
#773=AXIS2_PLACEMENT_3D('',#1146,#912,#913);
#774=AXIS2_PLACEMENT_3D('',#1156,#918,#919);
#775=AXIS2_PLACEMENT_3D('',#1157,#920,#921);
#776=AXIS2_PLACEMENT_3D('',#1159,#922,#923);
#777=AXIS2_PLACEMENT_3D('',#1169,#928,#929);
#778=AXIS2_PLACEMENT_3D('',#1170,#930,#931);
#779=AXIS2_PLACEMENT_3D('',#1172,#932,#933);
#780=AXIS2_PLACEMENT_3D('',#1182,#938,#939);
#781=AXIS2_PLACEMENT_3D('',#1183,#940,#941);
#782=AXIS2_PLACEMENT_3D('',#1184,#942,#943);
#783=AXIS2_PLACEMENT_3D('',#1185,#944,#945);
#784=AXIS2_PLACEMENT_3D('',#1186,#946,#947);
#785=AXIS2_PLACEMENT_3D('',#1187,#948,#949);
#786=AXIS2_PLACEMENT_3D('',#1188,#950,#951);
#787=AXIS2_PLACEMENT_3D('',#1189,#952,#953);
#788=AXIS2_PLACEMENT_3D('',#1190,#954,#955);
#789=AXIS2_PLACEMENT_3D('',#1191,#956,#957);
#790=AXIS2_PLACEMENT_3D('',#1200,#962,#963);
#791=AXIS2_PLACEMENT_3D('',#1201,#964,#965);
#792=AXIS2_PLACEMENT_3D('',#1206,#968,#969);
#793=AXIS2_PLACEMENT_3D('',#1207,#970,#971);
#794=AXIS2_PLACEMENT_3D('',#1211,#974,#975);
#795=AXIS2_PLACEMENT_3D('',#1215,#978,#979);
#796=AXIS2_PLACEMENT_3D('',#1216,#980,#981);
#797=AXIS2_PLACEMENT_3D('',#1217,#982,#983);
#798=AXIS2_PLACEMENT_3D('',#1218,#984,#985);
#799=AXIS2_PLACEMENT_3D('',#1219,#986,#987);
#800=AXIS2_PLACEMENT_3D('',#1220,#988,#989);
#801=AXIS2_PLACEMENT_3D('',#1221,#990,#991);
#802=AXIS2_PLACEMENT_3D('',#1222,#992,#993);
#803=AXIS2_PLACEMENT_3D('',#1223,#994,#995);
#804=AXIS2_PLACEMENT_3D('',#1225,#996,#997);
#805=AXIS2_PLACEMENT_3D('',#1226,#998,#999);
#806=AXIS2_PLACEMENT_3D('',#1228,#1000,#1001);
#807=AXIS2_PLACEMENT_3D('',#1230,#1002,#1003);
#808=AXIS2_PLACEMENT_3D('',#1231,#1004,#1005);
#809=AXIS2_PLACEMENT_3D('',#1232,#1006,#1007);
#810=AXIS2_PLACEMENT_3D('',#1234,#1008,#1009);
#811=AXIS2_PLACEMENT_3D('',#1235,#1010,#1011);
#812=AXIS2_PLACEMENT_3D('',#1237,#1012,#1013);
#813=AXIS2_PLACEMENT_3D('',#1239,#1014,#1015);
#814=AXIS2_PLACEMENT_3D('',#1240,#1016,#1017);
#815=AXIS2_PLACEMENT_3D('',#1241,#1018,#1019);
#816=AXIS2_PLACEMENT_3D('',#1242,#1020,#1021);
#817=AXIS2_PLACEMENT_3D('',#1243,#1022,#1023);
#818=AXIS2_PLACEMENT_3D('',#1244,#1024,#1025);
#819=AXIS2_PLACEMENT_3D('',#1245,#1026,#1027);
#820=AXIS2_PLACEMENT_3D('',#1246,#1028,#1029);
#821=AXIS2_PLACEMENT_3D('',#1247,#1030,#1031);
#822=AXIS2_PLACEMENT_3D('',#1248,#1032,#1033);
#823=AXIS2_PLACEMENT_3D('',#1249,#1034,#1035);
#824=AXIS2_PLACEMENT_3D('',#1250,#1036,#1037);
#825=AXIS2_PLACEMENT_3D('',#1251,#1038,#1039);
#826=AXIS2_PLACEMENT_3D('',#1252,#1040,#1041);
#827=AXIS2_PLACEMENT_3D('',#1253,#1042,#1043);
#828=AXIS2_PLACEMENT_3D('',#1254,#1044,#1045);
#829=AXIS2_PLACEMENT_3D('',#1255,#1046,#1047);
#830=AXIS2_PLACEMENT_3D('',#1256,#1048,#1049);
#831=AXIS2_PLACEMENT_3D('',#1257,#1050,#1051);
#832=AXIS2_PLACEMENT_3D('',#1258,#1052,#1053);
#833=AXIS2_PLACEMENT_3D('',#1259,#1054,#1055);
#834=DIRECTION('',(0.,0.,1.));
#835=DIRECTION('',(1.,0.,0.));
#836=DIRECTION('',(-1.,0.,0.));
#837=DIRECTION('',(0.,0.,1.));
#838=DIRECTION('',(-1.,0.,0.));
#839=DIRECTION('',(0.,0.,1.));
#840=DIRECTION('',(-1.,0.,0.));
#841=DIRECTION('',(0.,0.,1.));
#842=DIRECTION('',(0.,1.,0.));
#843=DIRECTION('',(0.,0.,-1.));
#844=DIRECTION('',(0.,1.,0.));
#845=DIRECTION('',(0.,0.,-1.));
#846=DIRECTION('',(0.,-1.,0.));
#847=DIRECTION('',(0.,0.,-1.));
#848=DIRECTION('',(0.,-1.,0.));
#849=DIRECTION('',(0.,0.,-1.));
#850=DIRECTION('',(0.,-1.,0.));
#851=DIRECTION('',(0.,0.,-1.));
#852=DIRECTION('',(-1.,0.,0.));
#853=DIRECTION('',(0.,0.,-1.));
#854=DIRECTION('',(-1.,0.,0.));
#855=DIRECTION('',(0.,0.,-1.));
#856=DIRECTION('',(-1.,0.,0.));
#857=DIRECTION('',(0.,0.,1.));
#858=DIRECTION('',(-1.,0.,0.));
#859=DIRECTION('',(0.,0.,1.));
#860=DIRECTION('',(-1.,0.,0.));
#861=DIRECTION('',(0.,0.,1.));
#862=DIRECTION('',(-1.,0.,0.));
#863=DIRECTION('',(0.,0.,1.));
#864=DIRECTION('',(-1.,0.,0.));
#865=DIRECTION('',(0.,0.,1.));
#866=DIRECTION('',(0.,1.,0.));
#867=DIRECTION('',(0.,0.,-1.));
#868=DIRECTION('',(0.,1.,0.));
#869=DIRECTION('',(0.,0.,-1.));
#870=DIRECTION('',(0.,-1.,0.));
#871=DIRECTION('',(0.,0.,-1.));
#872=DIRECTION('',(0.,-1.,0.));
#873=DIRECTION('',(0.,0.,-1.));
#874=DIRECTION('',(0.,-1.,0.));
#875=DIRECTION('',(0.,0.,-1.));
#876=DIRECTION('',(-1.,0.,0.));
#877=DIRECTION('',(0.,0.,-1.));
#878=DIRECTION('',(-1.,0.,0.));
#879=DIRECTION('',(0.,0.,-1.));
#880=DIRECTION('',(0.,0.,1.));
#881=DIRECTION('',(1.,0.,0.));
#882=DIRECTION('',(0.,0.,1.));
#883=DIRECTION('',(1.,0.,0.));
#884=DIRECTION('',(0.,0.,1.));
#885=DIRECTION('',(1.,0.,0.));
#886=DIRECTION('',(0.,0.,1.));
#887=DIRECTION('',(1.,0.,0.));
#888=DIRECTION('',(0.,0.,1.));
#889=DIRECTION('',(1.,0.,0.));
#890=DIRECTION('',(1.,0.,0.));
#891=DIRECTION('',(0.,0.,-1.));
#892=DIRECTION('',(1.,0.,0.));
#893=DIRECTION('',(0.,0.,-1.));
#894=DIRECTION('',(1.,0.,0.));
#895=DIRECTION('',(0.,0.,-1.));
#896=DIRECTION('',(1.,0.,0.));
#897=DIRECTION('',(0.,0.,-1.));
#898=DIRECTION('',(1.,0.,0.));
#899=DIRECTION('',(0.,0.,-1.));
#900=DIRECTION('',(0.,-1.,0.));
#901=DIRECTION('',(0.,0.,1.));
#902=DIRECTION('',(0.,1.,0.));
#903=DIRECTION('',(0.,0.,1.));
#904=DIRECTION('',(0.,-1.,0.));
#905=DIRECTION('',(0.,0.,-1.));
#906=DIRECTION('',(0.,-1.,0.));
#907=DIRECTION('',(0.,0.,-1.));
#908=DIRECTION('',(0.,-1.,0.));
#909=DIRECTION('',(0.,0.,-1.));
#910=DIRECTION('',(0.,-1.,0.));
#911=DIRECTION('',(0.,0.,-1.));
#912=DIRECTION('',(0.,-1.,0.));
#913=DIRECTION('',(0.,0.,-1.));
#914=DIRECTION('',(-1.,0.,0.));
#915=DIRECTION('',(0.,0.,-1.));
#916=DIRECTION('',(-1.,0.,0.));
#917=DIRECTION('',(0.,0.,-1.));
#918=DIRECTION('',(-1.,0.,0.));
#919=DIRECTION('',(0.,0.,1.));
#920=DIRECTION('',(-1.,0.,0.));
#921=DIRECTION('',(0.,0.,1.));
#922=DIRECTION('',(-1.,0.,0.));
#923=DIRECTION('',(0.,0.,1.));
#924=DIRECTION('',(0.,1.,0.));
#925=DIRECTION('',(0.,0.,-1.));
#926=DIRECTION('',(0.,1.,0.));
#927=DIRECTION('',(0.,0.,-1.));
#928=DIRECTION('',(0.,1.,0.));
#929=DIRECTION('',(0.,0.,1.));
#930=DIRECTION('',(0.,1.,0.));
#931=DIRECTION('',(0.,0.,1.));
#932=DIRECTION('',(0.,1.,0.));
#933=DIRECTION('',(0.,0.,1.));
#934=DIRECTION('',(1.,0.,0.));
#935=DIRECTION('',(0.,0.,-1.));
#936=DIRECTION('',(1.,0.,0.));
#937=DIRECTION('',(0.,0.,-1.));
#938=DIRECTION('',(0.,0.,1.));
#939=DIRECTION('',(1.,0.,0.));
#940=DIRECTION('',(0.,0.,1.));
#941=DIRECTION('',(1.,0.,0.));
#942=DIRECTION('',(0.,0.,1.));
#943=DIRECTION('',(1.,0.,0.));
#944=DIRECTION('',(0.,0.,1.));
#945=DIRECTION('',(1.,0.,0.));
#946=DIRECTION('',(0.,0.,1.));
#947=DIRECTION('',(1.,0.,0.));
#948=DIRECTION('',(0.,0.,1.));
#949=DIRECTION('',(1.,0.,0.));
#950=DIRECTION('',(0.,0.,1.));
#951=DIRECTION('',(1.,0.,0.));
#952=DIRECTION('',(0.,0.,1.));
#953=DIRECTION('',(1.,0.,0.));
#954=DIRECTION('',(0.,0.,1.));
#955=DIRECTION('',(1.,0.,0.));
#956=DIRECTION('',(1.,0.,0.));
#957=DIRECTION('',(0.,0.,-1.));
#958=DIRECTION('',(0.,0.,-1.));
#959=DIRECTION('',(0.,1.,0.));
#960=DIRECTION('',(0.,0.,-1.));
#961=DIRECTION('',(0.,-1.,0.));
#962=DIRECTION('',(0.,0.,1.));
#963=DIRECTION('',(1.,0.,0.));
#964=DIRECTION('',(0.,0.,1.));
#965=DIRECTION('',(1.,0.,0.));
#966=DIRECTION('',(-1.,0.,0.));
#967=DIRECTION('',(-1.,0.,0.));
#968=DIRECTION('',(0.,0.,1.));
#969=DIRECTION('',(1.,0.,0.));
#970=DIRECTION('',(0.,-1.,0.));
#971=DIRECTION('',(0.,0.,-1.));
#972=DIRECTION('',(1.,0.,0.));
#973=DIRECTION('',(0.,0.,1.));
#974=DIRECTION('',(0.,-1.,0.));
#975=DIRECTION('',(0.,0.,-1.));
#976=DIRECTION('',(0.,0.,1.));
#977=DIRECTION('',(1.,0.,0.));
#978=DIRECTION('',(0.,0.,1.));
#979=DIRECTION('',(1.,0.,0.));
#980=DIRECTION('',(0.,0.,1.));
#981=DIRECTION('',(1.,0.,0.));
#982=DIRECTION('',(0.,0.,1.));
#983=DIRECTION('',(1.,0.,0.));
#984=DIRECTION('',(0.,0.,1.));
#985=DIRECTION('',(1.,0.,0.));
#986=DIRECTION('',(0.,0.,1.));
#987=DIRECTION('',(1.,0.,0.));
#988=DIRECTION('',(0.,0.,1.));
#989=DIRECTION('',(1.,0.,0.));
#990=DIRECTION('',(0.,0.,1.));
#991=DIRECTION('',(1.,0.,0.));
#992=DIRECTION('',(1.,0.,0.));
#993=DIRECTION('',(0.,0.,-1.));
#994=DIRECTION('',(-1.,0.,0.));
#995=DIRECTION('',(0.,0.,1.));
#996=DIRECTION('',(1.,0.,0.));
#997=DIRECTION('',(0.,0.,-1.));
#998=DIRECTION('',(-1.,0.,0.));
#999=DIRECTION('',(0.,0.,1.));
#1000=DIRECTION('',(-1.,0.,0.));
#1001=DIRECTION('',(0.,0.,1.));
#1002=DIRECTION('',(-1.,0.,0.));
#1003=DIRECTION('',(0.,-1.,0.));
#1004=DIRECTION('',(1.,0.,0.));
#1005=DIRECTION('',(0.,0.,-1.));
#1006=DIRECTION('',(-1.,0.,0.));
#1007=DIRECTION('',(0.,0.,1.));
#1008=DIRECTION('',(1.,0.,0.));
#1009=DIRECTION('',(0.,0.,-1.));
#1010=DIRECTION('',(-1.,0.,0.));
#1011=DIRECTION('',(0.,0.,1.));
#1012=DIRECTION('',(-1.,0.,0.));
#1013=DIRECTION('',(0.,0.,1.));
#1014=DIRECTION('',(-1.,0.,0.));
#1015=DIRECTION('',(0.,-1.,0.));
#1016=DIRECTION('',(-1.,0.,0.));
#1017=DIRECTION('',(0.,0.,1.));
#1018=DIRECTION('',(-1.,0.,0.));
#1019=DIRECTION('',(0.,0.,1.));
#1020=DIRECTION('',(0.,0.,-1.));
#1021=DIRECTION('',(-1.,0.,0.));
#1022=DIRECTION('',(0.,0.,1.));
#1023=DIRECTION('',(1.,0.,0.));
#1024=DIRECTION('',(0.,0.,-1.));
#1025=DIRECTION('',(-1.,0.,0.));
#1026=DIRECTION('',(0.,0.,1.));
#1027=DIRECTION('',(1.,0.,0.));
#1028=DIRECTION('',(0.,0.,1.));
#1029=DIRECTION('',(1.,0.,0.));
#1030=DIRECTION('',(0.,0.,-1.));
#1031=DIRECTION('',(-1.,0.,0.));
#1032=DIRECTION('',(0.,0.,1.));
#1033=DIRECTION('',(1.,0.,0.));
#1034=DIRECTION('',(0.,0.,1.));
#1035=DIRECTION('',(1.,0.,0.));
#1036=DIRECTION('',(0.,0.,1.));
#1037=DIRECTION('',(1.,0.,0.));
#1038=DIRECTION('',(0.,0.,1.));
#1039=DIRECTION('',(1.,0.,0.));
#1040=DIRECTION('',(-1.,0.,0.));
#1041=DIRECTION('',(0.,0.,1.));
#1042=DIRECTION('',(-1.,0.,0.));
#1043=DIRECTION('',(0.,0.,1.));
#1044=DIRECTION('',(0.,-1.,0.));
#1045=DIRECTION('',(0.,0.,-1.));
#1046=DIRECTION('',(0.,-1.,0.));
#1047=DIRECTION('',(0.,0.,-1.));
#1048=DIRECTION('',(1.,0.,0.));
#1049=DIRECTION('',(0.,0.,-1.));
#1050=DIRECTION('',(1.,0.,0.));
#1051=DIRECTION('',(0.,0.,-1.));
#1052=DIRECTION('',(0.,1.,0.));
#1053=DIRECTION('',(0.,0.,1.));
#1054=DIRECTION('',(0.,1.,0.));
#1055=DIRECTION('',(0.,0.,1.));
#1056=CARTESIAN_POINT('',(0.,0.,0.));
#1057=CARTESIAN_POINT('',(-30.5676849055714,-10.1755654063927,0.25));
#1058=CARTESIAN_POINT('',(-30.5676849055714,-8.5505654063927,2.625));
#1059=CARTESIAN_POINT('',(-30.5676849055714,-8.5505654063927,2.7));
#1060=CARTESIAN_POINT('',(-30.5676849055714,-10.0505654063927,2.625));
#1061=CARTESIAN_POINT('',(-30.5676849055714,-10.0505654063927,2.7));
#1062=CARTESIAN_POINT('',(-30.5676849055714,-10.1755654063927,2.75));
#1063=CARTESIAN_POINT('',(-30.5676849055714,-10.8005654063927,2.75));
#1064=CARTESIAN_POINT('',(-30.5676849055714,-7.8005654063927,2.75));
#1065=CARTESIAN_POINT('',(-30.5676849055714,-10.8005654063927,0.));
#1066=CARTESIAN_POINT('',(-30.5676849055714,-10.8005654063927,0.));
#1067=CARTESIAN_POINT('',(-30.5676849055714,-10.1755654063927,0.));
#1068=CARTESIAN_POINT('',(-30.5676849055714,-7.8005654063927,0.));
#1069=CARTESIAN_POINT('',(-30.5676849055714,-7.8005654063927,0.25));
#1070=CARTESIAN_POINT('',(-32.3176849055714,-7.5505654063927,0.25));
#1071=CARTESIAN_POINT('',(-33.0676849055714,-7.5505654063927,2.625));
#1072=CARTESIAN_POINT('',(-33.0676849055714,-7.5505654063927,2.55));
#1073=CARTESIAN_POINT('',(-31.5676849055714,-7.5505654063927,2.625));
#1074=CARTESIAN_POINT('',(-31.5676849055714,-7.5505654063927,2.55));
#1075=CARTESIAN_POINT('',(-32.3176849055714,-7.5505654063927,2.75));
#1076=CARTESIAN_POINT('',(-30.8176849055714,-7.5505654063927,2.75));
#1077=CARTESIAN_POINT('',(-33.8176849055714,-7.5505654063927,2.75));
#1078=CARTESIAN_POINT('',(-30.8176849055714,-7.5505654063927,0.25));
#1079=CARTESIAN_POINT('',(-30.8176849055714,-7.5505654063927,0.));
#1080=CARTESIAN_POINT('',(-32.3176849055714,-7.5505654063927,0.));
#1081=CARTESIAN_POINT('',(-33.8176849055714,-7.5505654063927,0.));
#1082=CARTESIAN_POINT('',(-33.8176849055714,-7.5505654063927,2.75));
#1083=CARTESIAN_POINT('',(-34.0676849055714,-10.2380654063927,0.25));
#1084=CARTESIAN_POINT('',(-34.0676849055714,-8.5505654063927,2.625));
#1085=CARTESIAN_POINT('',(-34.0676849055714,-8.5505654063927,2.7));
#1086=CARTESIAN_POINT('',(-34.0676849055714,-10.0505654063927,2.625));
#1087=CARTESIAN_POINT('',(-34.0676849055714,-10.0505654063927,2.7));
#1088=CARTESIAN_POINT('',(-34.0676849055714,-10.2380654063927,1.375));
#1089=CARTESIAN_POINT('',(-34.0676849055714,-10.2380654063927,1.88875));
#1090=CARTESIAN_POINT('',(-34.0676849055714,-8.3630654063927,1.375));
#1091=CARTESIAN_POINT('',(-34.0676849055714,-8.3630654063927,1.88875));
#1092=CARTESIAN_POINT('',(-34.0676849055714,-10.2380654063927,0.));
#1093=CARTESIAN_POINT('',(-34.0676849055714,-10.8005654063927,0.));
#1094=CARTESIAN_POINT('',(-34.0676849055714,-7.8005654063927,0.));
#1095=CARTESIAN_POINT('',(-34.0676849055714,-10.8005654063927,0.25));
#1096=CARTESIAN_POINT('',(-34.0676849055714,-10.8005654063927,2.75));
#1097=CARTESIAN_POINT('',(-34.0676849055714,-10.2380654063927,2.75));
#1098=CARTESIAN_POINT('',(-34.0676849055714,-7.8005654063927,2.75));
#1099=CARTESIAN_POINT('',(-34.0676849055714,-7.8005654063927,0.));
#1100=CARTESIAN_POINT('',(-32.3176849055714,-11.0505654063927,0.25));
#1101=CARTESIAN_POINT('',(-33.0676849055714,-11.0505654063927,2.625));
#1102=CARTESIAN_POINT('',(-33.0676849055714,-11.0505654063927,2.55));
#1103=CARTESIAN_POINT('',(-31.5676849055714,-11.0505654063927,2.625));
#1104=CARTESIAN_POINT('',(-31.5676849055714,-11.0505654063927,2.55));
#1105=CARTESIAN_POINT('',(-32.3176849055714,-11.0505654063927,2.75));
#1106=CARTESIAN_POINT('',(-30.8176849055714,-11.0505654063927,2.75));
#1107=CARTESIAN_POINT('',(-33.8176849055714,-11.0505654063927,2.75));
#1108=CARTESIAN_POINT('',(-33.8176849055714,-11.0505654063927,0.25));
#1109=CARTESIAN_POINT('',(-33.8176849055714,-11.0505654063927,0.));
#1110=CARTESIAN_POINT('',(-32.3176849055714,-11.0505654063927,0.));
#1111=CARTESIAN_POINT('',(-30.8176849055714,-11.0505654063927,0.));
#1112=CARTESIAN_POINT('',(-30.8176849055714,-11.0505654063927,2.75));
#1113=CARTESIAN_POINT('',(-32.3176849055714,-9.3005654063927,0.));
#1114=CARTESIAN_POINT('',(-33.8176849055714,-10.8005654063927,0.));
#1115=CARTESIAN_POINT('',(-33.8176849055714,-7.8005654063927,0.));
#1116=CARTESIAN_POINT('',(-30.8176849055714,-7.8005654063927,0.));
#1117=CARTESIAN_POINT('',(-30.8176849055714,-10.8005654063927,0.));
#1118=CARTESIAN_POINT('',(-33.9176849055714,-10.1630654063927,2.75));
#1119=CARTESIAN_POINT('',(-33.9176849055714,-8.5505654063927,2.625));
#1120=CARTESIAN_POINT('',(-33.9176849055714,-8.5505654063927,2.55));
#1121=CARTESIAN_POINT('',(-33.9176849055714,-10.0505654063927,2.625));
#1122=CARTESIAN_POINT('',(-33.9176849055714,-10.0505654063927,2.55));
#1123=CARTESIAN_POINT('',(-33.9176849055714,-8.3630654063927,1.375));
#1124=CARTESIAN_POINT('',(-33.9176849055714,-8.3630654063927,1.1625));
#1125=CARTESIAN_POINT('',(-33.9176849055714,-10.2380654063927,1.375));
#1126=CARTESIAN_POINT('',(-33.9176849055714,-10.2380654063927,1.1625));
#1127=CARTESIAN_POINT('',(-33.9176849055714,-10.1630654063927,0.25));
#1128=CARTESIAN_POINT('',(-33.9176849055714,-9.6755654063927,0.25));
#1129=CARTESIAN_POINT('',(-33.9176849055714,-10.6505654063927,0.25));
#1130=CARTESIAN_POINT('',(-33.9176849055714,-9.6755654063927,2.5));
#1131=CARTESIAN_POINT('',(-33.9176849055714,-9.6755654063927,2.5));
#1132=CARTESIAN_POINT('',(-33.9176849055714,-9.3005654063927,2.5));
#1133=CARTESIAN_POINT('',(-33.9176849055714,-8.9255654063927,2.5));
#1134=CARTESIAN_POINT('',(-33.9176849055714,-8.9255654063927,2.75));
#1135=CARTESIAN_POINT('',(-33.9176849055714,-8.9255654063927,0.25));
#1136=CARTESIAN_POINT('',(-33.9176849055714,-10.1630654063927,0.25));
#1137=CARTESIAN_POINT('',(-33.9176849055714,-7.9505654063927,0.25));
#1138=CARTESIAN_POINT('',(-33.9176849055714,-7.9505654063927,2.75));
#1139=CARTESIAN_POINT('',(-33.9176849055714,-7.9505654063927,2.75));
#1140=CARTESIAN_POINT('',(-33.9176849055714,-10.1630654063927,2.75));
#1141=CARTESIAN_POINT('',(-33.9176849055714,-10.6505654063927,2.75));
#1142=CARTESIAN_POINT('',(-33.9176849055714,-10.6505654063927,0.25));
#1143=CARTESIAN_POINT('',(-32.3176849055714,-7.7005654063927,2.75));
#1144=CARTESIAN_POINT('',(-33.0676849055714,-7.7005654063927,2.625));
#1145=CARTESIAN_POINT('',(-33.0676849055714,-7.7005654063927,2.55));
#1146=CARTESIAN_POINT('',(-31.5676849055714,-7.7005654063927,2.625));
#1147=CARTESIAN_POINT('',(-31.5676849055714,-7.7005654063927,2.55));
#1148=CARTESIAN_POINT('',(-32.3176849055714,-7.7005654063927,0.25));
#1149=CARTESIAN_POINT('',(-30.9676849055714,-7.7005654063927,0.25));
#1150=CARTESIAN_POINT('',(-33.6676849055714,-7.7005654063927,0.25));
#1151=CARTESIAN_POINT('',(-30.9676849055714,-7.7005654063927,2.75));
#1152=CARTESIAN_POINT('',(-30.9676849055714,-7.7005654063927,2.75));
#1153=CARTESIAN_POINT('',(-32.3176849055714,-7.7005654063927,2.75));
#1154=CARTESIAN_POINT('',(-33.6676849055714,-7.7005654063927,2.75));
#1155=CARTESIAN_POINT('',(-33.6676849055714,-7.7005654063927,0.25));
#1156=CARTESIAN_POINT('',(-30.7176849055714,-9.3005654063927,2.75));
#1157=CARTESIAN_POINT('',(-30.7176849055714,-8.5505654063927,2.625));
#1158=CARTESIAN_POINT('',(-30.7176849055714,-8.5505654063927,2.7));
#1159=CARTESIAN_POINT('',(-30.7176849055714,-10.0505654063927,2.625));
#1160=CARTESIAN_POINT('',(-30.7176849055714,-10.0505654063927,2.7));
#1161=CARTESIAN_POINT('',(-30.7176849055714,-9.3005654063927,2.75));
#1162=CARTESIAN_POINT('',(-30.7176849055714,-10.6505654063927,2.75));
#1163=CARTESIAN_POINT('',(-30.7176849055714,-7.9505654063927,2.75));
#1164=CARTESIAN_POINT('',(-30.7176849055714,-7.9505654063927,0.25));
#1165=CARTESIAN_POINT('',(-30.7176849055714,-7.9505654063927,0.25));
#1166=CARTESIAN_POINT('',(-30.7176849055714,-9.3005654063927,0.25));
#1167=CARTESIAN_POINT('',(-30.7176849055714,-10.6505654063927,0.25));
#1168=CARTESIAN_POINT('',(-30.7176849055714,-10.6505654063927,2.75));
#1169=CARTESIAN_POINT('',(-32.3176849055714,-10.9005654063927,2.75));
#1170=CARTESIAN_POINT('',(-33.0676849055714,-10.9005654063927,2.625));
#1171=CARTESIAN_POINT('',(-33.0676849055714,-10.9005654063927,2.7));
#1172=CARTESIAN_POINT('',(-31.5676849055714,-10.9005654063927,2.625));
#1173=CARTESIAN_POINT('',(-31.5676849055714,-10.9005654063927,2.7));
#1174=CARTESIAN_POINT('',(-32.3176849055714,-10.9005654063927,2.75));
#1175=CARTESIAN_POINT('',(-33.6676849055714,-10.9005654063927,2.75));
#1176=CARTESIAN_POINT('',(-30.9676849055714,-10.9005654063927,2.75));
#1177=CARTESIAN_POINT('',(-30.9676849055714,-10.9005654063927,0.25));
#1178=CARTESIAN_POINT('',(-30.9676849055714,-10.9005654063927,0.25));
#1179=CARTESIAN_POINT('',(-32.3176849055714,-10.9005654063927,0.25));
#1180=CARTESIAN_POINT('',(-33.6676849055714,-10.9005654063927,0.25));
#1181=CARTESIAN_POINT('',(-33.6676849055714,-10.9005654063927,2.75));
#1182=CARTESIAN_POINT('',(-32.3176849055714,-9.3005654063927,2.75));
#1183=CARTESIAN_POINT('',(-33.6676849055714,-7.9505654063927,2.75));
#1184=CARTESIAN_POINT('',(-30.9676849055714,-7.9505654063927,2.75));
#1185=CARTESIAN_POINT('',(-30.9676849055714,-10.6505654063927,2.75));
#1186=CARTESIAN_POINT('',(-33.6676849055714,-10.6505654063927,2.75));
#1187=CARTESIAN_POINT('',(-33.8176849055714,-10.8005654063927,2.75));
#1188=CARTESIAN_POINT('',(-30.8176849055714,-10.8005654063927,2.75));
#1189=CARTESIAN_POINT('',(-30.8176849055714,-7.8005654063927,2.75));
#1190=CARTESIAN_POINT('',(-33.8176849055714,-7.8005654063927,2.75));
#1191=CARTESIAN_POINT('',(-31.4426849055714,-9.2380654063927,2.5));
#1192=CARTESIAN_POINT('',(-31.4426849055714,-9.4255654063927,2.5));
#1193=CARTESIAN_POINT('',(-31.4426849055714,-9.4255654063927,2.5));
#1194=CARTESIAN_POINT('',(-31.4426849055714,-9.4255654063927,0.25));
#1195=CARTESIAN_POINT('',(-31.4426849055714,-9.3005654063927,0.25));
#1196=CARTESIAN_POINT('',(-31.4426849055714,-9.1755654063927,0.25));
#1197=CARTESIAN_POINT('',(-31.4426849055714,-9.1755654063927,2.5));
#1198=CARTESIAN_POINT('',(-31.4426849055714,-9.1755654063927,2.5));
#1199=CARTESIAN_POINT('',(-31.4426849055714,-9.2380654063927,2.5));
#1200=CARTESIAN_POINT('',(-32.3176849055714,-9.3005654063927,2.5));
#1201=CARTESIAN_POINT('',(-33.6676849055714,-9.6755654063927,2.5));
#1202=CARTESIAN_POINT('',(-33.6676849055714,-9.4255654063927,2.5));
#1203=CARTESIAN_POINT('',(-32.7551849055714,-9.4255654063927,2.5));
#1204=CARTESIAN_POINT('',(-32.7551849055714,-9.1755654063927,2.5));
#1205=CARTESIAN_POINT('',(-33.6676849055714,-9.1755654063927,2.5));
#1206=CARTESIAN_POINT('',(-33.6676849055714,-8.9255654063927,2.5));
#1207=CARTESIAN_POINT('',(-32.7551849055714,-9.1755654063927,2.5));
#1208=CARTESIAN_POINT('',(-32.3176849055714,-9.1755654063927,0.25));
#1209=CARTESIAN_POINT('',(-33.6676849055714,-9.1755654063927,0.25));
#1210=CARTESIAN_POINT('',(-33.6676849055714,-9.1755654063927,2.5));
#1211=CARTESIAN_POINT('',(-32.7551849055714,-9.4255654063927,2.5));
#1212=CARTESIAN_POINT('',(-33.6676849055714,-9.4255654063927,0.25));
#1213=CARTESIAN_POINT('',(-33.6676849055714,-9.4255654063927,0.25));
#1214=CARTESIAN_POINT('',(-32.3176849055714,-9.4255654063927,0.25));
#1215=CARTESIAN_POINT('',(-32.3176849055714,-9.3005654063927,0.25));
#1216=CARTESIAN_POINT('',(-30.9676849055714,-7.9505654063927,0.25));
#1217=CARTESIAN_POINT('',(-33.6676849055714,-7.9505654063927,0.25));
#1218=CARTESIAN_POINT('',(-33.6676849055714,-8.9255654063927,0.25));
#1219=CARTESIAN_POINT('',(-33.6676849055714,-9.6755654063927,0.25));
#1220=CARTESIAN_POINT('',(-33.6676849055714,-10.6505654063927,0.25));
#1221=CARTESIAN_POINT('',(-30.9676849055714,-10.6505654063927,0.25));
#1222=CARTESIAN_POINT('',(-35.0676849055714,-10.2380654063927,1.375));
#1223=CARTESIAN_POINT('',(-35.0676849055714,-10.2380654063927,1.375));
#1224=CARTESIAN_POINT('',(-35.0676849055714,-10.2380654063927,1.5875));
#1225=CARTESIAN_POINT('',(-35.0676849055714,-10.2380654063927,1.375));
#1226=CARTESIAN_POINT('',(-34.3176849055714,-10.2380654063927,1.375));
#1227=CARTESIAN_POINT('',(-34.3176849055714,-10.2380654063927,1.63875));
#1228=CARTESIAN_POINT('',(-35.0676849055714,-10.2380654063927,1.375));
#1229=CARTESIAN_POINT('',(-35.0676849055714,-10.2380654063927,1.63875));
#1230=CARTESIAN_POINT('',(-35.0676849055714,-9.3005654063927,1.375));
#1231=CARTESIAN_POINT('',(-35.0676849055714,-8.3630654063927,1.375));
#1232=CARTESIAN_POINT('',(-35.0676849055714,-8.3630654063927,1.375));
#1233=CARTESIAN_POINT('',(-35.0676849055714,-8.3630654063927,1.5875));
#1234=CARTESIAN_POINT('',(-35.0676849055714,-8.3630654063927,1.375));
#1235=CARTESIAN_POINT('',(-34.3176849055714,-8.3630654063927,1.375));
#1236=CARTESIAN_POINT('',(-34.3176849055714,-8.3630654063927,1.63875));
#1237=CARTESIAN_POINT('',(-35.0676849055714,-8.3630654063927,1.375));
#1238=CARTESIAN_POINT('',(-35.0676849055714,-8.3630654063927,1.63875));
#1239=CARTESIAN_POINT('',(-35.0676849055714,-9.3005654063927,1.375));
#1240=CARTESIAN_POINT('',(-34.3176849055714,-10.2380654063927,1.375));
#1241=CARTESIAN_POINT('',(-34.3176849055714,-8.3630654063927,1.375));
#1242=CARTESIAN_POINT('',(-33.8176849055714,-10.8005654063927,0.25));
#1243=CARTESIAN_POINT('',(-30.8176849055714,-10.8005654063927,0.25));
#1244=CARTESIAN_POINT('',(-30.8176849055714,-7.8005654063927,0.25));
#1245=CARTESIAN_POINT('',(-33.8176849055714,-7.8005654063927,0.25));
#1246=CARTESIAN_POINT('',(-30.9676849055714,-7.9505654063927,2.75));
#1247=CARTESIAN_POINT('',(-33.6676849055714,-9.6755654063927,2.75));
#1248=CARTESIAN_POINT('',(-30.9676849055714,-10.6505654063927,2.75));
#1249=CARTESIAN_POINT('',(-33.6676849055714,-10.6505654063927,2.75));
#1250=CARTESIAN_POINT('',(-33.6676849055714,-8.9255654063927,2.5));
#1251=CARTESIAN_POINT('',(-33.6676849055714,-7.9505654063927,2.75));
#1252=CARTESIAN_POINT('',(-33.6676849055714,-10.0505654063927,2.625));
#1253=CARTESIAN_POINT('',(-33.6676849055714,-8.5505654063927,2.625));
#1254=CARTESIAN_POINT('',(-31.5676849055714,-10.6505654063927,2.625));
#1255=CARTESIAN_POINT('',(-33.0676849055714,-10.6505654063927,2.625));
#1256=CARTESIAN_POINT('',(-30.9676849055714,-10.0505654063927,2.625));
#1257=CARTESIAN_POINT('',(-30.9676849055714,-8.5505654063927,2.625));
#1258=CARTESIAN_POINT('',(-31.5676849055714,-7.9505654063927,2.625));
#1259=CARTESIAN_POINT('',(-33.0676849055714,-7.9505654063927,2.625));
#1260=MECHANICAL_DESIGN_GEOMETRIC_PRESENTATION_REPRESENTATION('',(#735),
#1261);
#1261=(
GEOMETRIC_REPRESENTATION_CONTEXT(3)
GLOBAL_UNCERTAINTY_ASSIGNED_CONTEXT((#1262))
GLOBAL_UNIT_ASSIGNED_CONTEXT((#1265,#1264,#1263))
REPRESENTATION_CONTEXT('CoolerBody','TOP_LEVEL_ASSEMBLY_PART')
);
#1262=UNCERTAINTY_MEASURE_WITH_UNIT(LENGTH_MEASURE(1.E-6),#1265,
'DISTANCE_ACCURACY_VALUE','Maximum Tolerance applied to model');
#1263=(
NAMED_UNIT(*)
SI_UNIT($,.STERADIAN.)
SOLID_ANGLE_UNIT()
);
#1264=(
NAMED_UNIT(*)
PLANE_ANGLE_UNIT()
SI_UNIT($,.RADIAN.)
);
#1265=(
LENGTH_UNIT()
NAMED_UNIT(*)
SI_UNIT(.CENTI.,.METRE.)
);
#1266=PRODUCT_DEFINITION_SHAPE('','',#1267);
#1267=PRODUCT_DEFINITION('','',#1269,#1268);
#1268=PRODUCT_DEFINITION_CONTEXT('',#1275,'design');
#1269=PRODUCT_DEFINITION_FORMATION_WITH_SPECIFIED_SOURCE('','',#1271,
 .NOT_KNOWN.);
#1270=PRODUCT_RELATED_PRODUCT_CATEGORY('','',(#1271));
#1271=PRODUCT('CoolerBody','CoolerBody','CoolerBody',(#1273));
#1272=PRODUCT_CATEGORY('','');
#1273=PRODUCT_CONTEXT('',#1275,'mechanical');
#1274=APPLICATION_PROTOCOL_DEFINITION('international standard',
'ap242_managed_model_based_3d_engineering',2020,#1275);
#1275=APPLICATION_CONTEXT('managed model based 3d engineering');
ENDSEC;
END-ISO-10303-21;
