ISO-10303-21;
HEADER;
/* Generated by software containing ST-Developer
 * from STEP Tools, Inc. (www.steptools.com) 
 */
/* OPTION: using custom renumber hook */

FILE_DESCRIPTION(
/* description */ ('STEP AP242 Edition 2',
'CAx-IF Rec.Pracs.---Representation and Presentation of Product Manufa
cturing Information (PMI)---4.0---2014-10-13',
'CAx-IF Rec.Pracs.---3D Tessellated Geometry---0.4---2014-09-14','2;1',
'CAx-IF Rec.Pracs.---User Defined Attributes---1.5---2016-08-15'),
/* implementation_level */ '2;1');

FILE_NAME(
/* name */ 'Part Studio 1 - HeadBand',
/* time_stamp */ '2026-09-11T10:36:07Z',
/* author */ (''),
/* organization */ (''),
/* preprocessor_version */ 'ST-DEVELOPER v20',
/* originating_system */ 'ONSHAPE BY PTC INC, 1.220',
/* authorisation */ '  ');

FILE_SCHEMA (('AP242_MANAGED_MODEL_BASED_3D_ENGINEERING_MIM_LF { 1 0 10303 442 3 1 4 }'));
ENDSEC;

DATA;
#10=SHAPE_REPRESENTATION_RELATIONSHIP('','',#501,#11);
#11=ADVANCED_BREP_SHAPE_REPRESENTATION('',(#499),#865);
#12=CONICAL_SURFACE('',#559,0.75,0.785398163397449);
#13=CONICAL_SURFACE('',#560,0.5,0.785398163397448);
#14=B_SPLINE_CURVE_WITH_KNOTS('',3,(#803,#804,#805,#806,#807,#808,#809),
 .UNSPECIFIED.,.F.,.F.,(4,1,1,1,4),(0.,0.00150573275530236,0.00301146551060473,
0.00451719826590709,0.00602293102120946),.UNSPECIFIED.);
#15=B_SPLINE_CURVE_WITH_KNOTS('',3,(#815,#816,#817,#818,#819,#820,#821),
 .UNSPECIFIED.,.F.,.F.,(4,1,1,1,4),(0.,0.00151876582501404,0.00303753165002808,
0.00455629747504211,0.00607506330005615),.UNSPECIFIED.);
#16=CYLINDRICAL_SURFACE('',#528,10.);
#17=CYLINDRICAL_SURFACE('',#529,12.);
#18=CYLINDRICAL_SURFACE('',#531,12.);
#19=CYLINDRICAL_SURFACE('',#537,0.25);
#20=CYLINDRICAL_SURFACE('',#538,0.25);
#21=CYLINDRICAL_SURFACE('',#539,0.5);
#22=CYLINDRICAL_SURFACE('',#541,0.5);
#23=CYLINDRICAL_SURFACE('',#543,1.25);
#24=CYLINDRICAL_SURFACE('',#549,1.25);
#25=CIRCLE('',#508,12.);
#26=CIRCLE('',#521,0.5);
#27=CIRCLE('',#524,0.5);
#28=CIRCLE('',#527,12.);
#29=CIRCLE('',#540,0.5);
#30=CIRCLE('',#542,0.5);
#31=CIRCLE('',#544,1.25);
#32=CIRCLE('',#545,1.25);
#33=CIRCLE('',#547,0.75);
#34=CIRCLE('',#550,1.25);
#35=CIRCLE('',#551,1.25);
#36=CIRCLE('',#553,0.75);
#37=CIRCLE('',#556,0.625);
#38=CIRCLE('',#558,0.625);
#39=ELLIPSE('',#504,40.9558922242219,12.);
#40=ELLIPSE('',#506,12.9216353529309,12.);
#41=ELLIPSE('',#511,12.3803972853281,12.);
#42=ELLIPSE('',#512,12.3803972853282,12.);
#43=ELLIPSE('',#513,10.3169977377734,10.);
#44=ELLIPSE('',#515,40.9558922242221,12.);
#45=ELLIPSE('',#517,12.921635352931,12.);
#46=ELLIPSE('',#519,10.7680294607758,10.);
#47=ELLIPSE('',#522,0.384790568431032,0.25);
#48=ELLIPSE('',#525,0.384790568431031,0.25);
#49=ELLIPSE('',#530,17.5085257484781,12.);
#50=ELLIPSE('',#532,17.5085257484781,12.);
#51=ORIENTED_EDGE('',*,*,#175,.T.);
#52=ORIENTED_EDGE('',*,*,#176,.T.);
#53=ORIENTED_EDGE('',*,*,#177,.F.);
#54=ORIENTED_EDGE('',*,*,#178,.F.);
#55=ORIENTED_EDGE('',*,*,#179,.F.);
#56=ORIENTED_EDGE('',*,*,#180,.T.);
#57=ORIENTED_EDGE('',*,*,#181,.T.);
#58=ORIENTED_EDGE('',*,*,#178,.T.);
#59=ORIENTED_EDGE('',*,*,#182,.F.);
#60=ORIENTED_EDGE('',*,*,#183,.F.);
#61=ORIENTED_EDGE('',*,*,#184,.F.);
#62=ORIENTED_EDGE('',*,*,#180,.F.);
#63=ORIENTED_EDGE('',*,*,#185,.F.);
#64=ORIENTED_EDGE('',*,*,#186,.T.);
#65=ORIENTED_EDGE('',*,*,#187,.T.);
#66=ORIENTED_EDGE('',*,*,#188,.T.);
#67=ORIENTED_EDGE('',*,*,#189,.F.);
#68=ORIENTED_EDGE('',*,*,#190,.T.);
#69=ORIENTED_EDGE('',*,*,#185,.T.);
#70=ORIENTED_EDGE('',*,*,#191,.T.);
#71=ORIENTED_EDGE('',*,*,#192,.F.);
#72=ORIENTED_EDGE('',*,*,#193,.F.);
#73=ORIENTED_EDGE('',*,*,#194,.F.);
#74=ORIENTED_EDGE('',*,*,#195,.T.);
#75=ORIENTED_EDGE('',*,*,#196,.F.);
#76=ORIENTED_EDGE('',*,*,#197,.F.);
#77=ORIENTED_EDGE('',*,*,#198,.F.);
#78=ORIENTED_EDGE('',*,*,#197,.T.);
#79=ORIENTED_EDGE('',*,*,#199,.F.);
#80=ORIENTED_EDGE('',*,*,#200,.T.);
#81=ORIENTED_EDGE('',*,*,#187,.F.);
#82=ORIENTED_EDGE('',*,*,#201,.T.);
#83=ORIENTED_EDGE('',*,*,#202,.T.);
#84=ORIENTED_EDGE('',*,*,#183,.T.);
#85=ORIENTED_EDGE('',*,*,#203,.F.);
#86=ORIENTED_EDGE('',*,*,#204,.T.);
#87=ORIENTED_EDGE('',*,*,#205,.F.);
#88=ORIENTED_EDGE('',*,*,#206,.T.);
#89=ORIENTED_EDGE('',*,*,#207,.F.);
#90=ORIENTED_EDGE('',*,*,#208,.T.);
#91=ORIENTED_EDGE('',*,*,#209,.T.);
#92=ORIENTED_EDGE('',*,*,#175,.F.);
#93=ORIENTED_EDGE('',*,*,#181,.F.);
#94=ORIENTED_EDGE('',*,*,#184,.T.);
#95=ORIENTED_EDGE('',*,*,#202,.F.);
#96=ORIENTED_EDGE('',*,*,#210,.T.);
#97=ORIENTED_EDGE('',*,*,#211,.T.);
#98=ORIENTED_EDGE('',*,*,#196,.T.);
#99=ORIENTED_EDGE('',*,*,#212,.T.);
#100=ORIENTED_EDGE('',*,*,#213,.T.);
#101=ORIENTED_EDGE('',*,*,#214,.T.);
#102=ORIENTED_EDGE('',*,*,#205,.T.);
#103=ORIENTED_EDGE('',*,*,#215,.T.);
#104=ORIENTED_EDGE('',*,*,#199,.T.);
#105=ORIENTED_EDGE('',*,*,#216,.F.);
#106=ORIENTED_EDGE('',*,*,#200,.F.);
#107=ORIENTED_EDGE('',*,*,#215,.F.);
#108=ORIENTED_EDGE('',*,*,#204,.F.);
#109=ORIENTED_EDGE('',*,*,#193,.T.);
#110=ORIENTED_EDGE('',*,*,#217,.T.);
#111=ORIENTED_EDGE('',*,*,#203,.T.);
#112=ORIENTED_EDGE('',*,*,#218,.F.);
#113=ORIENTED_EDGE('',*,*,#177,.T.);
#114=ORIENTED_EDGE('',*,*,#219,.T.);
#115=ORIENTED_EDGE('',*,*,#220,.T.);
#116=ORIENTED_EDGE('',*,*,#189,.T.);
#117=ORIENTED_EDGE('',*,*,#218,.T.);
#118=ORIENTED_EDGE('',*,*,#182,.T.);
#119=ORIENTED_EDGE('',*,*,#179,.T.);
#120=ORIENTED_EDGE('',*,*,#221,.T.);
#121=ORIENTED_EDGE('',*,*,#222,.T.);
#122=ORIENTED_EDGE('',*,*,#194,.T.);
#123=ORIENTED_EDGE('',*,*,#198,.T.);
#124=ORIENTED_EDGE('',*,*,#216,.T.);
#125=ORIENTED_EDGE('',*,*,#217,.F.);
#126=ORIENTED_EDGE('',*,*,#192,.T.);
#127=ORIENTED_EDGE('',*,*,#201,.F.);
#128=ORIENTED_EDGE('',*,*,#186,.F.);
#129=ORIENTED_EDGE('',*,*,#223,.F.);
#130=ORIENTED_EDGE('',*,*,#210,.F.);
#131=ORIENTED_EDGE('',*,*,#220,.F.);
#132=ORIENTED_EDGE('',*,*,#224,.T.);
#133=ORIENTED_EDGE('',*,*,#208,.F.);
#134=ORIENTED_EDGE('',*,*,#223,.T.);
#135=ORIENTED_EDGE('',*,*,#190,.F.);
#136=ORIENTED_EDGE('',*,*,#206,.F.);
#137=ORIENTED_EDGE('',*,*,#214,.F.);
#138=ORIENTED_EDGE('',*,*,#225,.F.);
#139=ORIENTED_EDGE('',*,*,#188,.F.);
#140=ORIENTED_EDGE('',*,*,#213,.F.);
#141=ORIENTED_EDGE('',*,*,#226,.T.);
#142=ORIENTED_EDGE('',*,*,#221,.F.);
#143=ORIENTED_EDGE('',*,*,#191,.F.);
#144=ORIENTED_EDGE('',*,*,#225,.T.);
#145=ORIENTED_EDGE('',*,*,#222,.F.);
#146=ORIENTED_EDGE('',*,*,#226,.F.);
#147=ORIENTED_EDGE('',*,*,#212,.F.);
#148=ORIENTED_EDGE('',*,*,#195,.F.);
#149=ORIENTED_EDGE('',*,*,#209,.F.);
#150=ORIENTED_EDGE('',*,*,#224,.F.);
#151=ORIENTED_EDGE('',*,*,#219,.F.);
#152=ORIENTED_EDGE('',*,*,#176,.F.);
#153=ORIENTED_EDGE('',*,*,#227,.F.);
#154=ORIENTED_EDGE('',*,*,#207,.T.);
#155=ORIENTED_EDGE('',*,*,#228,.T.);
#156=ORIENTED_EDGE('',*,*,#211,.F.);
#157=ORIENTED_EDGE('',*,*,#229,.F.);
#158=ORIENTED_EDGE('',*,*,#230,.T.);
#159=ORIENTED_EDGE('',*,*,#231,.T.);
#160=ORIENTED_EDGE('',*,*,#229,.T.);
#161=ORIENTED_EDGE('',*,*,#227,.T.);
#162=ORIENTED_EDGE('',*,*,#230,.F.);
#163=ORIENTED_EDGE('',*,*,#232,.T.);
#164=ORIENTED_EDGE('',*,*,#233,.F.);
#165=ORIENTED_EDGE('',*,*,#234,.T.);
#166=ORIENTED_EDGE('',*,*,#232,.F.);
#167=ORIENTED_EDGE('',*,*,#228,.F.);
#168=ORIENTED_EDGE('',*,*,#233,.T.);
#169=ORIENTED_EDGE('',*,*,#235,.T.);
#170=ORIENTED_EDGE('',*,*,#236,.T.);
#171=ORIENTED_EDGE('',*,*,#236,.F.);
#172=ORIENTED_EDGE('',*,*,#234,.F.);
#173=ORIENTED_EDGE('',*,*,#231,.F.);
#174=ORIENTED_EDGE('',*,*,#235,.F.);
#175=EDGE_CURVE('',#237,#238,#281,.T.);
#176=EDGE_CURVE('',#238,#239,#282,.F.);
#177=EDGE_CURVE('',#240,#239,#39,.T.);
#178=EDGE_CURVE('',#237,#240,#283,.T.);
#179=EDGE_CURVE('',#241,#240,#40,.T.);
#180=EDGE_CURVE('',#241,#242,#284,.T.);
#181=EDGE_CURVE('',#242,#237,#285,.T.);
#182=EDGE_CURVE('',#243,#241,#25,.T.);
#183=EDGE_CURVE('',#244,#243,#286,.T.);
#184=EDGE_CURVE('',#242,#244,#287,.F.);
#185=EDGE_CURVE('',#245,#246,#288,.T.);
#186=EDGE_CURVE('',#245,#247,#289,.T.);
#187=EDGE_CURVE('',#247,#248,#290,.T.);
#188=EDGE_CURVE('',#248,#246,#291,.T.);
#189=EDGE_CURVE('',#249,#250,#41,.T.);
#190=EDGE_CURVE('',#249,#245,#292,.T.);
#191=EDGE_CURVE('',#246,#251,#293,.T.);
#192=EDGE_CURVE('',#252,#251,#42,.T.);
#193=EDGE_CURVE('',#250,#252,#43,.T.);
#194=EDGE_CURVE('',#253,#254,#44,.T.);
#195=EDGE_CURVE('',#253,#255,#294,.T.);
#196=EDGE_CURVE('',#256,#255,#295,.T.);
#197=EDGE_CURVE('',#254,#256,#296,.T.);
#198=EDGE_CURVE('',#254,#257,#45,.T.);
#199=EDGE_CURVE('',#258,#256,#297,.T.);
#200=EDGE_CURVE('',#258,#257,#298,.T.);
#201=EDGE_CURVE('',#247,#259,#299,.T.);
#202=EDGE_CURVE('',#259,#244,#300,.T.);
#203=EDGE_CURVE('',#260,#243,#46,.T.);
#204=EDGE_CURVE('',#260,#261,#301,.T.);
#205=EDGE_CURVE('',#262,#261,#302,.T.);
#206=EDGE_CURVE('',#262,#248,#303,.F.);
#207=EDGE_CURVE('',#263,#263,#26,.T.);
#208=EDGE_CURVE('',#264,#265,#304,.T.);
#209=EDGE_CURVE('',#265,#238,#47,.T.);
#210=EDGE_CURVE('',#259,#264,#305,.T.);
#211=EDGE_CURVE('',#266,#266,#27,.T.);
#212=EDGE_CURVE('',#255,#267,#48,.F.);
#213=EDGE_CURVE('',#267,#268,#306,.T.);
#214=EDGE_CURVE('',#268,#262,#307,.T.);
#215=EDGE_CURVE('',#261,#258,#308,.F.);
#216=EDGE_CURVE('',#257,#260,#28,.T.);
#217=EDGE_CURVE('',#252,#260,#309,.T.);
#218=EDGE_CURVE('',#250,#243,#310,.T.);
#219=EDGE_CURVE('',#239,#269,#14,.T.);
#220=EDGE_CURVE('',#269,#249,#49,.F.);
#221=EDGE_CURVE('',#251,#270,#50,.T.);
#222=EDGE_CURVE('',#270,#253,#15,.T.);
#223=EDGE_CURVE('',#264,#245,#311,.T.);
#224=EDGE_CURVE('',#269,#265,#312,.F.);
#225=EDGE_CURVE('',#246,#268,#313,.T.);
#226=EDGE_CURVE('',#267,#270,#314,.F.);
#227=EDGE_CURVE('',#271,#271,#29,.T.);
#228=EDGE_CURVE('',#272,#272,#30,.T.);
#229=EDGE_CURVE('',#273,#273,#31,.T.);
#230=EDGE_CURVE('',#274,#274,#32,.T.);
#231=EDGE_CURVE('',#275,#275,#33,.F.);
#232=EDGE_CURVE('',#276,#276,#34,.T.);
#233=EDGE_CURVE('',#277,#277,#35,.T.);
#234=EDGE_CURVE('',#278,#278,#36,.T.);
#235=EDGE_CURVE('',#279,#279,#37,.T.);
#236=EDGE_CURVE('',#280,#280,#38,.F.);
#237=VERTEX_POINT('',#716);
#238=VERTEX_POINT('',#717);
#239=VERTEX_POINT('',#719);
#240=VERTEX_POINT('',#721);
#241=VERTEX_POINT('',#725);
#242=VERTEX_POINT('',#727);
#243=VERTEX_POINT('',#731);
#244=VERTEX_POINT('',#733);
#245=VERTEX_POINT('',#737);
#246=VERTEX_POINT('',#738);
#247=VERTEX_POINT('',#740);
#248=VERTEX_POINT('',#742);
#249=VERTEX_POINT('',#746);
#250=VERTEX_POINT('',#747);
#251=VERTEX_POINT('',#750);
#252=VERTEX_POINT('',#752);
#253=VERTEX_POINT('',#756);
#254=VERTEX_POINT('',#757);
#255=VERTEX_POINT('',#759);
#256=VERTEX_POINT('',#761);
#257=VERTEX_POINT('',#765);
#258=VERTEX_POINT('',#767);
#259=VERTEX_POINT('',#771);
#260=VERTEX_POINT('',#774);
#261=VERTEX_POINT('',#776);
#262=VERTEX_POINT('',#778);
#263=VERTEX_POINT('',#782);
#264=VERTEX_POINT('',#784);
#265=VERTEX_POINT('',#785);
#266=VERTEX_POINT('',#790);
#267=VERTEX_POINT('',#792);
#268=VERTEX_POINT('',#794);
#269=VERTEX_POINT('',#810);
#270=VERTEX_POINT('',#814);
#271=VERTEX_POINT('',#834);
#272=VERTEX_POINT('',#837);
#273=VERTEX_POINT('',#840);
#274=VERTEX_POINT('',#842);
#275=VERTEX_POINT('',#845);
#276=VERTEX_POINT('',#849);
#277=VERTEX_POINT('',#851);
#278=VERTEX_POINT('',#854);
#279=VERTEX_POINT('',#858);
#280=VERTEX_POINT('',#861);
#281=LINE('',#715,#315);
#282=LINE('',#718,#316);
#283=LINE('',#722,#317);
#284=LINE('',#726,#318);
#285=LINE('',#728,#319);
#286=LINE('',#732,#320);
#287=LINE('',#734,#321);
#288=LINE('',#736,#322);
#289=LINE('',#739,#323);
#290=LINE('',#741,#324);
#291=LINE('',#743,#325);
#292=LINE('',#748,#326);
#293=LINE('',#749,#327);
#294=LINE('',#758,#328);
#295=LINE('',#760,#329);
#296=LINE('',#762,#330);
#297=LINE('',#766,#331);
#298=LINE('',#768,#332);
#299=LINE('',#770,#333);
#300=LINE('',#772,#334);
#301=LINE('',#775,#335);
#302=LINE('',#777,#336);
#303=LINE('',#779,#337);
#304=LINE('',#783,#338);
#305=LINE('',#787,#339);
#306=LINE('',#793,#340);
#307=LINE('',#795,#341);
#308=LINE('',#796,#342);
#309=LINE('',#800,#343);
#310=LINE('',#801,#344);
#311=LINE('',#823,#345);
#312=LINE('',#825,#346);
#313=LINE('',#827,#347);
#314=LINE('',#829,#348);
#315=VECTOR('',#565,100.);
#316=VECTOR('',#566,100.);
#317=VECTOR('',#569,100.);
#318=VECTOR('',#574,100.);
#319=VECTOR('',#575,100.);
#320=VECTOR('',#580,100.);
#321=VECTOR('',#581,100.);
#322=VECTOR('',#584,100.);
#323=VECTOR('',#585,100.);
#324=VECTOR('',#586,100.);
#325=VECTOR('',#587,100.);
#326=VECTOR('',#592,100.);
#327=VECTOR('',#593,100.);
#328=VECTOR('',#602,100.);
#329=VECTOR('',#603,100.);
#330=VECTOR('',#604,100.);
#331=VECTOR('',#609,100.);
#332=VECTOR('',#610,100.);
#333=VECTOR('',#613,100.);
#334=VECTOR('',#614,100.);
#335=VECTOR('',#617,100.);
#336=VECTOR('',#618,100.);
#337=VECTOR('',#619,100.);
#338=VECTOR('',#624,100.);
#339=VECTOR('',#627,100.);
#340=VECTOR('',#634,100.);
#341=VECTOR('',#635,100.);
#342=VECTOR('',#636,100.);
#343=VECTOR('',#643,100.);
#344=VECTOR('',#644,100.);
#345=VECTOR('',#655,100.);
#346=VECTOR('',#658,100.);
#347=VECTOR('',#661,100.);
#348=VECTOR('',#664,100.);
#349=EDGE_LOOP('',(#51,#52,#53,#54));
#350=EDGE_LOOP('',(#55,#56,#57,#58));
#351=EDGE_LOOP('',(#59,#60,#61,#62));
#352=EDGE_LOOP('',(#63,#64,#65,#66));
#353=EDGE_LOOP('',(#67,#68,#69,#70,#71,#72));
#354=EDGE_LOOP('',(#73,#74,#75,#76));
#355=EDGE_LOOP('',(#77,#78,#79,#80));
#356=EDGE_LOOP('',(#81,#82,#83,#84,#85,#86,#87,#88));
#357=EDGE_LOOP('',(#89));
#358=EDGE_LOOP('',(#90,#91,#92,#93,#94,#95,#96));
#359=EDGE_LOOP('',(#97));
#360=EDGE_LOOP('',(#98,#99,#100,#101,#102,#103,#104));
#361=EDGE_LOOP('',(#105,#106,#107,#108));
#362=EDGE_LOOP('',(#109,#110,#111,#112));
#363=EDGE_LOOP('',(#113,#114,#115,#116,#117,#118,#119));
#364=EDGE_LOOP('',(#120,#121,#122,#123,#124,#125,#126));
#365=EDGE_LOOP('',(#127,#128,#129,#130));
#366=EDGE_LOOP('',(#131,#132,#133,#134,#135));
#367=EDGE_LOOP('',(#136,#137,#138,#139));
#368=EDGE_LOOP('',(#140,#141,#142,#143,#144));
#369=EDGE_LOOP('',(#145,#146,#147,#148));
#370=EDGE_LOOP('',(#149,#150,#151,#152));
#371=EDGE_LOOP('',(#153));
#372=EDGE_LOOP('',(#154));
#373=EDGE_LOOP('',(#155));
#374=EDGE_LOOP('',(#156));
#375=EDGE_LOOP('',(#157));
#376=EDGE_LOOP('',(#158));
#377=EDGE_LOOP('',(#159));
#378=EDGE_LOOP('',(#160));
#379=EDGE_LOOP('',(#161));
#380=EDGE_LOOP('',(#162));
#381=EDGE_LOOP('',(#163));
#382=EDGE_LOOP('',(#164));
#383=EDGE_LOOP('',(#165));
#384=EDGE_LOOP('',(#166));
#385=EDGE_LOOP('',(#167));
#386=EDGE_LOOP('',(#168));
#387=EDGE_LOOP('',(#169));
#388=EDGE_LOOP('',(#170));
#389=EDGE_LOOP('',(#171));
#390=EDGE_LOOP('',(#172));
#391=EDGE_LOOP('',(#173));
#392=EDGE_LOOP('',(#174));
#393=FACE_BOUND('',#349,.T.);
#394=FACE_BOUND('',#350,.T.);
#395=FACE_BOUND('',#351,.T.);
#396=FACE_BOUND('',#352,.T.);
#397=FACE_BOUND('',#353,.T.);
#398=FACE_BOUND('',#354,.T.);
#399=FACE_BOUND('',#355,.T.);
#400=FACE_BOUND('',#356,.T.);
#401=FACE_BOUND('',#357,.T.);
#402=FACE_BOUND('',#358,.T.);
#403=FACE_BOUND('',#359,.T.);
#404=FACE_BOUND('',#360,.T.);
#405=FACE_BOUND('',#361,.T.);
#406=FACE_BOUND('',#362,.T.);
#407=FACE_BOUND('',#363,.T.);
#408=FACE_BOUND('',#364,.T.);
#409=FACE_BOUND('',#365,.T.);
#410=FACE_BOUND('',#366,.T.);
#411=FACE_BOUND('',#367,.T.);
#412=FACE_BOUND('',#368,.T.);
#413=FACE_BOUND('',#369,.T.);
#414=FACE_BOUND('',#370,.T.);
#415=FACE_BOUND('',#371,.T.);
#416=FACE_BOUND('',#372,.T.);
#417=FACE_BOUND('',#373,.T.);
#418=FACE_BOUND('',#374,.T.);
#419=FACE_BOUND('',#375,.T.);
#420=FACE_BOUND('',#376,.T.);
#421=FACE_BOUND('',#377,.T.);
#422=FACE_BOUND('',#378,.T.);
#423=FACE_BOUND('',#379,.T.);
#424=FACE_BOUND('',#380,.T.);
#425=FACE_BOUND('',#381,.T.);
#426=FACE_BOUND('',#382,.T.);
#427=FACE_BOUND('',#383,.T.);
#428=FACE_BOUND('',#384,.T.);
#429=FACE_BOUND('',#385,.T.);
#430=FACE_BOUND('',#386,.T.);
#431=FACE_BOUND('',#387,.T.);
#432=FACE_BOUND('',#388,.T.);
#433=FACE_BOUND('',#389,.T.);
#434=FACE_BOUND('',#390,.T.);
#435=FACE_BOUND('',#391,.T.);
#436=FACE_BOUND('',#392,.T.);
#437=PLANE('',#503);
#438=PLANE('',#505);
#439=PLANE('',#507);
#440=PLANE('',#509);
#441=PLANE('',#510);
#442=PLANE('',#514);
#443=PLANE('',#516);
#444=PLANE('',#518);
#445=PLANE('',#520);
#446=PLANE('',#523);
#447=PLANE('',#526);
#448=PLANE('',#533);
#449=PLANE('',#534);
#450=PLANE('',#535);
#451=PLANE('',#536);
#452=PLANE('',#546);
#453=PLANE('',#548);
#454=PLANE('',#552);
#455=PLANE('',#554);
#456=PLANE('',#555);
#457=PLANE('',#557);
#458=ADVANCED_FACE('',(#393),#437,.T.);
#459=ADVANCED_FACE('',(#394),#438,.T.);
#460=ADVANCED_FACE('',(#395),#439,.F.);
#461=ADVANCED_FACE('',(#396),#440,.F.);
#462=ADVANCED_FACE('',(#397),#441,.T.);
#463=ADVANCED_FACE('',(#398),#442,.T.);
#464=ADVANCED_FACE('',(#399),#443,.T.);
#465=ADVANCED_FACE('',(#400),#444,.T.);
#466=ADVANCED_FACE('',(#401,#402),#445,.T.);
#467=ADVANCED_FACE('',(#403,#404),#446,.F.);
#468=ADVANCED_FACE('',(#405),#447,.F.);
#469=ADVANCED_FACE('',(#406),#16,.F.);
#470=ADVANCED_FACE('',(#407),#17,.F.);
#471=ADVANCED_FACE('',(#408),#18,.F.);
#472=ADVANCED_FACE('',(#409),#448,.T.);
#473=ADVANCED_FACE('',(#410),#449,.F.);
#474=ADVANCED_FACE('',(#411),#450,.F.);
#475=ADVANCED_FACE('',(#412),#451,.T.);
#476=ADVANCED_FACE('',(#413),#19,.T.);
#477=ADVANCED_FACE('',(#414),#20,.T.);
#478=ADVANCED_FACE('',(#415,#416),#21,.T.);
#479=ADVANCED_FACE('',(#417,#418),#22,.T.);
#480=ADVANCED_FACE('',(#419,#420),#23,.T.);
#481=ADVANCED_FACE('',(#421,#422),#452,.T.);
#482=ADVANCED_FACE('',(#423,#424),#453,.F.);
#483=ADVANCED_FACE('',(#425,#426),#24,.T.);
#484=ADVANCED_FACE('',(#427,#428),#454,.F.);
#485=ADVANCED_FACE('',(#429,#430),#455,.T.);
#486=ADVANCED_FACE('',(#431),#456,.T.);
#487=ADVANCED_FACE('',(#432),#457,.F.);
#488=ADVANCED_FACE('',(#433,#434),#12,.F.);
#489=ADVANCED_FACE('',(#435,#436),#13,.F.);
#490=CLOSED_SHELL('',(#458,#459,#460,#461,#462,#463,#464,#465,#466,#467,
#468,#469,#470,#471,#472,#473,#474,#475,#476,#477,#478,#479,#480,#481,#482,
#483,#484,#485,#486,#487,#488,#489));
#491=STYLED_ITEM('',(#492),#499);
#492=PRESENTATION_STYLE_ASSIGNMENT((#493));
#493=SURFACE_STYLE_USAGE(.BOTH.,#494);
#494=SURFACE_SIDE_STYLE('',(#495));
#495=SURFACE_STYLE_FILL_AREA(#496);
#496=FILL_AREA_STYLE('',(#497));
#497=FILL_AREA_STYLE_COLOUR('',#498);
#498=COLOUR_RGB('',0.611764705882353,0.643137254901961,0.596078431372549);
#499=MANIFOLD_SOLID_BREP('HeadBand',#490);
#500=SHAPE_DEFINITION_REPRESENTATION(#870,#501);
#501=SHAPE_REPRESENTATION('HeadBand',(#502),#865);
#502=AXIS2_PLACEMENT_3D('',#713,#561,#562);
#503=AXIS2_PLACEMENT_3D('',#714,#563,#564);
#504=AXIS2_PLACEMENT_3D('',#720,#567,#568);
#505=AXIS2_PLACEMENT_3D('',#723,#570,#571);
#506=AXIS2_PLACEMENT_3D('',#724,#572,#573);
#507=AXIS2_PLACEMENT_3D('',#729,#576,#577);
#508=AXIS2_PLACEMENT_3D('',#730,#578,#579);
#509=AXIS2_PLACEMENT_3D('',#735,#582,#583);
#510=AXIS2_PLACEMENT_3D('',#744,#588,#589);
#511=AXIS2_PLACEMENT_3D('',#745,#590,#591);
#512=AXIS2_PLACEMENT_3D('',#751,#594,#595);
#513=AXIS2_PLACEMENT_3D('',#753,#596,#597);
#514=AXIS2_PLACEMENT_3D('',#754,#598,#599);
#515=AXIS2_PLACEMENT_3D('',#755,#600,#601);
#516=AXIS2_PLACEMENT_3D('',#763,#605,#606);
#517=AXIS2_PLACEMENT_3D('',#764,#607,#608);
#518=AXIS2_PLACEMENT_3D('',#769,#611,#612);
#519=AXIS2_PLACEMENT_3D('',#773,#615,#616);
#520=AXIS2_PLACEMENT_3D('',#780,#620,#621);
#521=AXIS2_PLACEMENT_3D('',#781,#622,#623);
#522=AXIS2_PLACEMENT_3D('',#786,#625,#626);
#523=AXIS2_PLACEMENT_3D('',#788,#628,#629);
#524=AXIS2_PLACEMENT_3D('',#789,#630,#631);
#525=AXIS2_PLACEMENT_3D('',#791,#632,#633);
#526=AXIS2_PLACEMENT_3D('',#797,#637,#638);
#527=AXIS2_PLACEMENT_3D('',#798,#639,#640);
#528=AXIS2_PLACEMENT_3D('',#799,#641,#642);
#529=AXIS2_PLACEMENT_3D('',#802,#645,#646);
#530=AXIS2_PLACEMENT_3D('',#811,#647,#648);
#531=AXIS2_PLACEMENT_3D('',#812,#649,#650);
#532=AXIS2_PLACEMENT_3D('',#813,#651,#652);
#533=AXIS2_PLACEMENT_3D('',#822,#653,#654);
#534=AXIS2_PLACEMENT_3D('',#824,#656,#657);
#535=AXIS2_PLACEMENT_3D('',#826,#659,#660);
#536=AXIS2_PLACEMENT_3D('',#828,#662,#663);
#537=AXIS2_PLACEMENT_3D('',#830,#665,#666);
#538=AXIS2_PLACEMENT_3D('',#831,#667,#668);
#539=AXIS2_PLACEMENT_3D('',#832,#669,#670);
#540=AXIS2_PLACEMENT_3D('',#833,#671,#672);
#541=AXIS2_PLACEMENT_3D('',#835,#673,#674);
#542=AXIS2_PLACEMENT_3D('',#836,#675,#676);
#543=AXIS2_PLACEMENT_3D('',#838,#677,#678);
#544=AXIS2_PLACEMENT_3D('',#839,#679,#680);
#545=AXIS2_PLACEMENT_3D('',#841,#681,#682);
#546=AXIS2_PLACEMENT_3D('',#843,#683,#684);
#547=AXIS2_PLACEMENT_3D('',#844,#685,#686);
#548=AXIS2_PLACEMENT_3D('',#846,#687,#688);
#549=AXIS2_PLACEMENT_3D('',#847,#689,#690);
#550=AXIS2_PLACEMENT_3D('',#848,#691,#692);
#551=AXIS2_PLACEMENT_3D('',#850,#693,#694);
#552=AXIS2_PLACEMENT_3D('',#852,#695,#696);
#553=AXIS2_PLACEMENT_3D('',#853,#697,#698);
#554=AXIS2_PLACEMENT_3D('',#855,#699,#700);
#555=AXIS2_PLACEMENT_3D('',#856,#701,#702);
#556=AXIS2_PLACEMENT_3D('',#857,#703,#704);
#557=AXIS2_PLACEMENT_3D('',#859,#705,#706);
#558=AXIS2_PLACEMENT_3D('',#860,#707,#708);
#559=AXIS2_PLACEMENT_3D('',#862,#709,#710);
#560=AXIS2_PLACEMENT_3D('',#863,#711,#712);
#561=DIRECTION('',(0.,0.,1.));
#562=DIRECTION('',(1.,0.,0.));
#563=DIRECTION('',(0.930834116051498,0.,0.36544199046446));
#564=DIRECTION('',(0.36544199046446,0.,-0.930834116051498));
#565=DIRECTION('',(0.36544199046446,0.,-0.930834116051498));
#566=DIRECTION('',(-0.277804332387766,-0.649704074139252,0.707608203000393));
#567=DIRECTION('',(0.930834116051498,0.,0.36544199046446));
#568=DIRECTION('',(-0.36544199046446,0.,0.930834116051498));
#569=DIRECTION('',(0.,1.,0.));
#570=DIRECTION('',(0.29860009740973,0.,0.954378322169411));
#571=DIRECTION('',(0.954378322169411,0.,-0.29860009740973));
#572=DIRECTION('',(0.29860009740973,0.,0.954378322169411));
#573=DIRECTION('',(-0.954378322169411,0.,0.29860009740973));
#574=DIRECTION('',(0.,-1.,0.));
#575=DIRECTION('',(0.954378322169411,0.,-0.29860009740973));
#576=DIRECTION('',(0.0766711834324914,0.,-0.997056432520778));
#577=DIRECTION('',(0.,1.,0.));
#578=DIRECTION('',(-0.0766711834324914,0.,0.997056432520778));
#579=DIRECTION('',(0.997056432520778,0.,0.0766711834324914));
#580=DIRECTION('',(0.,1.,0.));
#581=DIRECTION('',(0.997056432520778,0.,0.0766711834324914));
#582=DIRECTION('',(0.973417157888882,0.,0.229039378115492));
#583=DIRECTION('',(0.229039378115492,0.,-0.973417157888882));
#584=DIRECTION('',(0.,1.,0.));
#585=DIRECTION('',(-0.229039378115492,0.,0.973417157888882));
#586=DIRECTION('',(0.,1.,0.));
#587=DIRECTION('',(0.229039378115492,0.,-0.973417157888882));
#588=DIRECTION('',(-0.170943202006721,0.,-0.985280884665733));
#589=DIRECTION('',(-0.985280884665733,0.,0.170943202006721));
#590=DIRECTION('',(-0.170943202006721,0.,-0.985280884665733));
#591=DIRECTION('',(-0.985280884665733,0.,0.170943202006721));
#592=DIRECTION('',(-0.985280884665733,0.,0.170943202006721));
#593=DIRECTION('',(0.985280884665733,0.,-0.170943202006721));
#594=DIRECTION('',(-0.170943202006721,0.,-0.985280884665733));
#595=DIRECTION('',(-0.985280884665733,0.,0.170943202006721));
#596=DIRECTION('',(-0.170943202006721,0.,-0.985280884665733));
#597=DIRECTION('',(-0.985280884665733,0.,0.170943202006721));
#598=DIRECTION('',(0.930834116051498,0.,0.36544199046446));
#599=DIRECTION('',(0.36544199046446,0.,-0.930834116051498));
#600=DIRECTION('',(0.930834116051498,0.,0.36544199046446));
#601=DIRECTION('',(-0.36544199046446,0.,0.930834116051498));
#602=DIRECTION('',(-0.277804332387766,0.649704074139252,0.707608203000393));
#603=DIRECTION('',(0.36544199046446,0.,-0.930834116051498));
#604=DIRECTION('',(0.,1.,0.));
#605=DIRECTION('',(0.29860009740973,0.,0.954378322169411));
#606=DIRECTION('',(0.954378322169411,0.,-0.29860009740973));
#607=DIRECTION('',(0.29860009740973,0.,0.954378322169411));
#608=DIRECTION('',(-0.954378322169411,0.,0.29860009740973));
#609=DIRECTION('',(0.954378322169411,0.,-0.29860009740973));
#610=DIRECTION('',(0.,-1.,0.));
#611=DIRECTION('',(-0.441005323383124,0.,0.897504487313432));
#612=DIRECTION('',(0.897504487313432,0.,0.441005323383124));
#613=DIRECTION('',(0.642724531288798,-0.697973045493147,0.315814509870297));
#614=DIRECTION('',(0.897504487313432,0.,0.441005323383124));
#615=DIRECTION('',(-0.441005323383124,0.,0.897504487313432));
#616=DIRECTION('',(0.897504487313432,0.,0.441005323383124));
#617=DIRECTION('',(0.,1.,0.));
#618=DIRECTION('',(0.897504487313432,0.,0.441005323383124));
#619=DIRECTION('',(0.642724531288798,0.697973045493147,0.315814509870297));
#620=DIRECTION('',(0.,-1.,0.));
#621=DIRECTION('',(1.,0.,0.));
#622=DIRECTION('',(0.,-1.,0.));
#623=DIRECTION('',(0.,0.,-1.));
#624=DIRECTION('',(0.985280884665733,0.,-0.170943202006721));
#625=DIRECTION('',(0.,-1.,0.));
#626=DIRECTION('',(-0.36544199046446,0.,0.930834116051498));
#627=DIRECTION('',(0.229039378115492,0.,-0.973417157888882));
#628=DIRECTION('',(0.,-1.,0.));
#629=DIRECTION('',(1.,0.,0.));
#630=DIRECTION('',(0.,-1.,0.));
#631=DIRECTION('',(0.,0.,-1.));
#632=DIRECTION('',(0.,-1.,0.));
#633=DIRECTION('',(-0.36544199046446,0.,0.930834116051498));
#634=DIRECTION('',(-0.985280884665733,0.,0.170943202006721));
#635=DIRECTION('',(-0.229039378115492,0.,0.973417157888882));
#636=DIRECTION('',(-0.997056432520778,0.,-0.0766711834324914));
#637=DIRECTION('',(0.0766711834324914,0.,-0.997056432520778));
#638=DIRECTION('',(0.,1.,0.));
#639=DIRECTION('',(-0.0766711834324914,0.,0.997056432520778));
#640=DIRECTION('',(0.997056432520778,0.,0.0766711834324914));
#641=DIRECTION('',(-0.0766711834324914,0.,0.997056432520778));
#642=DIRECTION('',(0.997056432520778,0.,0.0766711834324914));
#643=DIRECTION('',(-0.0766711834324914,0.,0.997056432520778));
#644=DIRECTION('',(-0.0766711834324914,0.,0.997056432520778));
#645=DIRECTION('',(-0.0766711834324914,0.,0.997056432520778));
#646=DIRECTION('',(0.997056432520778,0.,0.0766711834324914));
#647=DIRECTION('',(0.120875097336694,0.707106781186548,0.69669879492062));
#648=DIRECTION('',(-0.219060474727229,-0.665540977158485,0.713489815018554));
#649=DIRECTION('',(-0.0766711834324914,0.,0.997056432520778));
#650=DIRECTION('',(0.997056432520778,0.,0.0766711834324914));
#651=DIRECTION('',(-0.120875097336694,0.707106781186548,-0.69669879492062));
#652=DIRECTION('',(-0.219060474727229,0.665540977158486,0.713489815018554));
#653=DIRECTION('',(-0.688309873266565,-0.707106781186548,-0.161955297424214));
#654=DIRECTION('',(-0.229039378115492,0.,0.973417157888882));
#655=DIRECTION('',(-0.526623807647446,0.640616136011093,-0.558818692870168));
#656=DIRECTION('',(0.120875097336694,0.707106781186548,0.69669879492062));
#657=DIRECTION('',(-0.985280884665733,0.,0.170943202006721));
#658=DIRECTION('',(0.277804332387766,0.649704074139252,-0.707608203000393));
#659=DIRECTION('',(0.688309873266565,-0.707106781186548,0.161955297424214));
#660=DIRECTION('',(0.229039378115492,0.,-0.973417157888882));
#661=DIRECTION('',(0.526623807647446,0.640616136011093,0.558818692870168));
#662=DIRECTION('',(-0.120875097336694,0.707106781186548,-0.69669879492062));
#663=DIRECTION('',(0.985280884665733,0.,-0.170943202006721));
#664=DIRECTION('',(-0.277804332387766,0.649704074139252,0.707608203000393));
#665=DIRECTION('',(-0.277804332387766,0.649704074139252,0.707608203000393));
#666=DIRECTION('',(0.,-0.736602589587378,0.676325827551461));
#667=DIRECTION('',(-0.277804332387766,-0.649704074139252,0.707608203000393));
#668=DIRECTION('',(0.,-0.736602589587378,-0.676325827551461));
#669=DIRECTION('',(0.,1.,0.));
#670=DIRECTION('',(0.,0.,1.));
#671=DIRECTION('',(0.,-1.,0.));
#672=DIRECTION('',(0.,0.,-1.));
#673=DIRECTION('',(0.,-1.,0.));
#674=DIRECTION('',(0.,0.,-1.));
#675=DIRECTION('',(0.,-1.,0.));
#676=DIRECTION('',(0.,0.,-1.));
#677=DIRECTION('',(0.,1.,0.));
#678=DIRECTION('',(0.,0.,1.));
#679=DIRECTION('',(0.,-1.,0.));
#680=DIRECTION('',(0.,0.,-1.));
#681=DIRECTION('',(0.,-1.,0.));
#682=DIRECTION('',(0.,0.,-1.));
#683=DIRECTION('',(0.,-1.,0.));
#684=DIRECTION('',(1.,0.,0.));
#685=DIRECTION('',(0.,-1.,0.));
#686=DIRECTION('',(0.,0.,-1.));
#687=DIRECTION('',(0.,-1.,0.));
#688=DIRECTION('',(1.,0.,0.));
#689=DIRECTION('',(0.,-1.,0.));
#690=DIRECTION('',(0.,0.,-1.));
#691=DIRECTION('',(0.,-1.,0.));
#692=DIRECTION('',(0.,0.,-1.));
#693=DIRECTION('',(0.,-1.,0.));
#694=DIRECTION('',(0.,0.,-1.));
#695=DIRECTION('',(0.,-1.,0.));
#696=DIRECTION('',(1.,0.,0.));
#697=DIRECTION('',(0.,-1.,0.));
#698=DIRECTION('',(0.,0.,-1.));
#699=DIRECTION('',(0.,-1.,0.));
#700=DIRECTION('',(1.,0.,0.));
#701=DIRECTION('',(0.,-1.,0.));
#702=DIRECTION('',(1.,0.,0.));
#703=DIRECTION('',(0.,-1.,0.));
#704=DIRECTION('',(0.,0.,-1.));
#705=DIRECTION('',(0.,-1.,0.));
#706=DIRECTION('',(1.,0.,0.));
#707=DIRECTION('',(0.,-1.,0.));
#708=DIRECTION('',(0.,0.,-1.));
#709=DIRECTION('',(0.,1.,0.));
#710=DIRECTION('',(0.,0.,1.));
#711=DIRECTION('',(0.,-1.,0.));
#712=DIRECTION('',(0.,0.,-1.));
#713=CARTESIAN_POINT('',(0.,0.,0.));
#714=CARTESIAN_POINT('',(-9.8139138892293,-17.25,5.59694985785445));
#715=CARTESIAN_POINT('',(-9.8139138892293,-17.25,5.59694985785445));
#716=CARTESIAN_POINT('',(-11.3982111215591,-17.25,9.63238626718521));
#717=CARTESIAN_POINT('',(-8.25912390986712,-17.25,1.63667273084469));
#718=CARTESIAN_POINT('',(-9.15761312012433,-19.3513066839413,3.92525595782587));
#719=CARTESIAN_POINT('',(-8.21460019040525,-17.1458718833447,1.52326431547362));
#720=CARTESIAN_POINT('',(-6.22892257733407,-5.25194927689732,-3.53454653811003));
#721=CARTESIAN_POINT('',(-11.3982111215591,-16.5135087275462,9.63238626718521));
#722=CARTESIAN_POINT('',(-11.3982111215591,-17.25,9.63238626718521));
#723=CARTESIAN_POINT('',(-14.1769820615731,-17.25,10.5017912548021));
#724=CARTESIAN_POINT('',(-7.13895277812615,-5.25194927689732,8.29977536572287));
#725=CARTESIAN_POINT('',(-16.4031281228606,-13.1725348220265,11.1982943241904));
#726=CARTESIAN_POINT('',(-16.4031281228606,-17.25,11.1982943241904));
#727=CARTESIAN_POINT('',(-16.4031281228606,-17.25,11.1982943241904));
#728=CARTESIAN_POINT('',(-14.1769820615731,-17.25,10.5017912548021));
#729=CARTESIAN_POINT('',(-16.6346134740459,-17.25,11.1804936709438));
#730=CARTESIAN_POINT('',(-7.41499067965535,-5.25194927689732,11.8894599514781));
#731=CARTESIAN_POINT('',(-16.6346134740459,-12.9002119778131,11.1804936709438));
#732=CARTESIAN_POINT('',(-16.6346134740459,-17.25,11.1804936709438));
#733=CARTESIAN_POINT('',(-16.6346134740459,-17.25,11.1804936709438));
#734=CARTESIAN_POINT('',(-13.4992576305022,-17.25,11.4215948114266));
#735=CARTESIAN_POINT('',(-18.7406435608864,-17.25,5.19294606056064));
#736=CARTESIAN_POINT('',(-17.6960691809654,-17.25,0.753505853936077));
#737=CARTESIAN_POINT('',(-17.6960691809654,-15.25,0.753505853936077));
#738=CARTESIAN_POINT('',(-17.6960691809654,-3.25,0.753505853936077));
#739=CARTESIAN_POINT('',(-19.7852179408073,-15.25,9.63238626718521));
#740=CARTESIAN_POINT('',(-19.7852179408073,-15.25,9.63238626718521));
#741=CARTESIAN_POINT('',(-19.7852179408073,-17.25,9.63238626718521));
#742=CARTESIAN_POINT('',(-19.7852179408073,-3.25,9.63238626718521));
#743=CARTESIAN_POINT('',(-18.7406435608864,-3.25,5.19294606056064));
#744=CARTESIAN_POINT('',(-15.329456049949,-17.25,0.342905757229277));
#745=CARTESIAN_POINT('',(-6.40806448626016,-5.25194927689732,-1.20492822999975));
#746=CARTESIAN_POINT('',(-13.1538422091974,-15.25,-0.0345565502774599));
#747=CARTESIAN_POINT('',(-15.807608931632,-12.9002119778131,0.425863811034799));
#748=CARTESIAN_POINT('',(-15.329456049949,-15.25,0.342905757229277));
#749=CARTESIAN_POINT('',(-7.19727873802185,-3.25,-1.06800198554993));
#750=CARTESIAN_POINT('',(-12.9911698768492,-3.25,-0.0627796994345028));
#751=CARTESIAN_POINT('',(-6.40973513784347,-13.353497714173,-1.20463837709026));
#752=CARTESIAN_POINT('',(-15.807608931632,-5.70324842385225,0.425863811034799));
#753=CARTESIAN_POINT('',(-6.32342217268888,-9.30173020083266,-1.21961341097943));
#754=CARTESIAN_POINT('',(-9.8139138892293,-17.25,5.59694985785445));
#755=CARTESIAN_POINT('',(-6.23097244623779,-13.353497714173,-3.52932522266518));
#756=CARTESIAN_POINT('',(-8.17155782888421,-1.45479176505998,1.41362913510401));
#757=CARTESIAN_POINT('',(-11.3982111215591,-2.09133354487241,9.63238626718521));
#758=CARTESIAN_POINT('',(-6.26976341507047,-5.90253945930896,-3.43051896031349));
#759=CARTESIAN_POINT('',(-8.25912390986712,-1.25,1.63667273084469));
#760=CARTESIAN_POINT('',(-9.8139138892293,-1.25,5.59694985785445));
#761=CARTESIAN_POINT('',(-11.3982111215591,-1.25,9.63238626718521));
#762=CARTESIAN_POINT('',(-11.3982111215591,-17.25,9.63238626718521));
#763=CARTESIAN_POINT('',(-14.1769820615731,-17.25,10.5017912548021));
#764=CARTESIAN_POINT('',(-7.14064177674877,-13.353497714173,8.30030380936154));
#765=CARTESIAN_POINT('',(-16.4031281228606,-5.43104202821628,11.1982943241904));
#766=CARTESIAN_POINT('',(-14.1769820615731,-1.25,10.5017912548021));
#767=CARTESIAN_POINT('',(-16.4031281228606,-1.25,11.1982943241904));
#768=CARTESIAN_POINT('',(-16.4031281228606,-17.25,11.1982943241904));
#769=CARTESIAN_POINT('',(-17.1092472970486,-17.25,10.9472736196118));
#770=CARTESIAN_POINT('',(-17.5156814107422,-17.7146255847293,10.7475647487627));
#771=CARTESIAN_POINT('',(-17.9435292525724,-17.25,10.5373338490712));
#772=CARTESIAN_POINT('',(-17.1092472970486,-17.25,10.9472736196118));
#773=CARTESIAN_POINT('',(-7.61766540257238,-9.30173020083266,15.6111368113388));
#774=CARTESIAN_POINT('',(-16.6346134740459,-5.70324842385225,11.1804936709438));
#775=CARTESIAN_POINT('',(-16.6346134740459,-17.25,11.1804936709438));
#776=CARTESIAN_POINT('',(-16.6346134740459,-1.25,11.1804936709438));
#777=CARTESIAN_POINT('',(-17.1092472970486,-1.25,10.9472736196118));
#778=CARTESIAN_POINT('',(-17.9435292525724,-1.25,10.5373338490712));
#779=CARTESIAN_POINT('',(-24.693351787011,-8.58003637103041,7.22068450452116));
#780=CARTESIAN_POINT('',(-12.9628429189324,-17.25,4.4458874501288));
#781=CARTESIAN_POINT('',(-13.1013265812198,-17.25,5.8579698342427));
#782=CARTESIAN_POINT('',(-13.1013265812198,-17.25,5.3579698342427));
#783=CARTESIAN_POINT('',(-13.3811658677917,-17.25,2.03476141358794));
#784=CARTESIAN_POINT('',(-16.0519525936857,-17.25,2.49813469313376));
#785=CARTESIAN_POINT('',(-8.44646398239118,-17.25,1.17860581941425));
#786=CARTESIAN_POINT('',(-8.49183243888,-17.25,1.54531223322857));
#787=CARTESIAN_POINT('',(-15.7492348651877,-17.25,1.21158461016706));
#788=CARTESIAN_POINT('',(-12.9628429189324,-1.25,4.4458874501288));
#789=CARTESIAN_POINT('',(-13.1013265812198,-1.25,5.85796983424271));
#790=CARTESIAN_POINT('',(-13.1013265812198,-1.25,5.35796983424271));
#791=CARTESIAN_POINT('',(-8.49183243888,-1.25,1.54531223322857));
#792=CARTESIAN_POINT('',(-8.44646398239118,-1.25,1.17860581941425));
#793=CARTESIAN_POINT('',(-17.354182776952,-1.25,2.72406762326754));
#794=CARTESIAN_POINT('',(-16.0519525936857,-1.25,2.49813469313376));
#795=CARTESIAN_POINT('',(-16.3241540289959,-1.25,3.65499055657978));
#796=CARTESIAN_POINT('',(-16.6346134740459,-1.25,11.1804936709438));
#797=CARTESIAN_POINT('',(-16.6346134740459,-17.25,11.1804936709438));
#798=CARTESIAN_POINT('',(-7.41662935241321,-13.353497714173,11.8893339415799));
#799=CARTESIAN_POINT('',(-6.18190079788209,-9.30173020083266,-3.06000233903792));
#800=CARTESIAN_POINT('',(-15.4845457225585,-5.70324842385224,-3.77535281686791));
#801=CARTESIAN_POINT('',(-15.4845457225585,-12.9002119778131,-3.77535281686791));
#802=CARTESIAN_POINT('',(-6.26492292816798,-5.25194927689732,-3.06638653633357));
#803=CARTESIAN_POINT('',(-8.21460019040525,-17.1458718833447,1.52326431547363));
#804=CARTESIAN_POINT('',(-8.19600646392704,-17.1478673426851,1.47590337884877));
#805=CARTESIAN_POINT('',(-8.17235585840866,-17.149975143798,1.37787108711394));
#806=CARTESIAN_POINT('',(-8.17821977426285,-17.1476643949635,1.22475949382279));
#807=CARTESIAN_POINT('',(-8.2409029907326,-17.1378416851712,1.07937600285136));
#808=CARTESIAN_POINT('',(-8.33821038617328,-17.1233249674594,1.03125672215039));
#809=CARTESIAN_POINT('',(-8.38901196172493,-17.1156363218904,1.03226713292592));
#810=CARTESIAN_POINT('',(-8.38901196172492,-17.1156363218904,1.03226713292592));
#811=CARTESIAN_POINT('',(-5.6172022512392,-5.25194927689732,-11.489552039931));
#812=CARTESIAN_POINT('',(-6.26656160092584,-13.353497714173,-3.06651254623181));
#813=CARTESIAN_POINT('',(-5.61053187262135,-13.353497714173,-11.5977315942172));
#814=CARTESIAN_POINT('',(-8.34623670168504,-1.48440265331712,0.923312299034235));
#815=CARTESIAN_POINT('',(-8.34623670168504,-1.48440265331712,0.923312299034233));
#816=CARTESIAN_POINT('',(-8.29542060100794,-1.47687033243599,0.922140708171075));
#817=CARTESIAN_POINT('',(-8.19781903059969,-1.46262664231509,0.969959240163499));
#818=CARTESIAN_POINT('',(-8.13506058855773,-1.45302243087358,1.11546439758492));
#819=CARTESIAN_POINT('',(-8.1293439345933,-1.45078539457465,1.26850952977428));
#820=CARTESIAN_POINT('',(-8.15296696452566,-1.45284270411311,1.36627548871589));
#821=CARTESIAN_POINT('',(-8.17155782888422,-1.45479176505998,1.41362913510403));
#822=CARTESIAN_POINT('',(-16.3241540289959,-17.25,3.65499055657978));
#823=CARTESIAN_POINT('',(-15.7869950298861,-17.572309945474,2.77929030615086));
#824=CARTESIAN_POINT('',(-15.329456049949,-15.25,0.342905757229277));
#825=CARTESIAN_POINT('',(-8.45240028555777,-17.2638832980736,1.19372645047162));
#826=CARTESIAN_POINT('',(-18.7406435608864,-3.25,5.19294606056064));
#827=CARTESIAN_POINT('',(-16.6792931944764,-2.01313395977435,1.83244193593704));
#828=CARTESIAN_POINT('',(-13.3811658677917,-1.25,2.03476141358794));
#829=CARTESIAN_POINT('',(-8.99560099641594,0.0342728268706436,2.5773379858827));
#830=CARTESIAN_POINT('',(-6.50247194408334,-5.90253945930896,-3.5218794579296));
#831=CARTESIAN_POINT('',(-9.39032164913721,-19.3513066839413,3.83389546020976));
#832=CARTESIAN_POINT('',(-13.1013265812198,-17.55,5.8579698342427));
#833=CARTESIAN_POINT('',(-13.1013265812198,-17.55,5.8579698342427));
#834=CARTESIAN_POINT('',(-13.1013265812198,-17.55,5.3579698342427));
#835=CARTESIAN_POINT('',(-13.1013265812198,-0.95,5.85796983424271));
#836=CARTESIAN_POINT('',(-13.1013265812198,-0.95,5.85796983424271));
#837=CARTESIAN_POINT('',(-13.1013265812198,-0.95,5.35796983424271));
#838=CARTESIAN_POINT('',(-13.1013265812198,-18.,5.8579698342427));
#839=CARTESIAN_POINT('',(-13.1013265812198,-18.,5.8579698342427));
#840=CARTESIAN_POINT('',(-13.1013265812198,-18.,4.6079698342427));
#841=CARTESIAN_POINT('',(-13.1013265812198,-17.55,5.8579698342427));
#842=CARTESIAN_POINT('',(-13.1013265812198,-17.55,4.6079698342427));
#843=CARTESIAN_POINT('',(-13.1013265812198,-18.,5.8579698342427));
#844=CARTESIAN_POINT('',(-13.1013265812198,-18.,5.8579698342427));
#845=CARTESIAN_POINT('',(-13.1013265812198,-18.,5.1079698342427));
#846=CARTESIAN_POINT('',(-13.1013265812198,-17.55,5.8579698342427));
#847=CARTESIAN_POINT('',(-13.1013265812198,-0.5,5.8579698342427));
#848=CARTESIAN_POINT('',(-13.1013265812198,-0.5,5.8579698342427));
#849=CARTESIAN_POINT('',(-13.1013265812198,-0.5,4.6079698342427));
#850=CARTESIAN_POINT('',(-13.1013265812198,-0.95,5.8579698342427));
#851=CARTESIAN_POINT('',(-13.1013265812198,-0.95,4.6079698342427));
#852=CARTESIAN_POINT('',(-13.1013265812198,-0.5,5.8579698342427));
#853=CARTESIAN_POINT('',(-13.1013265812198,-0.5,5.8579698342427));
#854=CARTESIAN_POINT('',(-13.1013265812198,-0.5,5.1079698342427));
#855=CARTESIAN_POINT('',(-13.1013265812198,-0.95,5.8579698342427));
#856=CARTESIAN_POINT('',(-13.0817333752395,-17.875,6.1869811191706));
#857=CARTESIAN_POINT('',(-13.1013265812198,-17.875,5.8579698342427));
#858=CARTESIAN_POINT('',(-13.1013265812198,-17.875,5.2329698342427));
#859=CARTESIAN_POINT('',(-13.0817333752395,-0.625,6.1869811191706));
#860=CARTESIAN_POINT('',(-13.1013265812198,-0.625,5.8579698342427));
#861=CARTESIAN_POINT('',(-13.1013265812198,-0.625,5.2329698342427));
#862=CARTESIAN_POINT('',(-13.1013265812198,-0.5,5.8579698342427));
#863=CARTESIAN_POINT('',(-13.1013265812198,-17.75,5.8579698342427));
#864=MECHANICAL_DESIGN_GEOMETRIC_PRESENTATION_REPRESENTATION('',(#491),
#865);
#865=(
GEOMETRIC_REPRESENTATION_CONTEXT(3)
GLOBAL_UNCERTAINTY_ASSIGNED_CONTEXT((#866))
GLOBAL_UNIT_ASSIGNED_CONTEXT((#869,#868,#867))
REPRESENTATION_CONTEXT('HeadBand','TOP_LEVEL_ASSEMBLY_PART')
);
#866=UNCERTAINTY_MEASURE_WITH_UNIT(LENGTH_MEASURE(0.002),#869,
'DISTANCE_ACCURACY_VALUE','Maximum Tolerance applied to model');
#867=(
NAMED_UNIT(*)
SI_UNIT($,.STERADIAN.)
SOLID_ANGLE_UNIT()
);
#868=(
NAMED_UNIT(*)
PLANE_ANGLE_UNIT()
SI_UNIT($,.RADIAN.)
);
#869=(
LENGTH_UNIT()
NAMED_UNIT(*)
SI_UNIT(.CENTI.,.METRE.)
);
#870=PRODUCT_DEFINITION_SHAPE('','',#871);
#871=PRODUCT_DEFINITION('','',#873,#872);
#872=PRODUCT_DEFINITION_CONTEXT('',#879,'design');
#873=PRODUCT_DEFINITION_FORMATION_WITH_SPECIFIED_SOURCE('','',#875,
 .NOT_KNOWN.);
#874=PRODUCT_RELATED_PRODUCT_CATEGORY('','',(#875));
#875=PRODUCT('HeadBand','HeadBand','HeadBand',(#877));
#876=PRODUCT_CATEGORY('','');
#877=PRODUCT_CONTEXT('',#879,'mechanical');
#878=APPLICATION_PROTOCOL_DEFINITION('international standard',
'ap242_managed_model_based_3d_engineering',2020,#879);
#879=APPLICATION_CONTEXT('managed model based 3d engineering');
ENDSEC;
END-ISO-10303-21;
